<?xml version="1.0" encoding="iso-8859-1"?>
<!-- Generator: Adobe Illustrator 16.0.0, SVG Export Plug-In . SVG Version: 6.00 Build 0)  -->
<!DOCTYPE svg PUBLIC "-//W3C//DTD SVG 1.1//EN" "http://www.w3.org/Graphics/SVG/1.1/DTD/svg11.dtd">
<svg version="1.1" id="Capa_1" xmlns="http://www.w3.org/2000/svg" xmlns:xlink="http://www.w3.org/1999/xlink" x="0px" y="0px"
	 width="346.242px" height="346.243px" viewBox="0 0 346.242 346.243" style="enable-background:new 0 0 346.242 346.243;"
	 xml:space="preserve">
<g>
	<g>
		<g>
			<path d="M339.402,278.421l-54.638-54.674c-4.257-4.239-10.189-6.575-16.693-6.575c-6.845,0-13.462,2.672-18.134,7.332
				l-29.525,29.543l-7.98-4.432c-17.564-9.727-41.599-23.082-66.999-48.506c-25.493-25.467-38.848-49.57-48.621-67.194l-4.366-7.755
				l29.589-29.576c9.791-9.818,10.121-25.437,0.738-34.84L68.127,7.107c-4.254-4.243-10.175-6.594-16.675-6.594
				c-6.854,0-13.459,2.685-18.131,7.362L19.902,21.377l-1.261,2.063c-4.987,6.407-9.076,13.606-12.145,21.452
				c-2.834,7.476-4.612,14.585-5.417,21.71c-7.046,58.559,19.96,112.313,93.212,185.561
				c86.832,86.817,159.386,93.566,179.556,93.566c3.452,0,5.536-0.186,6.131-0.246c7.451-0.906,14.586-2.696,21.779-5.494
				c7.77-3.026,14.945-7.086,21.329-12.082l3.057-2.402l12.556-12.321C348.476,303.407,348.788,287.807,339.402,278.421z"/>
		</g>
		<g>
			<path d="M242.251,143.779h-35.338v-0.24l6.287-5.815c16.579-15.976,27.123-27.715,27.123-42.238
				c0-11.259-7.146-22.875-24.091-22.875c-9.091,0-16.831,3.396-22.271,7.996l3.393,7.5c3.627-3.023,9.56-6.653,16.693-6.653
				c11.745,0,15.612,7.38,15.612,15.366c-0.126,11.869-9.199,22.038-29.291,41.157l-8.348,8.109v6.536h50.23V143.779z"/>
		</g>
		<g>
			<path d="M287.065,152.621h10.039v-21.428h11.02v-8.344h-11.02V73.946h-11.486l-35.104,50.23v7.017h36.552V152.621z
				 M261.28,122.849v-0.246l19.258-26.749c2.174-3.63,4.119-7.017,6.533-11.623h0.366c-0.234,4.12-0.366,8.227-0.366,12.346v26.265
				H261.28V122.849z"/>
		</g>
	</g>
</g>
<g>
</g>
<g>
</g>
<g>
</g>
<g>
</g>
<g>
</g>
<g>
</g>
<g>
</g>
<g>
</g>
<g>
</g>
<g>
</g>
<g>
</g>
<g>
</g>
<g>
</g>
<g>
</g>
<g>
</g>
</svg>
