<?xml version="1.0" encoding="iso-8859-1"?>
<!-- Generator: Adobe Illustrator 16.0.0, SVG Export Plug-In . SVG Version: 6.00 Build 0)  -->
<!DOCTYPE svg PUBLIC "-//W3C//DTD SVG 1.1//EN" "http://www.w3.org/Graphics/SVG/1.1/DTD/svg11.dtd">
<svg version="1.1" id="Capa_1" xmlns="http://www.w3.org/2000/svg" xmlns:xlink="http://www.w3.org/1999/xlink" x="0px" y="0px"
	 width="354.769px" height="354.769px" viewBox="0 0 354.769 354.769" style="enable-background:new 0 0 354.769 354.769;"
	 xml:space="preserve">
<g>
	<g>
		<g>
			<path d="M177.327,103.957c-1.564,0-3.12,0.184-4.645,0.541c-10.869,2.563-17.615,13.472-15.057,24.337
				c2.159,9.176,10.256,15.583,19.69,15.583c1.561,0,3.117-0.174,4.642-0.538c5.263-1.246,9.712-4.461,12.564-9.061
				c2.841-4.606,3.735-10.031,2.492-15.282C194.864,110.376,186.757,103.957,177.327,103.957z"/>
		</g>
		<g>
			<path d="M296.771,138.404c-10.898-19.99-38.707-27.998-53.503-31.921c11.313-12.893,34.06-39.953,28.961-63.795
				c-2.42-11.277-10.586-20.155-24.271-26.37c-1.242-0.573-5.229-2.738-8.869-4.729c-12.195-6.63-17.708-9.488-20.193-10.115
				c-7.225-1.79-14.166-1.955-20.417-0.463c-25.382,5.978-35.203,36.569-39.968,51.756c-11.094-9.112-32.687-26.346-53.809-26.346
				c-2.774,0-5.474,0.3-8.031,0.901c-9.851,2.327-17.967,8.953-24.154,19.72c-0.244,0.45-1.315,2.222-2.735,4.575l-0.333,0.553
				c-6.75,11.175-9.848,16.393-10.463,17.729c-6.488,14.294-7.2,27.259-2.141,38.512c9.416,20.888,35.831,29.753,50.083,34.155
				c-10.286,12.586-30.573,38.719-25.07,62.107c2.738,11.56,11.259,20.62,25.352,26.932c0.826,0.372,5.086,2.78,8.518,4.714
				l0.739,0.414c10.728,6.064,14.583,8.166,16.318,8.719c8.923,2.816,17.42,3.339,25.049,1.543
				c22.47-5.29,33.008-29.754,37.656-42.357c12.917,22.566,35.41,76.057,10.046,144.385l-0.6,1.58l11.252,4.167l0.583-1.585
				c23.521-63.375,8.112-115.347-5.206-143.497c13.732,8.239,26.187,12.406,37.067,12.406c3.068,0,6.047-0.33,8.869-0.997
				c11.974-2.822,21.317-11.439,27.767-25.629c0.372-0.822,3.782-6.767,5.067-9.019c5.867-10.241,7.902-13.907,8.413-15.433
				C302.643,158.922,302.001,147.945,296.771,138.404z M204.447,140.974c-4.491,7.266-11.517,12.328-19.815,14.283
				c-2.405,0.573-4.87,0.85-7.305,0.85h-0.021c-14.862,0-27.643-10.115-31.063-24.596c-4.026-17.125,6.629-34.347,23.752-38.389
				c2.405-0.558,4.87-0.847,7.332-0.847c14.865,0,27.643,10.112,31.06,24.596C210.332,125.151,208.957,133.711,204.447,140.974z"/>
		</g>
	</g>
</g>
<g>
</g>
<g>
</g>
<g>
</g>
<g>
</g>
<g>
</g>
<g>
</g>
<g>
</g>
<g>
</g>
<g>
</g>
<g>
</g>
<g>
</g>
<g>
</g>
<g>
</g>
<g>
</g>
<g>
</g>
</svg>
