<?xml version="1.0" encoding="iso-8859-1"?>
<!-- Generator: Adobe Illustrator 16.0.0, SVG Export Plug-In . SVG Version: 6.00 Build 0)  -->
<!DOCTYPE svg PUBLIC "-//W3C//DTD SVG 1.1//EN" "http://www.w3.org/Graphics/SVG/1.1/DTD/svg11.dtd">
<svg version="1.1" id="Capa_1" xmlns="http://www.w3.org/2000/svg" xmlns:xlink="http://www.w3.org/1999/xlink" x="0px" y="0px"
	 width="364.035px" height="364.034px" viewBox="0 0 364.035 364.034" style="enable-background:new 0 0 364.035 364.034;"
	 xml:space="preserve">
<g>
	<path d="M257.227,99.457l76.718-76.72l7.26,7.254l-76.724,76.714L257.227,99.457z M280.255,27.354l10.677,10.68l-7.266,7.269
		L272.984,34.62L280.255,27.354z M290.536,17.065l10.694,10.683l-7.26,7.26l-10.688-10.68L290.536,17.065z M300.414,7.19
		l10.683,10.7l-7.271,7.254l-10.677-10.697L300.414,7.19z M329.345,90.546l-10.671-10.68l7.266-7.263l10.677,10.68L329.345,90.546z
		 M339.655,80.248L328.96,69.565l7.254-7.26l10.688,10.679L339.655,80.248z M349.509,70.391l-10.683-10.683l7.266-7.253
		l10.67,10.679L349.509,70.391z M364.035,31.351L332.75,0.084L228.242,104.597c-15.48-11.211-30.984-16.885-46.117-16.885
		c-16.369,0-31.279,6.602-44.321,19.639c-15.021,15.039-25.917,36.944-28.057,56.273c-5.38-1.162-11.067-1.732-16.928-1.732
		c-25.592,0-54.118,11.331-70.982,28.184c-34.012,34.006-27.58,95.789,14.327,137.708c22.989,22.969,52.86,36.167,81.933,36.167
		c21.872,0,41.685-7.764,55.778-21.84c18.249-18.26,33.488-55.016,26.463-87.916c19.324-2.168,41.229-13.036,56.253-28.061
		c25.112-25.123,26.151-57.958,2.906-90.233L364.035,31.351z M104.291,326.913c-2.681,2.689-6.245,4.173-10.058,4.173
		c-3.801,0-7.38-1.483-10.061-4.173L37.01,279.751c-2.681-2.696-4.167-6.263-4.167-10.076c0-3.783,1.486-7.374,4.167-10.058
		c5.35-5.362,14.757-5.362,20.119,0l47.156,47.174c2.699,2.696,4.17,6.274,4.17,10.082
		C108.461,320.668,106.972,324.234,104.291,326.913z M177.567,203.286l0.156,2.324c0.417,6.064-1.784,11.985-6.047,16.267
		c-3.951,3.963-9.223,6.125-14.817,6.125c-5.596,0-10.854-2.174-14.808-6.125c-3.954-3.957-6.125-9.212-6.125-14.796
		c0-5.614,2.171-10.881,6.125-14.82c3.942-3.951,9.211-6.112,14.808-6.112c0.57,0,1.15,0.018,1.721,0.072l2.356,0.174l171.801-171.8
		l16.765,16.756L177.567,203.286z M49.881,266.901c-0.763-0.77-1.753-1.159-2.81-1.159c-1.072,0-2.06,0.39-2.804,1.159
		c-0.763,0.738-1.162,1.729-1.162,2.779c0,1.063,0.399,2.066,1.162,2.811l47.156,47.174c1.519,1.501,4.119,1.501,5.614,0
		c0.763-0.738,1.162-1.735,1.162-2.792c0-1.069-0.399-2.054-1.162-2.822L49.881,266.901z"/>
</g>
<g>
</g>
<g>
</g>
<g>
</g>
<g>
</g>
<g>
</g>
<g>
</g>
<g>
</g>
<g>
</g>
<g>
</g>
<g>
</g>
<g>
</g>
<g>
</g>
<g>
</g>
<g>
</g>
<g>
</g>
</svg>
