<?xml version="1.0" encoding="iso-8859-1"?>
<!-- Generator: Adobe Illustrator 18.1.1, SVG Export Plug-In . SVG Version: 6.00 Build 0)  -->
<svg version="1.1" id="Capa_1" xmlns="http://www.w3.org/2000/svg" xmlns:xlink="http://www.w3.org/1999/xlink" x="0px" y="0px"
	 viewBox="0 0 465.056 465.056" style="enable-background:new 0 0 465.056 465.056;" xml:space="preserve">
<g>
	<g>
		<g>
			<path style="fill:#010002;" d="M455.876,373.941l-73.369-73.425c-5.731-5.706-13.689-8.844-22.427-8.844
				c-9.202,0-18.07,3.585-24.337,9.86l-39.692,39.676l-10.713-5.942c-23.565-13.071-55.868-30.994-89.983-65.151
				c-34.229-34.205-52.177-66.581-65.289-90.252l-5.861-10.413l39.724-39.724c13.16-13.185,13.607-34.164,1.008-46.788L91.529,9.553
				c-5.706-5.706-13.664-8.852-22.394-8.852c-9.185,0-18.07,3.601-24.361,9.884l-18.037,18.11L25.07,31.46
				c-6.73,8.608-12.209,18.289-16.314,28.824c-3.829,10.047-6.202,19.59-7.308,29.157c-9.454,78.652,26.816,150.866,125.204,249.247
				C243.29,455.292,340.735,464.355,367.819,464.355c4.641,0,7.462-0.252,8.234-0.333c10.031-1.211,19.59-3.625,29.255-7.373
				c10.429-4.056,20.086-9.51,28.653-16.225l4.105-3.227l16.867-16.542C468.053,407.512,468.476,386.556,455.876,373.941z"/>
		</g>
		<g>
			<polygon style="fill:#010002;" points="323.234,138.131 323.234,47.31 287.761,47.31 287.777,138.131 196.965,138.131 
				196.965,173.604 287.761,173.604 287.761,264.425 323.234,264.425 323.234,173.604 414.071,173.604 414.071,138.131 			"/>
		</g>
	</g>
</g>
<g>
</g>
<g>
</g>
<g>
</g>
<g>
</g>
<g>
</g>
<g>
</g>
<g>
</g>
<g>
</g>
<g>
</g>
<g>
</g>
<g>
</g>
<g>
</g>
<g>
</g>
<g>
</g>
<g>
</g>
</svg>
