<?xml version="1.0" encoding="iso-8859-1"?>
<!-- Generator: Adobe Illustrator 18.1.1, SVG Export Plug-In . SVG Version: 6.00 Build 0)  -->
<svg version="1.1" id="Capa_1" xmlns="http://www.w3.org/2000/svg" xmlns:xlink="http://www.w3.org/1999/xlink" x="0px" y="0px"
	 viewBox="0 0 452.272 452.272" style="enable-background:new 0 0 452.272 452.272;" xml:space="preserve">
<g>
	<g>
		<g>
			<path style="fill:#010002;" d="M443.623,286.702V165.586c3.024-8.137,18.549-53.665-1.276-82.903
				c-18.354-27.076-60.054-31.067-123.928-11.307c-9.332-5.519-41.797-21.98-97.673-21.98c-53.657,0-79.115,15.347-87.447,21.801
				C69.709,51.624,28.213,55.688,9.907,82.691c-19.817,29.247-4.292,74.75-1.26,82.895v121.116
				c-3.032,8.137-18.549,53.649,1.276,82.895c18.289,26.987,59.794,31.035,123.376,11.494c8.324,6.454,33.79,21.785,87.447,21.785
				c55.884,0,88.341-16.436,97.673-21.972c26.686,8.267,49.706,12.437,68.467,12.437c26.133,0,44.797-7.974,55.486-23.744
				C462.181,340.351,446.655,294.839,443.623,286.702z M388.121,342.123H61.532V110.011h326.59V342.123z"/>
		</g>
		<g>
			<path style="fill:#010002;" d="M160.838,234.809h55.307v55.323c0,4.812,3.877,8.673,8.681,8.673c4.788,0,8.673-3.869,8.673-8.673
				v-55.323h55.315c4.788,0,8.665-3.877,8.665-8.673c0-4.78-3.885-8.665-8.665-8.665H233.5v-55.323c0-4.788-3.885-8.665-8.673-8.665
				c-4.812,0-8.681,3.877-8.681,8.665v55.323h-55.307c-4.812,0-8.681,3.885-8.681,8.665
				C152.157,230.94,156.026,234.809,160.838,234.809z"/>
		</g>
	</g>
</g>
<g>
</g>
<g>
</g>
<g>
</g>
<g>
</g>
<g>
</g>
<g>
</g>
<g>
</g>
<g>
</g>
<g>
</g>
<g>
</g>
<g>
</g>
<g>
</g>
<g>
</g>
<g>
</g>
<g>
</g>
</svg>
