<?xml version="1.0" encoding="iso-8859-1"?>
<!-- Generator: Adobe Illustrator 18.1.1, SVG Export Plug-In . SVG Version: 6.00 Build 0)  -->
<svg version="1.1" id="Capa_1" xmlns="http://www.w3.org/2000/svg" xmlns:xlink="http://www.w3.org/1999/xlink" x="0px" y="0px"
	 viewBox="0 0 316.94 316.94" style="enable-background:new 0 0 316.94 316.94;" xml:space="preserve">
<g>
	<g>
		<g>
			<path style="fill:#010002;" d="M70.017,160.985c-12.798,0-23.198,10.394-23.198,23.181c0,12.798,10.399,23.214,23.198,23.214
				c12.782,0,23.198-10.416,23.198-23.214C93.209,171.379,82.799,160.985,70.017,160.985z"/>
		</g>
		<g>
			<path style="fill:#010002;" d="M70.017,242.049c-4.547,0-8.251,3.704-8.251,8.251c0,4.547,3.704,8.251,8.251,8.251
				c4.531,0,8.235-3.704,8.235-8.251C78.252,245.753,74.548,242.049,70.017,242.049z"/>
		</g>
		<g>
			<path style="fill:#010002;" d="M245.052,249.484c-11.982,0-23.323-5.755-33.733-17.149c-8.806-9.649-17.612-14.212-25.819-13.576
				c-9.333,0.696-16.344,7.849-19.124,11.21c8.376,20.255,28.343,34.56,51.584,34.56c15.931,0,30.268-6.739,40.445-17.476
				c-3.796,1.387-7.979,2.322-12.494,2.431C245.623,249.484,245.34,249.484,245.052,249.484z"/>
		</g>
		<g>
			<path style="fill:#010002;" d="M71.11,98.855l175.627-66.661c2.475,2.018,5.624,3.274,9.078,3.274
				c7.995,0,14.479-6.483,14.479-14.501c0-7.995-6.483-14.501-14.479-14.501c-8.017,0-14.501,6.505-14.501,14.501
				c0,0.571,0.114,1.099,0.174,1.653L40.668,98.855H0v211.618h316.94V98.855H71.11z M70.017,269.364
				c-10.508,0-19.058-8.556-19.058-19.064c0-10.508,8.55-19.048,19.058-19.048s19.042,8.539,19.042,19.048
				S80.525,269.364,70.017,269.364z M70.017,218.172c-18.743,0-34.005-15.246-34.005-34.005c0-18.727,15.262-33.994,34.005-33.994
				s33.989,15.262,33.989,33.994C104.006,202.926,88.76,218.172,70.017,218.172z M217.965,275.336
				c-36.741,0-66.629-29.904-66.629-66.645s29.888-66.629,66.629-66.629s66.629,29.888,66.629,66.629
				S254.701,275.336,217.965,275.336z"/>
		</g>
		<g>
			<path style="fill:#010002;" d="M243.637,211.955c-11.83,0-23.018-5.776-33.276-17.187c-8.632-9.622-17.073-14.18-25.232-13.543
				c-11.901,0.892-20.016,12.787-20.108,12.891l-0.751-0.49c-1.365,4.803-2.127,9.856-2.127,15.072c0,3.166,0.321,6.233,0.827,9.252
				c4.944-4.433,12.341-9.252,21.718-9.97c11.678-0.968,23.431,4.852,34.609,17.062c8.425,9.236,17.166,13.848,26.292,13.641
				c12.809-0.256,22.86-9.986,25.438-12.717c1.762-5.439,2.752-11.237,2.752-17.269c0-3.068-0.321-6.054-0.794-8.996
				c-5.706,5.026-15.833,11.971-28.517,12.26C244.181,211.955,243.909,211.955,243.637,211.955z"/>
		</g>
		<g>
			<path style="fill:#010002;" d="M217.965,152.876c-16.915,0-32.069,7.582-42.3,19.504c2.649-1.006,5.532-1.702,8.648-1.936
				c11.656-0.859,23.116,4.868,34.103,17.106c8.267,9.203,16.807,13.864,25.738,13.609c14.337-0.283,25.15-12.907,25.531-13.369
				C261.396,167.344,241.348,152.876,217.965,152.876z"/>
		</g>
	</g>
</g>
<g>
</g>
<g>
</g>
<g>
</g>
<g>
</g>
<g>
</g>
<g>
</g>
<g>
</g>
<g>
</g>
<g>
</g>
<g>
</g>
<g>
</g>
<g>
</g>
<g>
</g>
<g>
</g>
<g>
</g>
</svg>
