<?xml version="1.0" encoding="iso-8859-1"?>
<!-- Generator: Adobe Illustrator 16.0.0, SVG Export Plug-In . SVG Version: 6.00 Build 0)  -->
<!DOCTYPE svg PUBLIC "-//W3C//DTD SVG 1.1//EN" "http://www.w3.org/Graphics/SVG/1.1/DTD/svg11.dtd">
<svg version="1.1" id="Capa_1" xmlns="http://www.w3.org/2000/svg" xmlns:xlink="http://www.w3.org/1999/xlink" x="0px" y="0px"
	 width="350.488px" height="350.487px" viewBox="0 0 350.488 350.487" style="enable-background:new 0 0 350.488 350.487;"
	 xml:space="preserve">
<g>
	<g>
		<g>
			<polygon points="83.386,128.082 100.958,145.697 162.805,83.854 162.805,302.071 187.674,302.071 187.674,83.86 249.505,145.691 
				267.105,128.088 175.238,36.236 			"/>
		</g>
		<g>
			<path d="M175.238,0.006C78.615,0.006,0,78.615,0,175.244c0,96.629,78.615,175.237,175.238,175.237
				c96.635,0,175.25-78.608,175.25-175.237C350.488,78.615,271.874,0.006,175.238,0.006z M175.238,326.763
				c-83.551,0-151.522-67.968-151.522-151.519S91.688,23.722,175.238,23.722c83.556,0,151.531,67.972,151.531,151.522
				S258.794,326.763,175.238,326.763z"/>
		</g>
	</g>
</g>
<g>
</g>
<g>
</g>
<g>
</g>
<g>
</g>
<g>
</g>
<g>
</g>
<g>
</g>
<g>
</g>
<g>
</g>
<g>
</g>
<g>
</g>
<g>
</g>
<g>
</g>
<g>
</g>
<g>
</g>
</svg>
