<?xml version="1.0" encoding="iso-8859-1"?>
<!-- Generator: Adobe Illustrator 16.0.0, SVG Export Plug-In . SVG Version: 6.00 Build 0)  -->
<!DOCTYPE svg PUBLIC "-//W3C//DTD SVG 1.1//EN" "http://www.w3.org/Graphics/SVG/1.1/DTD/svg11.dtd">
<svg version="1.1" id="Capa_1" xmlns="http://www.w3.org/2000/svg" xmlns:xlink="http://www.w3.org/1999/xlink" x="0px" y="0px"
	 width="350.885px" height="350.885px" viewBox="0 0 350.885 350.885" style="enable-background:new 0 0 350.885 350.885;"
	 xml:space="preserve">
<g>
	<g>
		<g>
			<polygon points="319.954,163.784 319.984,135.258 235.809,135.234 350.885,20.17 330.69,0.006 215.639,115.073 215.645,30.925 
				187.086,30.925 187.098,163.802 			"/>
		</g>
		<g>
			<polygon points="30.979,187.086 30.862,215.626 115.074,215.626 0.021,330.679 20.171,350.885 135.234,235.809 135.234,319.948 
				163.791,319.948 163.784,187.086 			"/>
		</g>
		<g>
			<polygon points="319.948,215.669 319.948,187.098 187.074,187.098 187.086,319.983 215.621,319.983 215.627,235.833 
				330.69,350.878 350.873,330.714 235.809,215.645 			"/>
		</g>
		<g>
			<polygon points="135.247,115.091 20.171,0 0,20.206 115.062,135.258 30.943,135.258 30.913,163.802 163.791,163.802 
				163.791,30.955 135.247,30.901 			"/>
		</g>
	</g>
</g>
<g>
</g>
<g>
</g>
<g>
</g>
<g>
</g>
<g>
</g>
<g>
</g>
<g>
</g>
<g>
</g>
<g>
</g>
<g>
</g>
<g>
</g>
<g>
</g>
<g>
</g>
<g>
</g>
<g>
</g>
</svg>
