<?xml version="1.0" encoding="iso-8859-1"?>
<!-- Generator: Adobe Illustrator 18.1.1, SVG Export Plug-In . SVG Version: 6.00 Build 0)  -->
<svg version="1.1" id="Capa_1" xmlns="http://www.w3.org/2000/svg" xmlns:xlink="http://www.w3.org/1999/xlink" x="0px" y="0px"
	 viewBox="0 0 327.513 327.513" style="enable-background:new 0 0 327.513 327.513;" xml:space="preserve">
<g>
	<g>
		<g>
			<path style="fill:#010002;" d="M207.288,113.173c-0.419-0.952-1.349-1.545-2.371-1.545H175.85l49.887-56.343
				c0.669-0.767,0.838-1.86,0.419-2.779c-0.413-0.941-1.349-1.534-2.371-1.534h-60.39c-0.783,0-1.501,0.348-1.996,0.941
				l-73.781,88.124c-0.642,0.767-0.789,1.844-0.364,2.747c0.424,0.925,1.343,1.523,2.35,1.523h53.27L53.809,272.462
				c-0.772,1.12-0.555,2.649,0.511,3.508c0.479,0.381,1.055,0.571,1.626,0.571c0.691,0,1.387-0.283,1.893-0.821L206.81,115.98
				C207.511,115.235,207.696,114.114,207.288,113.173z"/>
		</g>
		<g>
			<g>
				<path style="fill:#010002;" d="M87.003,157.931c-5.499,0-10.53-3.236-12.825-8.246c-2.284-4.841-1.512-10.764,2.023-14.968
					l50.159-59.906H0v144.402h75.636l42.582-61.282H87.003z"/>
			</g>
			<g>
				<path style="fill:#010002;" d="M299.725,111.106l-0.082-36.3h-69.941l-24.247,27.386h3.448c5.608,0,10.688,3.312,12.934,8.441
					c2.274,5.265,1.213,11.27-2.681,15.376l-86.911,93.198h167.404v-34.326h0.082v-13.32h27.783v-60.455H299.725z M320.921,164.98
					h-21.196v-47.282h21.196V164.98z"/>
			</g>
		</g>
	</g>
</g>
<g>
</g>
<g>
</g>
<g>
</g>
<g>
</g>
<g>
</g>
<g>
</g>
<g>
</g>
<g>
</g>
<g>
</g>
<g>
</g>
<g>
</g>
<g>
</g>
<g>
</g>
<g>
</g>
<g>
</g>
</svg>
