<?xml version="1.0" encoding="iso-8859-1"?>
<!-- Generator: Adobe Illustrator 16.0.0, SVG Export Plug-In . SVG Version: 6.00 Build 0)  -->
<!DOCTYPE svg PUBLIC "-//W3C//DTD SVG 1.1//EN" "http://www.w3.org/Graphics/SVG/1.1/DTD/svg11.dtd">
<svg version="1.1" id="Capa_1" xmlns="http://www.w3.org/2000/svg" xmlns:xlink="http://www.w3.org/1999/xlink" x="0px" y="0px"
	 width="334.022px" height="334.022px" viewBox="0 0 334.022 334.022" style="enable-background:new 0 0 334.022 334.022;"
	 xml:space="preserve">
<g>
	<g>
		<g>
			<path d="M318.555,54.788H15.465C6.951,54.788,0,61.987,0,70.841v192.337c0,8.857,6.951,16.057,15.465,16.057h303.089
				c8.539,0,15.468-7.199,15.468-16.057V70.841C334.022,61.987,327.094,54.788,318.555,54.788z M28.457,196.837h-4.18v-59.643h4.186
				v59.643H28.457z M284.147,268.366H45.97V65.653h238.178V268.366z M308.814,174.655c-4.911,0-8.935-4.011-8.935-8.946
				c0-4.927,4.023-8.941,8.935-8.941c4.924,0,8.947,4.014,8.947,8.941C317.762,170.644,313.738,174.655,308.814,174.655z"/>
		</g>
		<g>
			<path d="M144.13,210.42h45.958c4.119,0,7.482-3.363,7.482-7.5v-42.016c0-4.125-3.363-7.476-7.482-7.476h-0.168v-10.55
				c0-10.025-8.154-18.182-18.186-18.182h-9.253c-10.025,0-18.176,8.157-18.176,18.182v10.55h-0.168c-4.131,0-7.5,3.351-7.5,7.476
				v42.016C136.63,207.057,139.999,210.42,144.13,210.42z M151.393,142.878c0-6.113,4.969-11.088,11.082-11.088h9.254
				c6.118,0,11.082,4.975,11.082,11.088v10.55h-31.417V142.878z M143.737,160.904c0-0.207,0.168-0.387,0.394-0.387h45.958
				c0.21,0,0.385,0.18,0.385,0.387v42.016c0,0.216-0.175,0.39-0.385,0.39H144.13c-0.225,0-0.394-0.174-0.394-0.39V160.904z"/>
		</g>
	</g>
</g>
<g>
</g>
<g>
</g>
<g>
</g>
<g>
</g>
<g>
</g>
<g>
</g>
<g>
</g>
<g>
</g>
<g>
</g>
<g>
</g>
<g>
</g>
<g>
</g>
<g>
</g>
<g>
</g>
<g>
</g>
</svg>
