<?xml version="1.0" encoding="iso-8859-1"?>
<!-- Generator: Adobe Illustrator 16.0.0, SVG Export Plug-In . SVG Version: 6.00 Build 0)  -->
<!DOCTYPE svg PUBLIC "-//W3C//DTD SVG 1.1//EN" "http://www.w3.org/Graphics/SVG/1.1/DTD/svg11.dtd">
<svg version="1.1" id="Capa_1" xmlns="http://www.w3.org/2000/svg" xmlns:xlink="http://www.w3.org/1999/xlink" x="0px" y="0px"
	 width="358.852px" height="358.853px" viewBox="0 0 358.852 358.853" style="enable-background:new 0 0 358.852 358.853;"
	 xml:space="preserve">
<g>
	<g>
		<g>
			<path d="M282.754,0H76.12c-9.521,0-17.267,7.455-17.267,16.609v325.628c0,9.151,7.746,16.615,17.267,16.615h206.635
				c9.523,0,17.245-7.464,17.245-16.615V16.609C299.994,7.461,292.278,0,282.754,0z M147.397,24.473h64.062v4.497h-64.062V24.473z
				 M180.823,341.36c-5.288,0-9.611-4.312-9.611-9.607c0-5.284,4.323-9.596,9.611-9.596c5.287,0,9.607,4.312,9.607,9.596
				C190.43,337.049,186.11,341.36,180.823,341.36z M288.321,305.271H70.547V49.389h217.773V305.271z"/>
		</g>
		<g>
			<path d="M154.167,225.552h49.366c4.426,0,8.046-3.603,8.046-8.047v-45.132c0-4.434-3.62-8.043-8.046-8.043h-0.175v-11.325
				c0-10.767-8.772-19.53-19.548-19.53h-9.935c-10.767,0-19.531,8.764-19.531,19.53v11.325h-0.171c-4.447,0-8.043,3.609-8.043,8.043
				v45.132C146.118,221.949,149.721,225.552,154.167,225.552z M161.964,153.005c0-6.569,5.335-11.91,11.911-11.91h9.935
				c6.572,0,11.91,5.335,11.91,11.91v11.325h-33.756V153.005z M153.744,172.373c0-0.228,0.177-0.417,0.423-0.417h49.366
				c0.228,0,0.414,0.189,0.414,0.417v45.132c0,0.24-0.187,0.421-0.414,0.421h-49.366c-0.246,0-0.426-0.181-0.426-0.421
				C153.741,217.505,153.741,172.373,153.744,172.373z"/>
		</g>
	</g>
</g>
<g>
</g>
<g>
</g>
<g>
</g>
<g>
</g>
<g>
</g>
<g>
</g>
<g>
</g>
<g>
</g>
<g>
</g>
<g>
</g>
<g>
</g>
<g>
</g>
<g>
</g>
<g>
</g>
<g>
</g>
</svg>
