<?xml version="1.0" encoding="iso-8859-1"?>
<!-- Generator: Adobe Illustrator 16.0.0, SVG Export Plug-In . SVG Version: 6.00 Build 0)  -->
<!DOCTYPE svg PUBLIC "-//W3C//DTD SVG 1.1//EN" "http://www.w3.org/Graphics/SVG/1.1/DTD/svg11.dtd">
<svg version="1.1" id="Capa_1" xmlns="http://www.w3.org/2000/svg" xmlns:xlink="http://www.w3.org/1999/xlink" x="0px" y="0px"
	 width="342.886px" height="342.886px" viewBox="0 0 342.886 342.886" style="enable-background:new 0 0 342.886 342.886;"
	 xml:space="preserve">
<g>
	<g>
		<g>
			<path d="M328.129,240.9c9.476-21.245,14.754-44.748,14.754-69.458c0-23.409-4.726-45.729-13.265-66.076
				c11.35-12.334,1.663-39.77-22.914-64.33c-11.181-11.211-23.719-19.854-35.272-24.337c-11.169-4.348-20.572-4.408-26.901-0.3
				C222.349,5.896,197.579,0,171.446,0c-26.22,0-51.086,5.938-73.319,16.507c-6.347-4.233-15.811-4.203-27.1,0.187
				C59.486,21.176,46.942,29.825,35.759,41.03C10.965,65.803,1.294,93.542,13.129,105.717
				c-8.449,20.255-13.126,42.451-13.126,65.726c0,24.71,5.299,48.213,14.751,69.458l-1.273-1.279
				c-12.076,12.076-2.411,39.974,22.485,64.87c11.199,11.192,23.731,19.852,35.272,24.331c5.717,2.216,10.956,3.339,15.585,3.339
				c5.516,0,10.091-1.634,13.499-4.792c21.687,9.956,45.753,15.517,71.117,15.517c25.371,0,49.444-5.561,71.133-15.517
				c3.394,3.164,7.98,4.792,13.499,4.792c4.594,0,9.866-1.123,15.57-3.339c11.542-4.479,24.079-13.139,35.278-24.331
				c24.902-24.896,34.563-52.794,22.471-64.87L328.129,240.9z M42.817,48.095c10.25-10.245,21.551-18.089,31.831-22.085
				c3.864-1.508,7.386-2.333,10.413-2.559C56.535,40.163,33.279,64.857,18.327,94.476C16.615,84.872,25.163,65.743,42.817,48.095z
				 M74.859,319.515c-10.286-4.011-21.582-11.854-31.832-22.098c-18.615-18.603-27.136-38.911-24.118-47.882
				c15.718,30.588,40.331,55.881,70.448,72.369C85.694,322.547,80.656,321.767,74.859,319.515z M93.741,212.834l4.717,6.353
				l-57.616,11.421l-1.69-3.458c-7.704-15.757-11.625-32.685-11.625-50.303c0-17.609,3.915-34.524,11.625-50.302l1.69-3.45
				l57.616,11.418l-4.717,6.338c-7.833,10.541-11.971,22.986-11.971,35.989C81.776,189.859,85.908,202.313,93.741,212.834z
				 M221.748,304.755c-15.757,7.723-32.678,11.644-50.302,11.644c-17.625,0-34.54-3.921-50.293-11.644l-3.45-1.675l11.421-57.635
				l6.338,4.714c10.539,7.843,22.992,11.992,35.984,11.992c13.006,0,25.442-4.149,35.998-11.992l6.335-4.714l11.416,57.635
				L221.748,304.755z M213.786,99.487l-6.342-4.729c-10.544-7.839-22.986-11.977-35.986-11.977
				c-13.009,0-25.451,4.137-35.984,11.977l-6.344,4.729l-11.418-57.628l3.447-1.696c15.76-7.723,32.678-11.635,50.305-11.635
				c17.612,0,34.534,3.912,50.296,11.635l3.447,1.696L213.786,99.487z M267.823,26.01c10.286,3.996,21.587,11.847,31.831,22.085
				c17.275,17.267,25.856,35.99,24.62,45.771c-14.958-29.315-38.059-53.776-66.354-70.379
				C260.827,23.77,264.166,24.589,267.823,26.01z M249.136,140.869l-4.708-6.338l57.641-11.418l1.669,3.449
				c7.723,15.766,11.644,32.693,11.644,50.303c0,17.594-3.921,34.51-11.631,50.296l-1.682,3.465l-57.641-11.415l4.727-6.354
				c7.83-10.532,11.979-22.98,11.979-35.986C261.134,163.861,256.984,151.411,249.136,140.869z M299.864,297.417
				c-10.238,10.244-21.545,18.081-31.831,22.098c-5.801,2.252-10.833,3.032-14.483,2.39c30.107-16.488,54.722-41.781,70.46-72.369
				C327.006,258.506,318.485,278.814,299.864,297.417z"/>
		</g>
	</g>
</g>
<g>
</g>
<g>
</g>
<g>
</g>
<g>
</g>
<g>
</g>
<g>
</g>
<g>
</g>
<g>
</g>
<g>
</g>
<g>
</g>
<g>
</g>
<g>
</g>
<g>
</g>
<g>
</g>
<g>
</g>
</svg>
