<?xml version="1.0" encoding="iso-8859-1"?>
<!-- Generator: Adobe Illustrator 16.0.0, SVG Export Plug-In . SVG Version: 6.00 Build 0)  -->
<!DOCTYPE svg PUBLIC "-//W3C//DTD SVG 1.1//EN" "http://www.w3.org/Graphics/SVG/1.1/DTD/svg11.dtd">
<svg version="1.1" id="Capa_1" xmlns="http://www.w3.org/2000/svg" xmlns:xlink="http://www.w3.org/1999/xlink" x="0px" y="0px"
	 width="360.72px" height="360.72px" viewBox="0 0 360.72 360.72" style="enable-background:new 0 0 360.72 360.72;"
	 xml:space="preserve">
<g>
	<g>
		<g>
			<path d="M305.833,299.903l-16.429,16.447l-80.969-80.975l80.98-80.984l16.417,16.456l-52.896,52.903h104.777V31.057h-44.159V0
				h-12.994v31.057h-46.789V0h-12.995v31.057H188.56V0h-13v31.057h-54.211V0h-12.998v31.057H56.367V0H43.37v31.057H3V360.72h354.721
				v-28.673v-32.612v-52.439H252.938L305.833,299.903z M14.802,42.838H43.37v27.574h12.997V42.838h51.983v27.574h12.998V42.838
				h54.211v27.574h13V42.838h52.218v27.574h12.995V42.838h46.789v27.574h12.994V42.838h32.366v61.552H14.802V42.838z"/>
		</g>
	</g>
</g>
<g>
</g>
<g>
</g>
<g>
</g>
<g>
</g>
<g>
</g>
<g>
</g>
<g>
</g>
<g>
</g>
<g>
</g>
<g>
</g>
<g>
</g>
<g>
</g>
<g>
</g>
<g>
</g>
<g>
</g>
</svg>
