<?xml version="1.0" encoding="iso-8859-1"?>
<!-- Generator: Adobe Illustrator 18.1.1, SVG Export Plug-In . SVG Version: 6.00 Build 0)  -->
<svg version="1.1" id="Capa_1" xmlns="http://www.w3.org/2000/svg" xmlns:xlink="http://www.w3.org/1999/xlink" x="0px" y="0px"
	 viewBox="0 0 308.145 308.145" style="enable-background:new 0 0 308.145 308.145;" xml:space="preserve">
<g>
	<g>
		<path style="fill:#010002;" d="M154.078,0C85.165,0,31.204,24.106,31.204,54.896v162.541h0.092
			c0.511,13.826,11.89,26.271,30.649,35.707v14.093h0.103c1.077,23.013,41.065,40.907,92.024,40.907
			c50.948,0,90.936-17.895,92.013-40.907h0.114v-14.093c18.781-9.437,30.132-21.881,30.644-35.707h0.098V54.902
			C276.941,24.106,222.974,0,154.078,0z M154.078,9.921c67.575,0,112.953,23.257,112.953,44.981
			c0,14.261-19.673,29.137-52.259,37.704c8.023-5.559,12.651-12.417,12.651-19.994c0-19.613-30.769-34.402-71.573-34.402
			S84.262,52.998,84.262,72.612c0,8.257,5.526,15.643,14.876,21.446C63.077,85.79,41.136,69.99,41.136,54.896
			C41.136,33.178,86.508,9.921,154.078,9.921z M41.136,142.101c18.629,19.543,61.641,32.895,112.942,32.895
			c51.312,0,94.319-13.353,112.953-32.895v21.68c0,21.713-45.378,44.981-112.953,44.981c-67.569,0-112.942-23.263-112.942-44.981
			V142.101z M154.078,298.224c-48.446,0-82.206-16.839-82.206-31.927v-8.724c21.626,8.626,50.311,13.788,82.206,13.788
			c31.884,0,60.58-5.162,82.195-13.788v8.724C236.273,281.385,202.529,298.224,154.078,298.224z"/>
	</g>
</g>
<g>
</g>
<g>
</g>
<g>
</g>
<g>
</g>
<g>
</g>
<g>
</g>
<g>
</g>
<g>
</g>
<g>
</g>
<g>
</g>
<g>
</g>
<g>
</g>
<g>
</g>
<g>
</g>
<g>
</g>
</svg>
