<?xml version="1.0" encoding="iso-8859-1"?>
<!-- Generator: Adobe Illustrator 18.1.1, SVG Export Plug-In . SVG Version: 6.00 Build 0)  -->
<svg version="1.1" id="Capa_1" xmlns="http://www.w3.org/2000/svg" xmlns:xlink="http://www.w3.org/1999/xlink" x="0px" y="0px"
	 viewBox="0 0 453.688 453.688" style="enable-background:new 0 0 453.688 453.688;" xml:space="preserve">
<g>
	<g>
		<path style="fill:#010002;" d="M306.781,97.807l-37.497-37.505h-84.041l-32.498,37.505H0v295.579h453.688V97.807H306.781z
			 M318.039,247.446c0,48.585-39.521,88.106-88.114,88.106c-40.675,0-74.978-27.125-85.082-65.126l-11.12,22.167l-14.957-7.495
			l23.817-47.227l2.764-4.292l48.528,35.107l-9.884,13.461l-23.11-16.623c8.129,30.661,36.514,53.299,69.044,53.299
			c39.367,0,71.393-32.01,71.393-71.377v-4.845h16.729v4.845H318.039z M309.349,233.546l-5.844-4.056l-0.13,0.236l-0.033-0.35
			l-43.594-30.311l9.933-13.55l23.118,16.623c-8.129-30.653-36.505-53.291-69.052-53.291c-39.359,0-71.377,32.018-71.377,71.385
			v4.836h-16.729v-4.836c0-48.593,39.529-88.114,88.106-88.114c39.976,0,74.824,27.662,85.057,65.216l11.152-22.248l14.957,7.511
			L309.349,233.546z"/>
	</g>
</g>
<g>
</g>
<g>
</g>
<g>
</g>
<g>
</g>
<g>
</g>
<g>
</g>
<g>
</g>
<g>
</g>
<g>
</g>
<g>
</g>
<g>
</g>
<g>
</g>
<g>
</g>
<g>
</g>
<g>
</g>
</svg>
