<?xml version="1.0" encoding="iso-8859-1"?>
<!-- Generator: Adobe Illustrator 16.0.0, SVG Export Plug-In . SVG Version: 6.00 Build 0)  -->
<!DOCTYPE svg PUBLIC "-//W3C//DTD SVG 1.1//EN" "http://www.w3.org/Graphics/SVG/1.1/DTD/svg11.dtd">
<svg version="1.1" id="Capa_1" xmlns="http://www.w3.org/2000/svg" xmlns:xlink="http://www.w3.org/1999/xlink" x="0px" y="0px"
	 width="341.541px" height="341.541px" viewBox="0 0 341.541 341.541" style="enable-background:new 0 0 341.541 341.541;"
	 xml:space="preserve">
<g>
	<g>
		<g>
			<path d="M307.452,0.009H34.095C15.292,0.009,0,15.294,0,34.098v273.356c0,18.783,15.292,34.077,34.095,34.077h273.363
				c18.795,0,34.083-15.294,34.083-34.077V34.098C341.535,15.294,326.241,0.009,307.452,0.009z M170.773,294.556
				c-68.253,0-123.783-55.544-123.783-123.786c0-68.247,55.529-123.782,123.783-123.782c68.254,0,123.786,55.535,123.786,123.782
				C294.56,239.012,239.033,294.556,170.773,294.556z"/>
		</g>
		<g>
			<path d="M170.773,78.642c-50.804,0-92.135,41.34-92.135,92.128c0,50.78,41.34,92.135,92.135,92.135
				c50.804,0,92.116-41.354,92.116-92.135C262.89,119.982,221.583,78.642,170.773,78.642z M170.128,213.431
				c-23.74,0-43.061-19.311-43.061-43.048c0-23.74,19.321-43.061,43.061-43.061c23.743,0,43.043,19.32,43.043,43.061
				C213.171,194.121,193.871,213.431,170.128,213.431z"/>
		</g>
	</g>
</g>
<g>
</g>
<g>
</g>
<g>
</g>
<g>
</g>
<g>
</g>
<g>
</g>
<g>
</g>
<g>
</g>
<g>
</g>
<g>
</g>
<g>
</g>
<g>
</g>
<g>
</g>
<g>
</g>
<g>
</g>
</svg>
