<?xml version="1.0" encoding="iso-8859-1"?>
<!-- Generator: Adobe Illustrator 16.0.0, SVG Export Plug-In . SVG Version: 6.00 Build 0)  -->
<!DOCTYPE svg PUBLIC "-//W3C//DTD SVG 1.1//EN" "http://www.w3.org/Graphics/SVG/1.1/DTD/svg11.dtd">
<svg version="1.1" id="Capa_1" xmlns="http://www.w3.org/2000/svg" xmlns:xlink="http://www.w3.org/1999/xlink" x="0px" y="0px"
	 width="344.356px" height="344.356px" viewBox="0 0 344.356 344.356" style="enable-background:new 0 0 344.356 344.356;"
	 xml:space="preserve">
<g>
	<g>
		<g>
			<path d="M105.474,122.978l-4.02-7.152l27.271-27.265c9.019-9.049,9.334-23.446,0.682-32.117L79.035,6.08
				C75.111,2.165,69.652,0,63.663,0c-6.32,0-12.409,2.471-16.72,6.788l-12.37,12.439l-1.162,1.901
				c-4.6,5.902-8.371,12.55-11.193,19.779c-2.618,6.894-4.249,13.448-4.999,20.017c-6.344,52.683,17.359,101.211,81.271,166.273
				l47.186-47.186C125.257,158.364,113.845,138.08,105.474,122.978z"/>
		</g>
		<g>
			<path d="M329.102,256.183l-50.362-50.398c-3.934-3.915-9.386-6.065-15.385-6.065c-6.316,0-12.424,2.463-16.723,6.779
				l-27.226,27.227l-7.362-4.065c-10.694-5.944-24.115-13.571-38.686-24.704l-47.727,47.715
				c69.833,60.197,126.212,65.566,143.037,65.566c3.188,0,5.104-0.175,5.645-0.229c6.87-0.835,13.457-2.48,20.092-5.051
				c7.158-2.798,13.77-6.533,19.66-11.139l2.816-2.203l11.571-11.373C337.46,279.223,337.761,264.835,329.102,256.183z"/>
		</g>
	</g>
	<path d="M291.704,74.753L22.101,344.356L8.95,331.2L278.553,61.6L291.704,74.753z"/>
</g>
<g>
</g>
<g>
</g>
<g>
</g>
<g>
</g>
<g>
</g>
<g>
</g>
<g>
</g>
<g>
</g>
<g>
</g>
<g>
</g>
<g>
</g>
<g>
</g>
<g>
</g>
<g>
</g>
<g>
</g>
</svg>
