<?xml version="1.0" encoding="iso-8859-1"?>
<!-- Generator: Adobe Illustrator 16.0.0, SVG Export Plug-In . SVG Version: 6.00 Build 0)  -->
<!DOCTYPE svg PUBLIC "-//W3C//DTD SVG 1.1//EN" "http://www.w3.org/Graphics/SVG/1.1/DTD/svg11.dtd">
<svg version="1.1" id="Capa_1" xmlns="http://www.w3.org/2000/svg" xmlns:xlink="http://www.w3.org/1999/xlink" x="0px" y="0px"
	 width="331.657px" height="331.656px" viewBox="0 0 331.657 331.656" style="enable-background:new 0 0 331.657 331.656;"
	 xml:space="preserve">
<g>
	<g>
		<path d="M308.371,10.88l-0.168-1.516H23.44L0.183,223.85L0,225.729h0.601v96.563h330.438v-96.563h0.618L308.371,10.88z
			 M82.812,75.912l25.076-21.227l54.031,45.769l54.025-45.762l25.112,21.227l-54.056,45.76l54.043,45.774l-25.1,21.215
			l-54.025-45.763l-54.031,45.775l-25.094-21.261l54.061-45.747L82.812,75.912z M320.188,311.459H11.43v-85.73h79.837
			c2.792,38.936,35.368,69.319,74.556,69.319c39.175,0,71.751-30.384,74.537-69.319h79.828V311.459z"/>
	</g>
</g>
<g>
</g>
<g>
</g>
<g>
</g>
<g>
</g>
<g>
</g>
<g>
</g>
<g>
</g>
<g>
</g>
<g>
</g>
<g>
</g>
<g>
</g>
<g>
</g>
<g>
</g>
<g>
</g>
<g>
</g>
</svg>
