<?xml version="1.0" encoding="iso-8859-1"?>
<!-- Generator: Adobe Illustrator 18.1.1, SVG Export Plug-In . SVG Version: 6.00 Build 0)  -->
<svg version="1.1" id="Capa_1" xmlns="http://www.w3.org/2000/svg" xmlns:xlink="http://www.w3.org/1999/xlink" x="0px" y="0px"
	 viewBox="0 0 490.532 490.532" style="enable-background:new 0 0 490.532 490.532;" xml:space="preserve">
<g>
	<g>
		<path style="fill:#010002;" d="M243.629,175.221c46.313,0,83.989-37.718,83.989-84.039c0-46.344-37.676-84.055-83.989-84.055
			c-46.367,0-84.071,37.709-84.071,84.055C159.556,137.52,197.262,175.221,243.629,175.221z M243.644,20.537
			c38.95,0,70.604,31.702,70.604,70.645c0,38.951-31.653,70.62-70.604,70.62c-39.005,0-70.673-31.67-70.673-70.62
			C172.963,52.24,204.64,20.537,243.644,20.537z"/>
		<path style="fill:#010002;" d="M225.059,113.474l-2.975-1.918l-4.873,13.598l1.722,1.217c4.371,3.126,10.926,5.256,17.636,5.829
			v12.489h13.379v-13.353c11.769-2.75,19.54-11.875,19.54-23.312c-0.018-11.64-6.253-19.141-20.879-25.091
			c-11.068-4.711-12.873-7.24-12.873-11.534c0-3.656,1.64-7.976,9.574-7.976c7.265,0,11.934,2.645,14.187,3.952L262.331,69
			l5.093-13.468l-2.089-1.185c-4.472-2.522-9.28-4-14.637-4.497V37.677h-13.403v12.855c-11.357,2.774-18.544,11.28-18.544,22.218
			c-0.022,13.55,11.182,19.786,22.137,24.104c9.508,3.853,11.461,7.623,11.461,12.129c0,2.564-0.827,4.743-2.435,6.368
			C245.08,120.199,232.801,118.582,225.059,113.474z"/>
		<path style="fill:#010002;" d="M288.12,199.308c0,35.685,29.08,64.678,64.759,64.678c35.694,0,64.71-29,64.71-64.678
			c0-35.653-29.034-64.687-64.71-64.687C317.202,134.621,288.12,163.655,288.12,199.308z M352.88,146.106
			c29.346,0,53.172,23.858,53.172,53.202c0,29.343-23.845,53.194-53.172,53.194c-29.359,0-53.209-23.852-53.209-53.194
			C299.671,169.965,323.521,146.106,352.88,146.106z"/>
		<path style="fill:#010002;" d="M339.063,215.763l-2.955-1.95l-4.228,11.641l1.715,1.215c3.273,2.334,8.171,4,13.189,4.529v9.599
			h11.494l0.064-10.308c8.978-2.303,14.872-9.419,14.872-18.308c0.015-11.656-8.734-16.675-16.31-19.729
			c-8.063-3.453-9.368-5.232-9.368-8.211c0-3.607,2.228-5.42,6.603-5.42c5.362,0,8.7,1.9,10.514,2.955l2.816,1.59l4.31-11.475
			l-2.056-1.192c-3.289-1.877-6.825-3.036-10.793-3.468v-9.363h-11.557v9.982c-8.531,2.285-14.104,9.054-14.104,17.427
			c0,10.718,8.74,15.639,17.271,19.025c6.938,2.774,8.309,5.387,8.286,8.637c0,1.729-0.547,3.24-1.592,4.326
			C353.753,220.684,344.765,219.518,339.063,215.763z"/>
		<path style="fill:#010002;" d="M473.397,290.981c-9.939-9.196-22.866-14.26-36.389-14.26c-14.876,0-29.21,6.251-39.311,17.158
			c-27.98,30.209-53.617,52.027-76.022,64.848c4.838-7.998,7.638-17.346,7.684-27.327c0.126-29.534-23.79-54.067-53.323-54.204
			l-140.097-0.229c-11.875,0-23.389,3.881-32.651,10.916l-5.356,4.068v-19.265H0v210.719h97.931v-25.862l37.464,17.031
			c7.015,3.18,14.468,4.796,22.157,4.796h122.313c82.503,0,151.619-64.311,196.428-112.687
			C496.355,345.011,495.062,311.051,473.397,290.981z M464.507,355.756c-42.757,46.163-108.428,107.539-184.632,107.539H157.563
			c-5.388,0-10.608-1.131-15.515-3.358l-39.274-17.854c-0.95-0.428-3.628-0.963-4.843-1.474v-128.48l15.07-11.456
			c6.486-4.927,14.541-7.642,22.687-7.642l140.27,0.229c20.678,0.089,37.428,17.389,37.333,38.062
			c-0.101,20.584-16.917,36.88-37.496,36.88l-117.362-0.079h-0.032c-16.717,0-18.384,20.181-5.759,20.181h127.234
			c34.675,0,78.297-28.096,129.612-83.508c7.072-7.637,17.105-12.011,27.526-12.011c9.468,0,18.508,3.547,25.465,9.981
			C477.649,316.817,478.558,340.586,464.507,355.756z"/>
	</g>
</g>
<g>
</g>
<g>
</g>
<g>
</g>
<g>
</g>
<g>
</g>
<g>
</g>
<g>
</g>
<g>
</g>
<g>
</g>
<g>
</g>
<g>
</g>
<g>
</g>
<g>
</g>
<g>
</g>
<g>
</g>
</svg>
