<?xml version="1.0" encoding="iso-8859-1"?>
<!-- Generator: Adobe Illustrator 16.0.0, SVG Export Plug-In . SVG Version: 6.00 Build 0)  -->
<!DOCTYPE svg PUBLIC "-//W3C//DTD SVG 1.1//EN" "http://www.w3.org/Graphics/SVG/1.1/DTD/svg11.dtd">
<svg version="1.1" id="Capa_1" xmlns="http://www.w3.org/2000/svg" xmlns:xlink="http://www.w3.org/1999/xlink" x="0px" y="0px"
	 width="390.912px" height="390.913px" viewBox="0 0 390.912 390.913" style="enable-background:new 0 0 390.912 390.913;"
	 xml:space="preserve">
<g>
	<g>
		<path d="M231.419,35.957c-11.745,0-23.4,1.279-34.605,3.774c0,0-24.374-3.78-37.293-3.78C71.56,35.951,0,107.519,0,195.471
			c0,87.937,71.565,159.49,159.521,159.49c12.31,0,24.238-1.537,35.756-4.18c11.781,2.738,23.923,4.18,36.143,4.18
			c87.94,0,159.493-71.565,159.493-159.49C390.912,107.519,319.359,35.957,231.419,35.957z M166.432,269.801l-0.033,25.244H151.12
			v-24.271c-14.094-0.252-28.421-4.636-36.918-10.713l5.816-16.236c8.482,5.584,21.155,10.412,34.744,10.412
			c17.252,0,27.349-9.944,27.349-23.815c0-13.343-7.926-21.617-25.893-28.895c-24.749-9.734-40.085-21.14-40.061-42.274
			c0-20.155,14.297-35.428,36.416-39.1v-24.29h15.309l-0.024,23.602c14.352,0.453,24.301,4.365,31.567,8.484l-6.044,16.03
			c-5.104-2.9-15.078-8.509-30.622-8.509c-18.693,0-24.167,11.184-24.167,21.134c0,12.382,7.416,18.689,28.55,27.67
			c25.016,10.235,37.645,22.62,37.645,44.237C204.782,247.919,191.445,265.922,166.432,269.801z M231.419,339.601
			c-1.225,0-2.42-0.156-3.615-0.204c53.84-25.652,91.207-80.429,91.207-143.92c0-63.537-37.386-118.325-91.225-143.947
			c1.225-0.024,2.426-0.213,3.639-0.213c79.504,0,144.127,64.681,144.127,144.154C375.552,274.971,310.917,339.601,231.419,339.601z
			"/>
	</g>
</g>
<g>
</g>
<g>
</g>
<g>
</g>
<g>
</g>
<g>
</g>
<g>
</g>
<g>
</g>
<g>
</g>
<g>
</g>
<g>
</g>
<g>
</g>
<g>
</g>
<g>
</g>
<g>
</g>
<g>
</g>
</svg>
