<?xml version="1.0" encoding="iso-8859-1"?>
<!-- Generator: Adobe Illustrator 18.1.1, SVG Export Plug-In . SVG Version: 6.00 Build 0)  -->
<svg version="1.1" id="Capa_1" xmlns="http://www.w3.org/2000/svg" xmlns:xlink="http://www.w3.org/1999/xlink" x="0px" y="0px"
	 viewBox="0 0 302.45 302.45" style="enable-background:new 0 0 302.45 302.45;" xml:space="preserve">
<g>
	<g>
		<g>
			<g>
				<path style="fill:#010002;" d="M287.547,94.748C287.547,42.501,240.722,0,183.155,0c-42.158,0-78.469,22.833-94.939,55.555
					c12.978-5.26,27.304-8.246,42.408-8.246c57.567,0,104.392,42.495,104.392,94.749c0,13.929-3.514,27.19-9.627,39.172
					C261.891,166.348,287.547,132.931,287.547,94.748z"/>
			</g>
		</g>
		<g>
			<path style="fill:#010002;" d="M119.3,60.02c-57.562,0-104.397,42.501-104.397,94.748c0,31.068,16.785,60.156,44.916,77.877
				c1.028,31.22-9.48,59.068-9.926,60.243l-3.742,9.562l76.038-53.004c55.99-1.392,101.509-43.817,101.509-94.678
				C223.692,102.521,176.867,60.02,119.3,60.02z"/>
		</g>
	</g>
</g>
<g>
</g>
<g>
</g>
<g>
</g>
<g>
</g>
<g>
</g>
<g>
</g>
<g>
</g>
<g>
</g>
<g>
</g>
<g>
</g>
<g>
</g>
<g>
</g>
<g>
</g>
<g>
</g>
<g>
</g>
</svg>
