<?xml version="1.0" encoding="iso-8859-1"?>
<!-- Generator: Adobe Illustrator 18.1.1, SVG Export Plug-In . SVG Version: 6.00 Build 0)  -->
<svg version="1.1" id="Capa_1" xmlns="http://www.w3.org/2000/svg" xmlns:xlink="http://www.w3.org/1999/xlink" x="0px" y="0px"
	 viewBox="0 0 306.948 306.948" style="enable-background:new 0 0 306.948 306.948;" xml:space="preserve">
<g>
	<g>
		<path style="fill:#010002;" d="M272.655,24.579V0h-11.134v24.579h-40.086V0h-11.134v24.579h-44.72V0h-11.134v24.579H108.02V0
			H96.886v24.579H52.351V0H41.217v24.579H1.561v282.369h303.826V24.579H272.655z M142.743,230.246l-61.635-62.549l13.935-13.777
			l48.549,49.272l82.369-73.884l13.081,14.582L142.743,230.246z M295.287,87.395H11.678V34.679h29.55v25.613h11.134V34.679h44.535
			v25.613h11.134V34.679h46.428v25.613h11.134V34.679h44.72v25.613h11.134V34.679h40.086v25.613h11.134V34.679h22.632v52.715
			H295.287z"/>
	</g>
</g>
<g>
</g>
<g>
</g>
<g>
</g>
<g>
</g>
<g>
</g>
<g>
</g>
<g>
</g>
<g>
</g>
<g>
</g>
<g>
</g>
<g>
</g>
<g>
</g>
<g>
</g>
<g>
</g>
<g>
</g>
</svg>
