<?xml version="1.0" encoding="iso-8859-1"?>
<!-- Generator: Adobe Illustrator 18.1.1, SVG Export Plug-In . SVG Version: 6.00 Build 0)  -->
<svg version="1.1" id="Capa_1" xmlns="http://www.w3.org/2000/svg" xmlns:xlink="http://www.w3.org/1999/xlink" x="0px" y="0px"
	 viewBox="0 0 307.337 307.337" style="enable-background:new 0 0 307.337 307.337;" xml:space="preserve">
<g>
	<g>
		<path style="fill:#010002;" d="M305.579,246.543c-6.957-7.25-13.462-12.564-19.205-17.247
			c-13.027-10.639-20.212-16.508-20.212-33.842v-61.097c-0.239-48.538-31.84-91.964-76.386-106.948
			c-0.179-0.076-0.315-0.212-0.5-0.272c-0.669-0.207-1.322-0.354-1.98-0.544c-0.908-0.277-1.779-0.625-2.687-0.881
			c-2.355-10.557-10.726-25.014-30.948-25.014c-20.348,0-28.626,13.88-30.943,24.198c-1.474,0.381-2.42,0.669-2.616,0.734
			c-0.408,0.131-0.723,0.402-1.082,0.609c-45.09,14.479-77.24,58.595-77.496,108.134v59.139c0,17.878-8.126,24.808-21.571,36.273
			c-5.477,4.661-11.672,9.948-18.188,16.752c-1.762,1.844-2.252,4.542-1.251,6.875c0.99,2.339,3.291,3.851,5.82,3.851h100.938
			c6.054,29.219,25.188,49.376,47.309,49.376c22.104,0,41.239-20.157,47.287-49.376h99.138c2.535,0,4.83-1.512,5.82-3.851
			C307.831,251.085,307.325,248.382,305.579,246.543z M154.579,293.966c-14.604,0-28.055-14.093-33.728-34.418h67.434
			C182.612,279.874,169.173,293.966,154.579,293.966z"/>
	</g>
</g>
<g>
</g>
<g>
</g>
<g>
</g>
<g>
</g>
<g>
</g>
<g>
</g>
<g>
</g>
<g>
</g>
<g>
</g>
<g>
</g>
<g>
</g>
<g>
</g>
<g>
</g>
<g>
</g>
<g>
</g>
</svg>
