<?xml version="1.0" encoding="iso-8859-1"?>
<!-- Generator: Adobe Illustrator 18.1.1, SVG Export Plug-In . SVG Version: 6.00 Build 0)  -->
<svg version="1.1" id="Capa_1" xmlns="http://www.w3.org/2000/svg" xmlns:xlink="http://www.w3.org/1999/xlink" x="0px" y="0px"
	 viewBox="0 0 477.443 477.443" style="enable-background:new 0 0 477.443 477.443;" xml:space="preserve">
<g>
	<g>
		<g>
			<g>
				<path style="fill:#010002;" d="M0,395.949h407.526v-81.107H0V395.949z"/>
			</g>
		</g>
		<g>
			<g>
				<path style="fill:#010002;" d="M417.549,395.949h50.161v-81.107h-50.161V395.949z"/>
			</g>
		</g>
		<g>
			<g>
				<path style="fill:#010002;" d="M423.214,212.243c13.258,11.161,19.655,22.484,19.029,33.66
					c-0.959,17.273-18.46,29.157-18.639,29.279l4.617,6.958c0.862-0.569,21.134-14.241,22.37-35.709
					c0.805-13.973-6.6-27.613-21.98-40.578c-13.258-11.169-19.655-22.492-19.029-33.636c0.975-17.216,18.46-29.043,18.639-29.157
					l-4.617-6.974c-0.845,0.569-21.11,14.176-22.345,35.587C400.438,185.622,407.835,199.278,423.214,212.243z"/>
			</g>
		</g>
		<g>
			<g>
				<path style="fill:#010002;" d="M440.829,169.357c3.081,18.005,20.265,27.507,20.98,27.914l3.991-7.356
					c-0.138-0.073-14.323-7.917-16.729-21.955c-1.626-9.649,2.666-20.2,12.794-31.36c12.868-14.168,17.785-26.654,14.672-37.131
					c-4.056-13.542-19.915-17.802-20.59-17.972l-2.105,8.096c0.13,0.033,12.022,3.341,14.688,12.282
					c2.195,7.364-2.252,17.436-12.843,29.117C443.739,144.15,438.748,157.058,440.829,169.357z"/>
			</g>
		</g>
	</g>
</g>
<g>
</g>
<g>
</g>
<g>
</g>
<g>
</g>
<g>
</g>
<g>
</g>
<g>
</g>
<g>
</g>
<g>
</g>
<g>
</g>
<g>
</g>
<g>
</g>
<g>
</g>
<g>
</g>
<g>
</g>
</svg>
