<?xml version="1.0" encoding="iso-8859-1"?>
<!-- Generator: Adobe Illustrator 18.1.1, SVG Export Plug-In . SVG Version: 6.00 Build 0)  -->
<svg version="1.1" id="Capa_1" xmlns="http://www.w3.org/2000/svg" xmlns:xlink="http://www.w3.org/1999/xlink" x="0px" y="0px"
	 viewBox="0 0 459.833 459.833" style="enable-background:new 0 0 459.833 459.833;" xml:space="preserve">
<g>
	<g>
		<g>
			<path style="fill:#010002;" d="M80.294,236.533c0-22.142-18.005-40.139-40.147-40.139c-22.126,0-40.139,17.997-40.139,40.139
				c0,22.134,18.005,40.139,40.139,40.139C62.289,276.672,80.294,258.668,80.294,236.533z"/>
		</g>
		<g>
			<path style="fill:#010002;" d="M419.686,196.403c-22.142,0-40.139,17.997-40.139,40.139c0,22.134,18.005,40.139,40.139,40.139
				c22.15,0,40.139-18.005,40.139-40.139C459.817,214.399,441.829,196.403,419.686,196.403z"/>
		</g>
		<g>
			<path style="fill:#010002;" d="M97.38,142.494c10.73,0,20.809-4.186,28.385-11.762c7.576-7.568,11.754-17.639,11.754-28.385
				c0-10.73-4.178-20.809-11.754-28.377c-7.568-7.592-17.639-11.77-28.385-11.77c-10.73,0-20.809,4.186-28.385,11.77
				C61.42,81.546,57.25,91.609,57.25,102.331c0,10.73,4.17,20.825,11.746,28.401C76.604,138.308,86.675,142.494,97.38,142.494z"/>
		</g>
		<g>
			<path style="fill:#010002;" d="M365.77,330.581c-10.722,0-20.817,4.178-28.385,11.746c-7.592,7.584-11.762,17.663-11.762,28.385
				c0,10.73,4.178,20.817,11.762,28.377c7.576,7.592,17.655,11.754,28.385,11.754c10.713,0,20.801-4.17,28.385-11.754
				c7.576-7.568,11.746-17.647,11.746-28.377c0-10.722-4.178-20.809-11.746-28.385C386.562,334.751,376.483,330.581,365.77,330.581z
				"/>
		</g>
		<g>
			<path style="fill:#010002;" d="M365.753,142.494c10.73,0,20.817-4.186,28.401-11.762c7.576-7.592,11.746-17.663,11.746-28.385
				s-4.178-20.801-11.746-28.377c-7.568-7.592-17.647-11.77-28.385-11.77c-10.746,0-20.825,4.186-28.385,11.77
				c-7.584,7.568-11.738,17.639-11.738,28.377c0,10.746,4.162,20.825,11.738,28.385C344.944,138.308,355.04,142.494,365.753,142.494
				z"/>
		</g>
		<g>
			<path style="fill:#010002;" d="M97.38,330.581c-10.713,0-20.809,4.178-28.385,11.746c-7.576,7.608-11.762,17.688-11.762,28.385
				c0,10.73,4.186,20.817,11.762,28.377c7.584,7.592,17.655,11.754,28.385,11.754c10.73,0,20.809-4.17,28.385-11.754
				c7.576-7.568,11.762-17.647,11.762-28.377c0-10.713-4.17-20.793-11.762-28.385C118.189,334.751,108.118,330.581,97.38,330.581z"
				/>
		</g>
		<g>
			<path style="fill:#010002;" d="M231.575,0c-22.142,0-40.139,18.021-40.139,40.147c0,22.134,17.989,40.139,40.139,40.139
				c22.142,0,40.147-18.005,40.147-40.139C271.73,18.021,253.717,0,231.575,0z"/>
		</g>
		<g>
			<path style="fill:#010002;" d="M231.575,379.539c-22.142,0-40.139,18.021-40.139,40.155c0,22.118,17.989,40.139,40.139,40.139
				c22.142,0,40.147-18.021,40.147-40.139C271.73,397.56,253.717,379.539,231.575,379.539z"/>
		</g>
	</g>
</g>
<g>
</g>
<g>
</g>
<g>
</g>
<g>
</g>
<g>
</g>
<g>
</g>
<g>
</g>
<g>
</g>
<g>
</g>
<g>
</g>
<g>
</g>
<g>
</g>
<g>
</g>
<g>
</g>
<g>
</g>
</svg>
