<?xml version="1.0" encoding="iso-8859-1"?>
<!-- Generator: Adobe Illustrator 18.1.1, SVG Export Plug-In . SVG Version: 6.00 Build 0)  -->
<svg version="1.1" id="Capa_1" xmlns="http://www.w3.org/2000/svg" xmlns:xlink="http://www.w3.org/1999/xlink" x="0px" y="0px"
	 viewBox="0 0 464.117 464.117" style="enable-background:new 0 0 464.117 464.117;" xml:space="preserve">
<g>
	<g>
		<g>
			<path style="fill:#010002;" d="M103.688,119.352c-29.295-4.56-52.153-9.649-66.849-13.29
				C15.225,139.438,2.081,178.65,0.049,220.788H97.25C96.819,183.454,99.51,149.249,103.688,119.352z"/>
		</g>
		<g>
			<path style="fill:#010002;" d="M97.844,242.435H0c1.796,40.204,13.762,77.725,33.506,110.118
				c25.402-6.926,50.641-12.168,75.409-15.973C102.599,303.781,99.152,272.226,97.844,242.435z"/>
		</g>
		<g>
			<path style="fill:#010002;" d="M134.942,355.064c7.527,32.49,18.078,66.077,32.474,100.25
				c17.208,4.991,35.245,7.909,53.836,8.763V349.943C193.745,350.073,164.766,351.561,134.942,355.064z"/>
		</g>
		<g>
			<path style="fill:#010002;" d="M46.333,371.46c24.239,32.214,56.453,58.046,93.918,74.214
				c-11.502-29.832-20.354-59.209-26.857-87.748C91.292,361.226,68.857,365.664,46.333,371.46z"/>
		</g>
		<g>
			<path style="fill:#010002;" d="M365.217,220.788h98.876c-2.057-42.171-15.209-81.408-36.855-114.8
				c-22.988,6.137-45.829,10.909-68.304,14.477C363.006,150.094,365.623,183.925,365.217,220.788z"/>
		</g>
		<g>
			<path style="fill:#010002;" d="M123.652,26.434C95.324,41.431,70.499,62.102,50.6,86.935c13.997,3.186,33.108,7.088,56.51,10.673
				C112.182,68.264,118.385,44.122,123.652,26.434z"/>
		</g>
		<g>
			<path style="fill:#010002;" d="M413.704,87.155c-20.378-25.491-45.975-46.552-75.181-61.663
				c5.397,18.037,11.835,42.992,17.062,73.499C374.768,95.982,394.179,92.064,413.704,87.155z"/>
		</g>
		<g>
			<path style="fill:#010002;" d="M221.244,107.606V0.008c-24.955,1.154-48.853,6.21-71.158,14.648
				c-5.487,15.916-14.615,45.805-21.622,85.976C155.662,104.127,187.079,106.875,221.244,107.606z"/>
		</g>
		<g>
			<path style="fill:#010002;" d="M334.206,101.997c-7.121-41.439-16.574-72.141-22.077-88.041
				C290.353,5.942,267.113,1.13,242.89,0.008v107.769C271.933,107.647,302.635,105.948,334.206,101.997z"/>
		</g>
		<g>
			<path style="fill:#010002;" d="M242.898,328.069c32.563,0.658,62.566,3.17,89.008,6.413c6.283-32.059,9.754-62.931,11.096-92.04
				H242.898V328.069z"/>
		</g>
		<g>
			<path style="fill:#010002;" d="M118.832,220.788h102.412v-91.154c-35.563-0.707-68.061-3.56-96.202-7.251
				C121.002,151.346,118.393,184.519,118.832,220.788z"/>
		</g>
		<g>
			<path style="fill:#010002;" d="M242.898,129.789v90.991h100.721c0.431-35.741-2.081-68.516-6.031-97.169
				C304.732,127.846,272.925,129.602,242.898,129.789z"/>
		</g>
		<g>
			<path style="fill:#010002;" d="M364.607,242.435c-1.317,30.043-4.82,61.875-11.201,94.958
				c35.18,5.202,61.867,11.339,77.181,15.233c19.769-32.417,31.75-69.954,33.53-110.191H364.607z"/>
		</g>
		<g>
			<path style="fill:#010002;" d="M130.366,333.621c31.49-3.861,62.005-5.536,90.877-5.682v-85.504H119.449
				C120.774,271.291,124.18,301.863,130.366,333.621z"/>
		</g>
		<g>
			<path style="fill:#010002;" d="M242.898,350.138v113.971c17.907-0.845,35.302-3.625,51.958-8.316
				c14.347-33.969,24.865-67.321,32.417-99.664C302.074,353.138,273.608,350.829,242.898,350.138z"/>
		</g>
		<g>
			<path style="fill:#010002;" d="M321.843,446.568c38.196-16.046,71.044-42.13,95.681-74.742
				c-15.591-3.674-39.155-8.6-68.711-12.851C342.278,387.457,333.377,416.785,321.843,446.568z"/>
		</g>
	</g>
</g>
<g>
</g>
<g>
</g>
<g>
</g>
<g>
</g>
<g>
</g>
<g>
</g>
<g>
</g>
<g>
</g>
<g>
</g>
<g>
</g>
<g>
</g>
<g>
</g>
<g>
</g>
<g>
</g>
<g>
</g>
</svg>
