<?xml version="1.0" encoding="iso-8859-1"?>
<!-- Generator: Adobe Illustrator 16.0.0, SVG Export Plug-In . SVG Version: 6.00 Build 0)  -->
<!DOCTYPE svg PUBLIC "-//W3C//DTD SVG 1.1//EN" "http://www.w3.org/Graphics/SVG/1.1/DTD/svg11.dtd">
<svg version="1.1" id="Capa_1" xmlns="http://www.w3.org/2000/svg" xmlns:xlink="http://www.w3.org/1999/xlink" x="0px" y="0px"
	 width="336.19px" height="336.19px" viewBox="0 0 336.19 336.19" style="enable-background:new 0 0 336.19 336.19;"
	 xml:space="preserve">
<g>
	<g>
		<path d="M268.811,132.276c-3.987,0-8.046,0.357-12.052,1.072c-12.231-19.99-34.269-32.387-57.706-32.387
			c-5.242,0-10.508,0.633-15.702,1.882c-12.013-21.122-34.468-34.212-58.763-34.212c-36.197,0-65.726,28.265-67.527,64.477
			C23.956,138.272,0,166.252,0,199.921c0,37.296,30.345,67.638,67.638,67.638h200.915c37.296,0,67.638-30.342,67.638-67.638
			C336.19,162.622,305.963,132.276,268.811,132.276z M198.002,192.433h-29.216v29.208c0,4.665-3.792,8.467-8.467,8.467
			c-4.666,0-8.455-3.802-8.455-8.467v-29.208h-29.207c-4.672,0-8.467-3.807-8.467-8.473c0-4.672,3.795-8.461,8.467-8.461h29.207
			v-29.213c0-4.669,3.789-8.461,8.455-8.461c4.675,0,8.467,3.792,8.467,8.461v29.213h29.216c4.666,0,8.455,3.789,8.455,8.461
			C206.457,188.626,202.668,192.433,198.002,192.433z"/>
	</g>
</g>
<g>
</g>
<g>
</g>
<g>
</g>
<g>
</g>
<g>
</g>
<g>
</g>
<g>
</g>
<g>
</g>
<g>
</g>
<g>
</g>
<g>
</g>
<g>
</g>
<g>
</g>
<g>
</g>
<g>
</g>
</svg>
