<?xml version="1.0" encoding="iso-8859-1"?>
<!-- Generator: Adobe Illustrator 16.0.0, SVG Export Plug-In . SVG Version: 6.00 Build 0)  -->
<!DOCTYPE svg PUBLIC "-//W3C//DTD SVG 1.1//EN" "http://www.w3.org/Graphics/SVG/1.1/DTD/svg11.dtd">
<svg version="1.1" id="Capa_1" xmlns="http://www.w3.org/2000/svg" xmlns:xlink="http://www.w3.org/1999/xlink" x="0px" y="0px"
	 width="358.69px" height="358.69px" viewBox="0 0 358.69 358.69" style="enable-background:new 0 0 358.69 358.69;"
	 xml:space="preserve">
<g>
	<g>
		<path d="M0,0v358.69h358.69V0H0z M22.389,66.764V22.389h47.156V66.77H22.389V66.764z M22.389,336.304V89.153h47.156v247.151
			H22.389z M91.928,66.764V22.389h42.346V66.77H91.928V66.764z M91.928,336.304V89.153h42.346v247.151H91.928z M156.662,66.764
			V22.389h46.685V66.77h-46.685V66.764z M156.662,336.304V89.153h46.685v247.151H156.662z M225.732,66.764V22.389h44.988V66.77
			h-44.988V66.764z M225.732,336.304V89.153h44.988v247.151H225.732z M293.112,66.764V22.389h43.192V66.77h-43.192V66.764z
			 M293.112,336.304V89.153h43.192v247.151H293.112z"/>
	</g>
</g>
<g>
</g>
<g>
</g>
<g>
</g>
<g>
</g>
<g>
</g>
<g>
</g>
<g>
</g>
<g>
</g>
<g>
</g>
<g>
</g>
<g>
</g>
<g>
</g>
<g>
</g>
<g>
</g>
<g>
</g>
</svg>
