<?xml version="1.0" encoding="iso-8859-1"?>
<!-- Generator: Adobe Illustrator 18.1.1, SVG Export Plug-In . SVG Version: 6.00 Build 0)  -->
<svg version="1.1" id="Capa_1" xmlns="http://www.w3.org/2000/svg" xmlns:xlink="http://www.w3.org/1999/xlink" x="0px" y="0px"
	 viewBox="0 0 455.2 455.2" style="enable-background:new 0 0 455.2 455.2;" xml:space="preserve">
<g>
	<g>
		<g>
			<path style="fill:#010002;" d="M0,62.175v294.295h455.2V62.175H0z M276.347,214.164l-72.052,59.452
				c-1.114,0.902-2.479,1.382-3.861,1.382c-0.878,0-1.764-0.179-2.585-0.561c-2.122-1.008-3.487-3.154-3.487-5.503v-118.88
				c0-2.349,1.366-4.495,3.487-5.479c2.122-1.008,4.617-0.691,6.446,0.797l72.052,59.444c1.406,1.138,2.203,2.861,2.203,4.666
				C278.55,211.31,277.753,213.034,276.347,214.164z"/>
		</g>
		<g>
			<polygon style="fill:#010002;" points="141.746,393.025 224.097,393.025 308.252,393.025 308.252,370.874 141.746,370.874 			"/>
		</g>
	</g>
</g>
<g>
</g>
<g>
</g>
<g>
</g>
<g>
</g>
<g>
</g>
<g>
</g>
<g>
</g>
<g>
</g>
<g>
</g>
<g>
</g>
<g>
</g>
<g>
</g>
<g>
</g>
<g>
</g>
<g>
</g>
</svg>
