<?xml version="1.0" encoding="iso-8859-1"?>
<!-- Generator: Adobe Illustrator 18.1.1, SVG Export Plug-In . SVG Version: 6.00 Build 0)  -->
<svg version="1.1" id="Capa_1" xmlns="http://www.w3.org/2000/svg" xmlns:xlink="http://www.w3.org/1999/xlink" x="0px" y="0px"
	 viewBox="0 0 456.159 456.159" style="enable-background:new 0 0 456.159 456.159;" xml:space="preserve">
<g>
	<g>
		<g>
			<path style="fill:#010002;" d="M235.042,24.126V0H221.15v24.126H36.233v281.46h383.693V24.126H235.042z M406.628,290.377H48.475
				V34.221h358.153V290.377z"/>
		</g>
		<g>
			<path style="fill:#010002;" d="M394.167,46.682H60.936v231.242h333.231V46.682z M353.459,123.66
				c-7.616,0-14.103-4.731-16.81-11.396l-54.884,10.453c0.049,0.35,0.122,0.691,0.122,1.049c0,9.998-8.129,18.127-18.127,18.127
				c-3.82,0-7.364-1.203-10.291-3.235l-36.741,40.139c2.065,2.959,3.308,6.519,3.308,10.38c0,9.998-8.129,18.127-18.127,18.127
				s-18.127-8.129-18.127-18.127c0-1.187,0.122-2.349,0.341-3.471l-57.615-22.524c-3.26,4.828-8.787,8.015-15.038,8.015
				c-9.998,0-18.127-8.129-18.127-18.127c0-9.99,8.129-18.127,18.127-18.127c9.982,0,18.127,8.137,18.127,18.127
				c0,1.276-0.146,2.504-0.39,3.699l57.542,22.508c3.235-4.934,8.828-8.234,15.16-8.234c3.625,0,6.982,1.097,9.827,2.943
				l36.863-40.301c-1.87-2.861-2.967-6.251-2.967-9.917c0-9.998,8.129-18.135,18.119-18.135c7.21,0,13.363,4.259,16.306,10.348
				l55.282-10.535c0.049-9.949,8.153-18.045,18.119-18.045c9.998,0,18.127,8.129,18.127,18.143
				C371.586,115.523,363.457,123.66,353.459,123.66z"/>
		</g>
		<g>
			<polygon style="fill:#010002;" points="232.636,320.461 218.744,320.461 218.744,383.189 150.472,445.763 159.861,456.013 
				225.848,395.536 296.502,456.159 305.549,445.625 232.636,383.067 			"/>
		</g>
	</g>
</g>
<g>
</g>
<g>
</g>
<g>
</g>
<g>
</g>
<g>
</g>
<g>
</g>
<g>
</g>
<g>
</g>
<g>
</g>
<g>
</g>
<g>
</g>
<g>
</g>
<g>
</g>
<g>
</g>
<g>
</g>
</svg>
