<?xml version="1.0" encoding="iso-8859-1"?>
<!-- Generator: Adobe Illustrator 18.1.1, SVG Export Plug-In . SVG Version: 6.00 Build 0)  -->
<svg version="1.1" id="Capa_1" xmlns="http://www.w3.org/2000/svg" xmlns:xlink="http://www.w3.org/1999/xlink" x="0px" y="0px"
	 viewBox="0 0 474.172 474.172" style="enable-background:new 0 0 474.172 474.172;" xml:space="preserve">
<g>
	<g>
		<g>
			<path style="fill:#010002;" d="M118.401,117.783c-5.617,0-11.274,3.568-12.64,7.958L17.143,412.541
				c-1.357,4.389,2.097,7.958,7.698,7.958h166.116L284.5,117.775H118.401V117.783z M113.629,387.741H81.066l29.555-95.633h32.555
				L113.629,387.741z"/>
		</g>
		<g>
			<path style="fill:#010002;" d="M0,53.673v92.901h74.271l10.307-33.36c3.251-10.51,16.794-19.053,30.222-19.053h271.291
				c13.404,0,21.679,8.543,18.444,19.053l-10.315,33.36h79.953V53.673H0z"/>
		</g>
		<g>
			<path style="fill:#010002;" d="M367.899,117.783h-46.772l-93.544,302.716h46.772c5.592,0,11.274-3.568,12.616-7.958
				l88.626-286.809C376.955,121.351,373.5,117.783,367.899,117.783z"/>
		</g>
	</g>
</g>
<g>
</g>
<g>
</g>
<g>
</g>
<g>
</g>
<g>
</g>
<g>
</g>
<g>
</g>
<g>
</g>
<g>
</g>
<g>
</g>
<g>
</g>
<g>
</g>
<g>
</g>
<g>
</g>
<g>
</g>
</svg>
