<?xml version="1.0" encoding="iso-8859-1"?>
<!-- Generator: Adobe Illustrator 16.0.0, SVG Export Plug-In . SVG Version: 6.00 Build 0)  -->
<!DOCTYPE svg PUBLIC "-//W3C//DTD SVG 1.1//EN" "http://www.w3.org/Graphics/SVG/1.1/DTD/svg11.dtd">
<svg version="1.1" id="Capa_1" xmlns="http://www.w3.org/2000/svg" xmlns:xlink="http://www.w3.org/1999/xlink" x="0px" y="0px"
	 width="351.029px" height="351.028px" viewBox="0 0 351.029 351.028" style="enable-background:new 0 0 351.029 351.028;"
	 xml:space="preserve">
<g>
	<g>
		<path d="M309.835,300.606L191.037,181.813v-21.836h-21.854L50.414,41.211V0H0v50.417h41.223l76.903,76.91
			c-23.908-13.066-49.72-21.773-76.885-25.893l-1.39-0.21l-1.961,12.868l1.402,0.21c46.3,7.04,88.016,27.886,120.69,60.309v16.427
			h14.91c0.444,0.528,0.903,1.032,1.348,1.537c0.751,0.858,1.511,1.693,2.201,2.612c33.702,43.559,47.813,96.803,39.736,149.963
			l-0.216,1.399l12.893,1.939l0.204-1.381c6.803-44.862-1.063-89.453-22.771-129.62l92.323,92.324v41.217h50.417v-50.422H309.835z"
			/>
	</g>
</g>
<g>
</g>
<g>
</g>
<g>
</g>
<g>
</g>
<g>
</g>
<g>
</g>
<g>
</g>
<g>
</g>
<g>
</g>
<g>
</g>
<g>
</g>
<g>
</g>
<g>
</g>
<g>
</g>
<g>
</g>
</svg>
