<?xml version="1.0" encoding="iso-8859-1"?>
<!-- Generator: Adobe Illustrator 18.1.1, SVG Export Plug-In . SVG Version: 6.00 Build 0)  -->
<svg version="1.1" id="Capa_1" xmlns="http://www.w3.org/2000/svg" xmlns:xlink="http://www.w3.org/1999/xlink" x="0px" y="0px"
	 viewBox="0 0 312.746 312.746" style="enable-background:new 0 0 312.746 312.746;" xml:space="preserve">
<g>
	<g>
		<path style="fill:#010002;" d="M268.437,64.845V0h-64.855v18.982h-58.209v127.41h-15.964v-34.93H44.304v85.11h85.105v-34.935
			h15.964v127.426h58.209v23.682h64.861v-64.861h-64.861v25.933h-42.969V161.644h42.969v24.802h64.861v-64.85h-64.861v24.802
			h-42.969V34.228h42.969v30.616C203.581,64.845,268.437,64.845,268.437,64.845z M253.197,15.246v34.353h-34.364V15.246H253.197z
			 M253.197,136.841v34.348h-34.364v-34.348C218.833,136.841,253.197,136.841,253.197,136.841z M253.197,263.137v34.364h-34.364
			v-34.364H253.197z M59.55,181.328v-54.603h54.614v54.603C114.163,181.328,59.55,181.328,59.55,181.328z"/>
	</g>
</g>
<g>
</g>
<g>
</g>
<g>
</g>
<g>
</g>
<g>
</g>
<g>
</g>
<g>
</g>
<g>
</g>
<g>
</g>
<g>
</g>
<g>
</g>
<g>
</g>
<g>
</g>
<g>
</g>
<g>
</g>
</svg>
