<?xml version="1.0" encoding="iso-8859-1"?>
<!-- Generator: Adobe Illustrator 18.1.1, SVG Export Plug-In . SVG Version: 6.00 Build 0)  -->
<svg version="1.1" id="Capa_1" xmlns="http://www.w3.org/2000/svg" xmlns:xlink="http://www.w3.org/1999/xlink" x="0px" y="0px"
	 viewBox="0 0 348.065 348.065" style="enable-background:new 0 0 348.065 348.065;" xml:space="preserve">
<g>
	<g>
		<g>
			<polygon style="fill:#010002;" points="279.076,271.367 298.684,290.968 318.267,271.367 			"/>
		</g>
		<g>
			<rect x="273.915" y="212.325" style="fill:#010002;" width="49.436" height="48.111"/>
		</g>
		<g>
			<rect x="273.915" y="148.181" style="fill:#010002;" width="49.436" height="53.213"/>
		</g>
		<g>
			<rect x="273.915" y="24.721" style="fill:#010002;" width="49.436" height="50.527"/>
		</g>
		<g>
			<rect x="273.915" y="86.179" style="fill:#010002;" width="49.436" height="51.094"/>
		</g>
		<g>
			<rect x="211.895" y="148.181" style="fill:#010002;" width="51.094" height="53.213"/>
		</g>
		<g>
			<polygon style="fill:#010002;" points="273.915,281.648 273.915,315.731 290.962,298.684 			"/>
		</g>
		<g>
			<rect x="211.895" y="86.179" style="fill:#010002;" width="51.094" height="51.094"/>
		</g>
		<g>
			<rect x="211.895" y="24.721" style="fill:#010002;" width="51.094" height="50.527"/>
		</g>
		<g>
			<polygon style="fill:#010002;" points="93.889,86.179 113.001,105.273 132.089,86.179 			"/>
		</g>
		<g>
			<polygon style="fill:#010002;" points="211.895,219.623 211.895,256.259 230.208,237.941 			"/>
		</g>
		<g>
			<polygon style="fill:#010002;" points="200.964,193.255 200.964,158.504 183.595,175.879 			"/>
		</g>
		<g>
			<polygon style="fill:#010002;" points="129.541,137.274 113.001,120.716 96.454,137.274 			"/>
		</g>
		<g>
			<polygon style="fill:#010002;" points="137.208,129.487 137.208,96.496 120.716,113.001 			"/>
		</g>
		<g>
			<polygon style="fill:#010002;" points="193.667,201.4 175.879,183.607 158.092,201.4 			"/>
		</g>
		<g>
			<polygon style="fill:#010002;" points="262.99,255.275 262.99,220.607 245.662,237.941 			"/>
		</g>
		<g>
			<polygon style="fill:#010002;" points="252.709,260.436 237.941,245.674 223.173,260.436 			"/>
		</g>
		<g>
			<polygon style="fill:#010002;" points="155.914,148.181 175.879,168.164 195.833,148.181 			"/>
		</g>
		<g>
			<polygon style="fill:#010002;" points="220.04,212.325 237.941,230.208 255.824,212.325 			"/>
		</g>
		<g>
			<polygon style="fill:#010002;" points="281.744,323.351 315.624,323.351 298.684,306.417 			"/>
		</g>
		<g>
			<polygon style="fill:#010002;" points="323.351,315.624 323.351,281.744 306.417,298.684 			"/>
		</g>
		<g>
			<polygon style="fill:#010002;" points="67.503,24.721 32.448,24.721 49.973,42.263 			"/>
		</g>
		<g>
			<rect x="88.733" y="271.367" style="fill:#010002;" width="48.481" height="51.989"/>
		</g>
		<g>
			<polygon style="fill:#010002;" points="32.448,75.248 67.521,75.248 49.973,57.706 			"/>
		</g>
		<g>
			<polygon style="fill:#010002;" points="77.802,70.075 77.802,29.882 57.706,49.973 			"/>
		</g>
		<g>
			<polygon style="fill:#010002;" points="24.721,32.448 24.721,67.521 42.257,49.973 			"/>
		</g>
		<g>
			<rect x="24.721" y="212.325" style="fill:#010002;" width="53.081" height="48.111"/>
		</g>
		<g>
			<rect x="24.721" y="86.179" style="fill:#010002;" width="53.081" height="51.094"/>
		</g>
		<g>
			<rect x="24.721" y="271.367" style="fill:#010002;" width="53.081" height="51.989"/>
		</g>
		<g>
			<rect x="24.721" y="148.181" style="fill:#010002;" width="53.081" height="53.213"/>
		</g>
		<g>
			<polygon style="fill:#010002;" points="262.99,271.367 212.248,271.367 211.895,271.701 211.895,323.351 262.99,323.351 			"/>
		</g>
		<g>
			<rect x="148.128" y="86.179" style="fill:#010002;" width="52.831" height="51.094"/>
		</g>
		<g>
			<rect x="88.733" y="212.325" style="fill:#010002;" width="48.481" height="48.111"/>
		</g>
		<g>
			<rect x="148.128" y="24.721" style="fill:#010002;" width="52.831" height="50.527"/>
		</g>
		<g>
			<rect x="148.128" y="212.325" style="fill:#010002;" width="52.831" height="48.111"/>
		</g>
		<g>
			<polygon style="fill:#010002;" points="148.128,155.861 148.128,195.898 168.146,175.879 			"/>
		</g>
		<g>
			<rect x="88.733" y="148.181" style="fill:#010002;" width="48.481" height="53.213"/>
		</g>
		<g>
			<polygon style="fill:#010002;" points="88.733,96.46 88.733,129.541 105.273,113.001 			"/>
		</g>
		<g>
			<rect x="88.733" y="24.721" style="fill:#010002;" width="48.481" height="50.527"/>
		</g>
		<g>
			<rect x="148.128" y="271.367" style="fill:#010002;" width="52.831" height="51.989"/>
		</g>
		<g>
			<path style="fill:#010002;" d="M0,0v348.065h348.065V0H0z M338.387,338.387H9.684V9.684h328.703
				C338.387,9.684,338.387,338.387,338.387,338.387z"/>
		</g>
	</g>
</g>
<g>
</g>
<g>
</g>
<g>
</g>
<g>
</g>
<g>
</g>
<g>
</g>
<g>
</g>
<g>
</g>
<g>
</g>
<g>
</g>
<g>
</g>
<g>
</g>
<g>
</g>
<g>
</g>
<g>
</g>
</svg>
