<?xml version="1.0" encoding="iso-8859-1"?>
<!-- Generator: Adobe Illustrator 18.1.1, SVG Export Plug-In . SVG Version: 6.00 Build 0)  -->
<svg version="1.1" id="Capa_1" xmlns="http://www.w3.org/2000/svg" xmlns:xlink="http://www.w3.org/1999/xlink" x="0px" y="0px"
	 viewBox="0 0 295.798 295.798" style="enable-background:new 0 0 295.798 295.798;" xml:space="preserve">
<g>
	<g>
		<g>
			<path style="fill:#010002;" d="M149.803,120.769c7.49,0,13.565,6.081,13.565,13.565c0,7.49-6.07,13.565-13.565,13.565
				c-7.495,0-13.565-6.075-13.565-13.565C136.238,126.844,142.313,120.769,149.803,120.769z"/>
		</g>
		<g>
			<path style="fill:#010002;" d="M79.579,152.071c-8.893,0-21.718,28.343-29.491,56.583h60.782
				c-2.964-11.607-11.204-38.487-27.005-54.287C82.347,152.838,80.901,152.071,79.579,152.071z"/>
		</g>
		<g>
			<path style="fill:#010002;" d="M141.889,177.711c-0.413,0-0.832,0.06-1.267,0.169c-7.985,2.034-14.892,18.139-18.411,30.769
				h39.537C156.623,195.469,149.319,177.711,141.889,177.711z"/>
		</g>
		<g>
			<path style="fill:#010002;" d="M260.102,62.886c-1.746-7.468-6.625-12.553-12.439-12.553H219.45
				c-5.782,0-10.617,5.02-12.396,12.401h-39.923l-19.33-22.311H81.706L57.899,62.734H39.156C17.557,62.734,0,80.297,0,101.885
				v114.329c0,21.593,17.563,39.161,39.156,39.161h217.492c21.593,0,39.15-17.568,39.15-39.161V101.885
				C295.798,81.466,280.085,64.632,260.102,62.886z M249.332,114.704c4.906,0,8.887,3.981,8.887,8.898
				c0,4.901-3.976,8.887-8.887,8.887c-4.911,0-8.904-3.981-8.904-8.887C240.434,118.686,244.421,114.704,249.332,114.704z
				 M222.115,114.704c4.901,0,8.893,3.981,8.893,8.898c0,4.901-3.987,8.887-8.893,8.887c-4.917,0-8.898-3.981-8.898-8.887
				C213.217,118.686,217.193,114.704,222.115,114.704z M188.219,213.984H31.71V106.171h156.509V213.984z M237.431,213.984
				c-18.308,0-33.2-14.887-33.2-33.2s14.892-33.205,33.2-33.205c18.302,0,33.195,14.898,33.195,33.205
				S255.734,213.984,237.431,213.984z"/>
		</g>
		<g>
			<path style="fill:#010002;" d="M219.852,187.408l-6.614-6.619l6.614-6.619V187.408z M237.693,204.89l-6.619-6.608h13.239
				L237.693,204.89z M231.073,162.606l6.619-6.619l6.619,6.619H231.073z M255.527,187.408V174.17l6.619,6.619L255.527,187.408z"/>
		</g>
	</g>
</g>
<g>
</g>
<g>
</g>
<g>
</g>
<g>
</g>
<g>
</g>
<g>
</g>
<g>
</g>
<g>
</g>
<g>
</g>
<g>
</g>
<g>
</g>
<g>
</g>
<g>
</g>
<g>
</g>
<g>
</g>
</svg>
