<?xml version="1.0" encoding="iso-8859-1"?>
<!-- Generator: Adobe Illustrator 16.0.0, SVG Export Plug-In . SVG Version: 6.00 Build 0)  -->
<!DOCTYPE svg PUBLIC "-//W3C//DTD SVG 1.1//EN" "http://www.w3.org/Graphics/SVG/1.1/DTD/svg11.dtd">
<svg version="1.1" id="Capa_1" xmlns="http://www.w3.org/2000/svg" xmlns:xlink="http://www.w3.org/1999/xlink" x="0px" y="0px"
	 width="350.7px" height="350.699px" viewBox="0 0 350.7 350.699" style="enable-background:new 0 0 350.7 350.699;"
	 xml:space="preserve">
<g>
	<g>
		<g>
			<polygon points="129.638,191.367 117.352,179.087 0,179.087 0,238.649 176.917,238.649 164.63,226.363 			"/>
		</g>
	</g>
	<g>
		<g>
			<polygon points="216.725,226.363 229.023,238.649 299.351,238.649 299.351,179.087 169.447,179.087 181.732,191.367 			"/>
		</g>
	</g>
	<g>
		<g>
			<path d="M306.707,238.649h36.834v-59.562h-36.834V238.649z"/>
		</g>
	</g>
	<g>
		<g>
			<path d="M310.88,103.727c9.716,8.197,14.424,16.51,13.961,24.725c-0.708,12.679-13.57,21.416-13.709,21.497l3.405,5.116
				c0.643-0.427,15.534-10.467,16.429-26.232c0.589-10.25-4.852-20.281-16.141-29.799c-9.74-8.208-14.453-16.522-13.974-24.719
				c0.715-12.634,13.56-21.329,13.691-21.41l-3.387-5.122c-0.637,0.412-15.505,10.418-16.429,26.139
				C294.121,84.167,299.555,94.194,310.88,103.727z"/>
		</g>
	</g>
	<g>
		<g>
			<path d="M323.821,72.226c2.246,13.22,14.868,20.207,15.408,20.495l2.925-5.392c-0.103-0.057-10.521-5.819-12.274-16.129
				c-1.213-7.083,1.939-14.838,9.38-23.047c9.445-10.403,13.066-19.578,10.772-27.271c-2.979-9.95-14.634-13.072-15.12-13.201
				l-1.537,5.953c0.084,0.024,8.814,2.453,10.772,9.008c1.609,5.416-1.663,12.814-9.428,21.392
				C325.953,53.698,322.278,63.191,323.821,72.226z"/>
		</g>
	</g>
	<path d="M309.271,334.341l-8.671,8.678L35.756,78.186l8.683-8.683L309.271,334.341z"/>
</g>
<g>
</g>
<g>
</g>
<g>
</g>
<g>
</g>
<g>
</g>
<g>
</g>
<g>
</g>
<g>
</g>
<g>
</g>
<g>
</g>
<g>
</g>
<g>
</g>
<g>
</g>
<g>
</g>
<g>
</g>
</svg>
