<?xml version="1.0" encoding="iso-8859-1"?>
<!-- Generator: Adobe Illustrator 16.0.0, SVG Export Plug-In . SVG Version: 6.00 Build 0)  -->
<!DOCTYPE svg PUBLIC "-//W3C//DTD SVG 1.1//EN" "http://www.w3.org/Graphics/SVG/1.1/DTD/svg11.dtd">
<svg version="1.1" id="Capa_1" xmlns="http://www.w3.org/2000/svg" xmlns:xlink="http://www.w3.org/1999/xlink" x="0px" y="0px"
	 width="350.158px" height="350.158px" viewBox="0 0 350.158 350.158" style="enable-background:new 0 0 350.158 350.158;"
	 xml:space="preserve">
<g>
	<g>
		<path d="M282.531,150.841c-16.213-24.037-39.05-40.085-66.39-46.991c3.411,0.036,6.828-0.036,10.137-0.177
			c13.45-0.51,42.897-7.397,52.001,5.692c1.735,2.51,11.115-1.672,10.377-2.759c-6.738-9.686-21.702-8.413-32.084-8.179
			c-13.036,0.312-28.223,2.987-41.896,1.057c5.254-0.528,10.473-1.396,15.744-2.834c15.145-4.125,25.232-17.606,41.979-17.543
			c1.838-0.43,6.533-7.497,3.711-7.533c-9.787-0.018-17.689,2.207-26.145,7.095c-4.876,2.816-9.319,6.506-14.027,9.581
			c-9.716,6.266-21.953,6.518-33.555,6.278c20.633-28.673,38.407-71.547,31.64-87.463c-3.267-7.611-11.313-9.488-21.84-3.585
			c-11.271,6.323-23.977,7.182-34.899,7.182c-4.579,0-9.179-0.177-13.718-0.33c-4.582-0.18-9.136-0.357-13.601-0.357
			c-14.679,0-31.408,1.723-44.228,14.562c-10.016,10.409,3.432,52.929,43.018,77.876C78.707,112.821,57.942,159.737,47.395,205.73
			c-8.608,37.476-0.742,75.036,21.566,103.048c21.257,26.686,70.073,41.38,106.117,41.38c84.61,0,116.832-35.194,127.341-85.833
			C311.432,225.072,303.992,182.648,282.531,150.841z M159.177,22.248c4.324,0,8.749,0.153,13.208,0.312
			c4.681,0.198,9.389,0.357,14.105,0.357c7.05,0,15.349-0.381,23.803-2.348c-5.344,3.174-10.616,6.75-15.756,10.311
			c-24.914,17.09-44.595,30.592-69.008,0.18C135.116,23.44,147.291,22.248,159.177,22.248z M179.314,280.767l-0.012,19.354h-11.728
			v-18.604c-10.785-0.191-21.765-3.543-28.276-8.178l4.482-12.467c6.497,4.288,16.165,8.011,26.592,8.011
			c13.189,0,20.962-7.632,20.939-18.242c0-10.221-6.06-16.531-19.843-22.146c-18.945-7.435-30.667-16.165-30.667-32.354
			c0-15.444,10.959-27.145,27.886-29.961v-18.611h11.727l-0.023,18.065c10.991,0.375,18.605,3.362,24.196,6.518l-4.66,12.28
			c-3.896-2.233-11.505-6.507-23.431-6.507c-14.327,0-18.513,8.561-18.513,16.187c0,9.464,5.675,14.304,21.857,21.173
			c19.155,7.824,28.829,17.312,28.829,33.855C208.684,264.031,198.476,277.794,179.314,280.767z"/>
	</g>
</g>
<g>
</g>
<g>
</g>
<g>
</g>
<g>
</g>
<g>
</g>
<g>
</g>
<g>
</g>
<g>
</g>
<g>
</g>
<g>
</g>
<g>
</g>
<g>
</g>
<g>
</g>
<g>
</g>
<g>
</g>
</svg>
