<?xml version="1.0" encoding="iso-8859-1"?>
<!-- Generator: Adobe Illustrator 18.1.1, SVG Export Plug-In . SVG Version: 6.00 Build 0)  -->
<svg version="1.1" id="Capa_1" xmlns="http://www.w3.org/2000/svg" xmlns:xlink="http://www.w3.org/1999/xlink" x="0px" y="0px"
	 viewBox="0 0 464.418 464.418" style="enable-background:new 0 0 464.418 464.418;" xml:space="preserve">
<g>
	<g>
		<g>
			<path style="fill:#010002;" d="M453.514,70.247C453.514,30.872,392.387,0,314.385,0c-77.75,0-138.698,30.669-139.088,69.865
				c27.621,0.78,52.819,5.43,73.604,12.973l7.486-2.512c-7.616-3.04-13.16-6.714-14.745-9.949l-0.723-1.471l16.94-2.691l0.398,0.675
				c2.089,3.43,7.836,6.966,15.371,9.502c5.649,1.91,11.998,2.91,18.289,2.91c5.397,0,10.445-0.748,14.623-2.138
				c4.731-1.593,5.926-3.056,6.096-4.032c0.219-1.414-1.268-3.43-4.503-6.023c-6.519-5.023-9.153-8.803-8.584-12.266
				c0.545-3.26,3.853-5.82,10.388-8.007c6.942-2.341,15.623-3.577,25.077-3.577c8.405,0,17.046,0.992,24.947,2.886l16.046-5.422
				l13.835,4.65l-15.729,5.292c5.991,2.463,10.128,5.097,12.567,8.039l1.341,1.642l-17.314,2.609l-0.447-0.52
				c-1.292-1.593-3.959-4.902-13.989-8.283c-5.251-1.764-10.624-2.666-15.965-2.666c-5.942,0-10.396,1.097-13.111,1.992
				c-3.056,1.04-4.723,2.089-4.918,3.13c-0.325,1.821,3.211,4.999,5.926,7.267c5.495,4.406,7.812,8.007,7.234,11.299
				c-0.618,3.536-4.422,6.34-11.965,8.852c-13.607,4.601-35.27,4.999-52.73,0.772l-9.38,3.146
				c27.637,12.762,44.829,31.149,44.829,51.966v0.285c2.739,0.089,5.422,0.301,8.21,0.301c55.25,0,104.355-15.818,126.586-40.545
				v18.509c0,21.614,0,72.312-125.643,72.312c-3.154,0-6.17-0.065-9.153-0.13c-0.024,2.032-0.049,4.276-0.195,6.852h0.195v5.56
				c3.089,0.057,5.966,0.244,9.153,0.244c63.98,0,106.216-13.282,125.643-39.497v13.404c0,21.646,0,72.312-125.643,72.312
				c-3.154,0-6.17-0.065-9.153-0.13c-0.024,2.04-0.049,4.292-0.195,6.885h0.195v5.56c3.089,0.065,5.966,0.244,9.153,0.244
				c63.98,0,106.216-13.282,125.643-39.497v13.404c0,21.646,0,72.312-125.643,72.312c-3.154,0-6.17-0.065-9.177-0.13
				c-0.024,3.284-0.098,7.088-0.593,11.478h0.618v0.959c3.089,0.065,5.966,0.244,9.153,0.244c63.98,0,106.216-13.282,125.643-39.497
				v18.037c0,22.362,0,74.693-125.643,74.693c-3.154,0-6.17-0.065-9.177-0.122c-0.073,3.69-0.293,7.95-0.967,12.534
				c3.308,0.073,6.665,0.154,10.144,0.154c138.186,0,138.186-63.411,138.186-87.26v-49.397h-0.626
				c0.626-5.503,0.626-10.372,0.626-14.006V186.6h-0.195c0.195-3.682,0.195-6.966,0.195-9.405v-49.357h-0.195
				c0.195-3.682,0.195-6.942,0.195-9.38V70.247H453.514z"/>
		</g>
		<g>
			<path style="fill:#010002;" d="M150.017,77.758c-78.01,0-139.129,30.872-139.129,70.247v48.211c0,2.837,0.024,5.901,0.276,9.38
				h-0.276v49.373c0,2.845,0.024,5.926,0.276,9.405h-0.276v49.373c0,3.577,0,8.405,0.723,14.006h-0.723v49.405
				c0,21.565,0,87.26,140.072,87.26c138.178,0,138.178-63.411,138.178-87.26v-49.405h-0.626c0.626-5.495,0.626-10.364,0.626-14.006
				v-49.373h-0.203c0.195-3.682,0.195-6.966,0.195-9.405v-49.373h-0.195c0.195-3.682,0.195-6.942,0.195-9.38v-48.211
				C289.138,108.63,228.019,77.758,150.017,77.758z M77.25,148.135l-0.715-1.471l16.94-2.691l0.398,0.675
				c2.089,3.43,7.836,6.966,15.371,9.502c5.649,1.918,11.99,2.91,18.289,2.91c5.397,0,10.445-0.748,14.623-2.138
				c4.731-1.593,5.918-3.056,6.096-4.032c0.228-1.414-1.268-3.43-4.503-6.015c-6.519-5.023-9.153-8.803-8.584-12.266
				c0.545-3.26,3.853-5.82,10.396-8.007c6.942-2.341,15.623-3.585,25.077-3.585c8.405,0,17.038,1,24.947,2.886l16.046-5.422
				l13.835,4.65l-15.721,5.3c5.991,2.463,10.128,5.097,12.559,8.031l1.341,1.642l-17.314,2.609l-0.447-0.52
				c-1.292-1.593-3.959-4.902-13.981-8.283c-5.251-1.764-10.624-2.658-15.965-2.658c-5.942,0-10.396,1.097-13.111,1.992
				c-3.056,1.04-4.731,2.089-4.926,3.138c-0.325,1.813,3.211,4.999,5.926,7.267c5.495,4.406,7.803,8.007,7.234,11.291
				c-0.618,3.536-4.422,6.34-11.965,8.852c-13.607,4.601-35.27,4.999-52.738,0.772l-16.688,5.592l-13.81-4.65l16.143-5.422
				C84.395,155.044,78.851,151.362,77.25,148.135z M276.595,377.158c0,22.362,0,74.693-125.635,74.693
				c-127.513,0-127.513-54.283-127.513-74.693v-19.175c19.801,26.962,62.663,40.643,127.513,40.643
				c63.98,0,106.208-13.282,125.635-39.497V377.158z M276.595,313.747c0,21.638,0,72.312-125.635,72.312
				c-127.513,0-127.513-52.543-127.513-72.312v-14.526c19.801,26.962,62.663,40.618,127.513,40.618
				c63.98,0,106.208-13.282,125.635-39.497V313.747z M276.595,254.969c0,21.646,0,72.312-125.635,72.312
				c-127.513,0-127.513-52.535-127.513-72.312v-14.526c19.801,26.963,62.663,40.619,127.513,40.619
				c63.98,0,106.208-13.282,125.635-39.497V254.969z M276.595,196.216c0,21.622,0,72.312-125.635,72.312
				c-127.513,0-127.513-52.535-127.513-72.312v-18.509c22.215,24.727,71.32,40.545,126.562,40.545
				c55.25,0,104.346-15.818,126.578-40.545v18.509H276.595z"/>
		</g>
	</g>
</g>
<g>
</g>
<g>
</g>
<g>
</g>
<g>
</g>
<g>
</g>
<g>
</g>
<g>
</g>
<g>
</g>
<g>
</g>
<g>
</g>
<g>
</g>
<g>
</g>
<g>
</g>
<g>
</g>
<g>
</g>
</svg>
