<?xml version="1.0" encoding="iso-8859-1"?>
<!-- Generator: Adobe Illustrator 16.0.0, SVG Export Plug-In . SVG Version: 6.00 Build 0)  -->
<!DOCTYPE svg PUBLIC "-//W3C//DTD SVG 1.1//EN" "http://www.w3.org/Graphics/SVG/1.1/DTD/svg11.dtd">
<svg version="1.1" id="Capa_1" xmlns="http://www.w3.org/2000/svg" xmlns:xlink="http://www.w3.org/1999/xlink" x="0px" y="0px"
	 width="353.058px" height="353.058px" viewBox="0 0 353.058 353.058" style="enable-background:new 0 0 353.058 353.058;"
	 xml:space="preserve">
<g>
	<g>
		<path d="M331.741,26.613L217.896,0L0.054,217.836l135.21,135.222l217.739-217.733L331.741,26.613z M233.905,165.511l-12.635,5.698
			c-1.248-4.579-3.746-13.478-12.646-22.356c-10.688-10.707-20.225-7.434-25.923-1.765c-7.059,7.098-6.437,14.942,0.528,32.18
			c8.449,20.151,8.581,34.443-3.78,46.802c-11.093,11.12-29.024,13.763-45.558,1.681l-14.444,14.447l-8.749-8.755l13.892-13.883
			c-7.902-8.215-13.583-18.921-14.985-27.238l12.64-5.986c1.642,8.07,6.106,18.068,13.886,25.863
			c9.857,9.848,21.347,9.932,29.256,1.999c7.632-7.632,7.821-16.874,1.708-31.321c-8.584-19.731-10.82-35.002,1.261-47.083
			c11.541-11.542,28.462-12.1,43.186-1.55l13.913-13.883l8.749,8.749l-13.499,13.478
			C228.645,151.066,232.104,158.998,233.905,165.511z M282.483,91.048c-7.541,7.527-19.707,7.527-27.226,0
			c-7.512-7.527-7.512-19.714,0-27.241c7.519-7.5,19.685-7.527,27.226,0C290.014,71.334,290.014,83.521,282.483,91.048z"/>
	</g>
</g>
<g>
</g>
<g>
</g>
<g>
</g>
<g>
</g>
<g>
</g>
<g>
</g>
<g>
</g>
<g>
</g>
<g>
</g>
<g>
</g>
<g>
</g>
<g>
</g>
<g>
</g>
<g>
</g>
<g>
</g>
</svg>
