<?xml version="1.0" encoding="iso-8859-1"?>
<!-- Generator: Adobe Illustrator 16.0.0, SVG Export Plug-In . SVG Version: 6.00 Build 0)  -->
<!DOCTYPE svg PUBLIC "-//W3C//DTD SVG 1.1//EN" "http://www.w3.org/Graphics/SVG/1.1/DTD/svg11.dtd">
<svg version="1.1" id="Capa_1" xmlns="http://www.w3.org/2000/svg" xmlns:xlink="http://www.w3.org/1999/xlink" x="0px" y="0px"
	 width="368.046px" height="368.045px" viewBox="0 0 368.046 368.045" style="enable-background:new 0 0 368.046 368.045;"
	 xml:space="preserve">
<g>
	<g>
		<g>
			<path d="M0,145.743l11.908,40.016c10.394,3.867,21.912,1.573,29.997-5.533v-44.24c-0.769-0.7-1.538-1.408-2.393-2.018L0,145.743z
				"/>
		</g>
		<g>
			<path d="M52.873,271.039v41.205h41.58c3.645-5.032,5.674-11.013,5.674-17.33c0-7.962-3.092-15.408-8.695-21.028
				C80.924,263.388,64.489,262.5,52.873,271.039z"/>
		</g>
		<g>
			<path d="M316.429,104.084c-4.443,4.519-9.812,7.884-15.732,9.646c-9.091,2.711-19.216,1.958-28.187-2.906
				c-8.707-4.711-15.06-12.514-17.87-22.008c-1.85-6.212-1.897-12.613-0.469-18.762L47.874,131.49
				c0.528,0.511,0.943,1.138,1.432,1.685H325.1L316.429,104.084z"/>
		</g>
		<g>
			<path d="M275.992,104.384c13.187,7.14,29.328,3.156,37.98-8.584l-11.919-40.01l-39.512,11.775
				c-2.384,6.119-2.798,12.767-0.889,19.158C263.917,94.344,269.003,100.61,275.992,104.384z"/>
		</g>
		<g>
			<path d="M14.376,194.057l19.398,65.116c2.423-2.414,5.215-4.27,8.13-5.867v-64.113c-2.861,1.802-5.861,3.363-9.083,4.312
				C26.908,195.27,20.566,195.39,14.376,194.057z"/>
		</g>
		<g>
			<path d="M36.209,267.375l5.689,19.071v-24.536C39.812,263.46,37.846,265.213,36.209,267.375z"/>
		</g>
		<g>
			<path d="M52.873,185.891c11.64,8.791,28.25,7.992,38.842-2.604c5.621-5.621,8.695-13.079,8.695-21.017
				c0-6.666-2.288-12.932-6.314-18.114H52.866v41.734H52.873z"/>
		</g>
		<g>
			<path d="M326.805,144.151c-4.022,5.183-6.316,11.448-6.316,18.114c0,7.938,3.099,15.396,8.695,21.017
				c10.61,10.602,27.213,11.4,38.851,2.597v-41.733h-41.229V144.151z"/>
		</g>
		<g>
			<path d="M328.895,273.885c-5.62,5.62-8.707,13.066-8.707,21.028c0,6.317,2.042,12.298,5.681,17.33h42.166v-40.73
				C356.391,262.5,339.59,263.196,328.895,273.885z"/>
		</g>
		<g>
			<path d="M324.019,188.455c-7.001-6.986-10.845-16.288-10.845-26.184c-0.012-6.474,1.796-12.628,4.9-18.114H102.826
				c3.11,5.492,4.921,11.64,4.921,18.114c0,9.896-3.855,19.197-10.854,26.184c-7.227,7.218-16.699,10.845-26.196,10.845
				c-6.167,0-12.277-1.688-17.819-4.762v67.938c14.033-7.554,31.895-5.572,43.727,6.239c6.996,7.008,10.838,16.304,10.838,26.188
				c0.012,6.185-1.654,12.058-4.482,17.354h214.404c-2.834-5.296-4.491-11.169-4.491-17.354c0-9.872,3.855-19.18,10.856-26.188
				c11.992-11.979,30.192-13.864,44.315-5.927v-68.25c-5.548,3.074-11.661,4.762-17.834,4.762
				C340.712,199.293,331.225,195.672,324.019,188.455z M210.462,278.707c-27.859,0-50.53-22.656-50.53-50.513
				c0-27.855,22.677-50.533,50.53-50.533c27.856,0,50.519,22.678,50.519,50.533C260.98,256.05,238.318,278.707,210.462,278.707z"/>
		</g>
		<g>
			<path d="M213.026,255.787v9.403h-5.681l-0.012-9.025c-5.236-0.114-10.545-1.724-13.703-3.981l2.168-6.034
				c3.152,2.09,7.848,3.873,12.904,3.873c6.4,0,10.154-3.688,10.154-8.84c0-4.947-2.949-8.021-9.626-10.725
				c-9.188-3.626-14.868-7.859-14.868-15.708c0-7.481,5.309-13.175,13.523-14.52v-9.02h5.692l-0.013,8.755
				c5.333,0.168,9.031,1.615,11.728,3.152l-2.252,5.951c-1.897-1.074-5.584-3.158-11.373-3.158c-6.936,0-8.977,4.155-8.977,7.854
				c0.006,4.6,2.756,6.929,10.61,10.28c9.295,3.795,13.979,8.383,13.979,16.423C227.275,247.686,222.31,254.351,213.026,255.787z"/>
		</g>
	</g>
</g>
<g>
</g>
<g>
</g>
<g>
</g>
<g>
</g>
<g>
</g>
<g>
</g>
<g>
</g>
<g>
</g>
<g>
</g>
<g>
</g>
<g>
</g>
<g>
</g>
<g>
</g>
<g>
</g>
<g>
</g>
</svg>
