<?xml version="1.0" encoding="iso-8859-1"?>
<!-- Generator: Adobe Illustrator 18.1.1, SVG Export Plug-In . SVG Version: 6.00 Build 0)  -->
<svg version="1.1" id="Capa_1" xmlns="http://www.w3.org/2000/svg" xmlns:xlink="http://www.w3.org/1999/xlink" x="0px" y="0px"
	 viewBox="0 0 323.962 323.962" style="enable-background:new 0 0 323.962 323.962;" xml:space="preserve">
<g>
	<g>
		<path style="fill:#010002;" d="M161.981,0.014C72.688,0.014,0,72.674,0,161.994c0,89.293,72.688,161.954,161.981,161.954
			c89.32,0,161.981-72.66,161.981-161.954C323.962,72.674,251.301,0.014,161.981,0.014z M168.997,237.467v25.64h-15.545v-24.639
			c-14.278-0.272-28.86-4.727-37.47-10.884l5.912-16.486c8.61,5.668,21.457,10.574,35.278,10.574
			c17.487,0,27.777-10.089,27.745-24.182c0.033-13.549-8.017-21.941-26.287-29.344c-25.134-9.877-40.679-21.457-40.679-42.92
			c0-20.462,14.517-35.979,36.98-39.705V60.85h15.539v23.97c14.549,0.462,24.65,4.427,32.047,8.61l-6.157,16.279
			c-5.183-2.943-15.278-8.637-31.068-8.637c-19.004,0-24.563,11.362-24.563,21.457c0,12.581,7.533,18.977,29.012,28.098
			c25.4,10.394,38.22,22.975,38.22,44.921C207.974,215.243,194.403,233.518,168.997,237.467z"/>
	</g>
</g>
<g>
</g>
<g>
</g>
<g>
</g>
<g>
</g>
<g>
</g>
<g>
</g>
<g>
</g>
<g>
</g>
<g>
</g>
<g>
</g>
<g>
</g>
<g>
</g>
<g>
</g>
<g>
</g>
<g>
</g>
</svg>
