<?xml version="1.0" encoding="iso-8859-1"?>
<!-- Generator: Adobe Illustrator 18.1.1, SVG Export Plug-In . SVG Version: 6.00 Build 0)  -->
<svg version="1.1" id="Capa_1" xmlns="http://www.w3.org/2000/svg" xmlns:xlink="http://www.w3.org/1999/xlink" x="0px" y="0px"
	 viewBox="0 0 305.866 305.866" style="enable-background:new 0 0 305.866 305.866;" xml:space="preserve">
<g>
	<g>
		<path style="fill:#010002;" d="M248.353,118.406c-13.266-23.693-39.401-37.285-67.423-32.808
			c-11.003-23.094-34.01-37.758-59.89-37.758c-36.627,0-66.427,29.801-66.427,66.444c0,1.507,0.06,3.062,0.196,4.688
			C23.187,126.173,0,154.717,0,187.591c0,38.829,31.601,70.436,70.447,70.436h52.193h3.492h109.287
			c38.851,0,70.447-31.612,70.447-70.436C305.86,153.776,281.341,124.557,248.353,118.406z M195.882,215.232l-33.195,33.195
			c-2.54,2.545-6.065,3.992-9.665,3.992l-1.327-0.049c-3.209-0.256-6.201-1.632-8.518-3.927l-33.211-33.216
			c-2.584-2.578-4.009-6.016-4.009-9.671c0-3.655,1.425-7.087,4.014-9.665c5.145-5.162,14.169-5.173,19.33,0.005l10.041,10.041
			v-72.992c0-7.544,6.135-13.679,13.679-13.679c7.539,0,13.679,6.135,13.679,13.679v72.796l9.845-9.845
			c5.162-5.178,14.174-5.178,19.341,0c2.584,2.578,4.009,6.005,4.009,9.66C199.896,209.211,198.471,212.648,195.882,215.232z"/>
	</g>
</g>
<g>
</g>
<g>
</g>
<g>
</g>
<g>
</g>
<g>
</g>
<g>
</g>
<g>
</g>
<g>
</g>
<g>
</g>
<g>
</g>
<g>
</g>
<g>
</g>
<g>
</g>
<g>
</g>
<g>
</g>
</svg>
