<?xml version="1.0" encoding="iso-8859-1"?>
<!-- Generator: Adobe Illustrator 16.0.0, SVG Export Plug-In . SVG Version: 6.00 Build 0)  -->
<!DOCTYPE svg PUBLIC "-//W3C//DTD SVG 1.1//EN" "http://www.w3.org/Graphics/SVG/1.1/DTD/svg11.dtd">
<svg version="1.1" id="Capa_1" xmlns="http://www.w3.org/2000/svg" xmlns:xlink="http://www.w3.org/1999/xlink" x="0px" y="0px"
	 width="336.959px" height="336.959px" viewBox="0 0 336.959 336.959" style="enable-background:new 0 0 336.959 336.959;"
	 xml:space="preserve">
<g>
	<g>
		<g>
			<path d="M262.584,175.796c-8.785,0-15.919,7.146-15.919,15.913c0,8.772,7.134,15.912,15.919,15.912h42.574v86.83H31.808v-86.83
				h45.669c8.785,0,15.925-7.14,15.925-15.912c0-8.768-7.14-15.913-15.925-15.913H0v150.475h336.959V175.796H262.584z"/>
		</g>
		<g>
			<path d="M156.224,259.599c3.222,3.255,7.527,5.032,12.127,5.032c0.036,0,0.087,0,0.123-0.006
				c0.036,0.006,0.087,0.006,0.123,0.006c4.507,0,8.917-1.813,12.105-5.002l41.584-41.583c3.236-3.243,5.02-7.536,5.02-12.118
				c0-4.575-1.783-8.887-5.032-12.117c-6.467-6.474-17.726-6.474-24.211,0.006l-12.334,12.334V27.826
				c0-9.452-7.687-17.138-17.132-17.138s-17.138,7.686-17.138,17.138v178.576l-12.586-12.592c-6.47-6.474-17.741-6.474-24.208,0
				c-3.239,3.23-5.029,7.542-5.029,12.117c0,4.582,1.79,8.869,5.023,12.118L156.224,259.599z"/>
		</g>
	</g>
</g>
<g>
</g>
<g>
</g>
<g>
</g>
<g>
</g>
<g>
</g>
<g>
</g>
<g>
</g>
<g>
</g>
<g>
</g>
<g>
</g>
<g>
</g>
<g>
</g>
<g>
</g>
<g>
</g>
<g>
</g>
</svg>
