<?xml version="1.0" encoding="iso-8859-1"?>
<!-- Generator: Adobe Illustrator 18.1.1, SVG Export Plug-In . SVG Version: 6.00 Build 0)  -->
<svg version="1.1" id="Capa_1" xmlns="http://www.w3.org/2000/svg" xmlns:xlink="http://www.w3.org/1999/xlink" x="0px" y="0px"
	 viewBox="0 0 318.454 318.454" style="enable-background:new 0 0 318.454 318.454;" xml:space="preserve">
<g>
	<g>
		<g>
			<path style="fill:#010002;" d="M312.169,256.07l-50.241-50.279c-3.927-3.905-9.377-6.054-15.354-6.054
				c-6.309,0-12.379,2.458-16.676,6.755l-27.168,27.163l-7.343-4.068c-16.143-8.953-38.258-21.229-61.619-44.617
				c-23.448-23.421-35.729-45.59-44.715-61.799l-4.009-7.136l27.201-27.201c9.002-9.029,9.306-23.393,0.68-32.042L62.662,6.542
				c-3.905-3.905-9.361-6.065-15.333-6.065c-6.298,0-12.374,2.464-16.676,6.772L18.307,19.661l-1.153,1.893
				c-4.596,5.891-8.36,12.521-11.166,19.733c-2.611,6.88-4.242,13.413-4.993,19.967C-5.489,115.111,19.351,164.557,86.73,231.92
				c79.856,79.851,146.588,86.057,165.141,86.057c3.182,0,5.102-0.174,5.635-0.228c6.864-0.832,13.418-2.486,20.038-5.053
				c7.142-2.785,13.75-6.516,19.619-11.112l2.812-2.208l11.547-11.324C320.507,279.055,320.795,264.707,312.169,256.07z"/>
		</g>
		<g>
			<polygon style="fill:#010002;" points="229.484,115.339 278.022,66.812 258.969,47.732 210.42,96.275 161.893,47.737 
				142.823,66.806 191.351,115.339 142.813,163.877 161.904,182.925 210.42,134.409 258.942,182.925 278.033,163.877 			"/>
		</g>
	</g>
</g>
<g>
</g>
<g>
</g>
<g>
</g>
<g>
</g>
<g>
</g>
<g>
</g>
<g>
</g>
<g>
</g>
<g>
</g>
<g>
</g>
<g>
</g>
<g>
</g>
<g>
</g>
<g>
</g>
<g>
</g>
</svg>
