<?xml version="1.0" encoding="iso-8859-1"?>
<!-- Generator: Adobe Illustrator 16.0.0, SVG Export Plug-In . SVG Version: 6.00 Build 0)  -->
<!DOCTYPE svg PUBLIC "-//W3C//DTD SVG 1.1//EN" "http://www.w3.org/Graphics/SVG/1.1/DTD/svg11.dtd">
<svg version="1.1" id="Capa_1" xmlns="http://www.w3.org/2000/svg" xmlns:xlink="http://www.w3.org/1999/xlink" x="0px" y="0px"
	 width="350.488px" height="350.487px" viewBox="0 0 350.488 350.487" style="enable-background:new 0 0 350.488 350.487;"
	 xml:space="preserve">
<g>
	<g>
		<path d="M345.348,2.566h-5.134H10.274h-5.14H0v345.354h350.488V2.566H345.348z M67.951,19.305v43.367H21.873V19.305H67.951z
			 M67.951,84.544v43.964H21.873V84.544H67.951z M67.951,150.369v46.225H21.873v-46.225H67.951z M67.951,218.451v40.809H21.873
			v-40.809H67.951z M67.951,281.129v44.916H21.873v-44.916H67.951z M328.607,19.305v43.367H89.811V19.305H328.607z M328.607,84.544
			v43.964H89.811V84.544H328.607z M328.607,150.369v46.225H89.811v-46.225H328.607z M328.607,218.451v40.809H89.811v-40.809H328.607
			z M328.607,281.129v44.916H89.811v-44.916H328.607z"/>
	</g>
</g>
<g>
</g>
<g>
</g>
<g>
</g>
<g>
</g>
<g>
</g>
<g>
</g>
<g>
</g>
<g>
</g>
<g>
</g>
<g>
</g>
<g>
</g>
<g>
</g>
<g>
</g>
<g>
</g>
<g>
</g>
</svg>
