<?xml version="1.0" encoding="iso-8859-1"?>
<!-- Generator: Adobe Illustrator 18.1.1, SVG Export Plug-In . SVG Version: 6.00 Build 0)  -->
<svg version="1.1" id="Capa_1" xmlns="http://www.w3.org/2000/svg" xmlns:xlink="http://www.w3.org/1999/xlink" x="0px" y="0px"
	 viewBox="0 0 304.751 304.751" style="enable-background:new 0 0 304.751 304.751;" xml:space="preserve">
<g>
	<g>
		<polygon style="fill:#010002;" points="278.241,181.322 278.241,259.492 171.113,152.375 278.105,45.389 278.105,123.543 
			304.604,123.543 304.615,0.136 181.208,0.141 181.202,26.635 259.356,26.646 152.37,133.627 45.253,26.515 123.407,26.515 
			123.407,0 0,0 0,123.401 26.515,123.429 26.515,45.253 133.632,152.375 26.646,259.362 26.646,181.208 0.136,181.208 
			0.136,304.626 123.532,304.604 123.548,278.11 45.389,278.11 152.375,171.124 259.492,278.241 181.338,278.241 181.338,304.751 
			304.751,304.751 304.751,181.349 		"/>
	</g>
</g>
<g>
</g>
<g>
</g>
<g>
</g>
<g>
</g>
<g>
</g>
<g>
</g>
<g>
</g>
<g>
</g>
<g>
</g>
<g>
</g>
<g>
</g>
<g>
</g>
<g>
</g>
<g>
</g>
<g>
</g>
</svg>
