<?xml version="1.0" encoding="iso-8859-1"?>
<!-- Generator: Adobe Illustrator 18.1.1, SVG Export Plug-In . SVG Version: 6.00 Build 0)  -->
<svg version="1.1" id="Capa_1" xmlns="http://www.w3.org/2000/svg" xmlns:xlink="http://www.w3.org/1999/xlink" x="0px" y="0px"
	 viewBox="0 0 473.628 473.628" style="enable-background:new 0 0 473.628 473.628;" xml:space="preserve">
<g>
	<g>
		<g>
			<path style="fill:#010002;" d="M469.441,231.941c-4.235-4.958-105.314-121.213-232.615-121.213
				c-127.326,0-228.405,116.255-232.64,121.213L0,236.826l4.186,4.885C8.446,246.645,109.5,362.9,236.826,362.9
				c127.302,0,228.372-116.255,232.615-121.189l4.186-4.885L469.441,231.941z M236.826,276.144
				c-21.72,0-39.342-17.615-39.342-39.334c0-21.695,17.615-39.318,39.342-39.318s39.31,17.615,39.31,39.318
				C276.144,258.529,258.554,276.144,236.826,276.144z"/>
		</g>
	</g>
</g>
<g>
</g>
<g>
</g>
<g>
</g>
<g>
</g>
<g>
</g>
<g>
</g>
<g>
</g>
<g>
</g>
<g>
</g>
<g>
</g>
<g>
</g>
<g>
</g>
<g>
</g>
<g>
</g>
<g>
</g>
</svg>
