<?xml version="1.0" encoding="iso-8859-1"?>
<!-- Generator: Adobe Illustrator 18.1.1, SVG Export Plug-In . SVG Version: 6.00 Build 0)  -->
<svg version="1.1" id="Capa_1" xmlns="http://www.w3.org/2000/svg" xmlns:xlink="http://www.w3.org/1999/xlink" x="0px" y="0px"
	 viewBox="0 0 489.877 489.877" style="enable-background:new 0 0 489.877 489.877;" xml:space="preserve">
<g>
	<g>
		<path style="fill:#010002;" d="M244.93,212.014c-18.143,0-32.896,14.778-32.896,32.921c0,18.135,14.753,32.929,32.896,32.929
			s32.921-14.786,32.921-32.929S263.065,212.014,244.93,212.014z"/>
	</g>
	<g>
		<path style="fill:#010002;" d="M244.93,114.536c-131.683,0-236.216,120.238-240.598,125.351L0,244.934l4.324,5.056
			c4.381,5.129,108.915,125.351,240.598,125.351c131.691,0,236.216-120.222,240.622-125.351l4.333-5.056l-4.324-5.056
			C481.171,234.774,376.613,114.536,244.93,114.536z M244.93,293.364c-26.719,0-48.43-21.72-48.43-48.43
			c0-26.719,21.72-48.43,48.43-48.43s48.454,21.711,48.454,48.43C293.385,271.645,271.641,293.364,244.93,293.364z"/>
	</g>
</g>
<g>
</g>
<g>
</g>
<g>
</g>
<g>
</g>
<g>
</g>
<g>
</g>
<g>
</g>
<g>
</g>
<g>
</g>
<g>
</g>
<g>
</g>
<g>
</g>
<g>
</g>
<g>
</g>
<g>
</g>
</svg>
