<?xml version="1.0" encoding="iso-8859-1"?>
<!-- Generator: Adobe Illustrator 16.0.0, SVG Export Plug-In . SVG Version: 6.00 Build 0)  -->
<!DOCTYPE svg PUBLIC "-//W3C//DTD SVG 1.1//EN" "http://www.w3.org/Graphics/SVG/1.1/DTD/svg11.dtd">
<svg version="1.1" id="Capa_1" xmlns="http://www.w3.org/2000/svg" xmlns:xlink="http://www.w3.org/1999/xlink" x="0px" y="0px"
	 width="344.231px" height="344.231px" viewBox="0 0 344.231 344.231" style="enable-background:new 0 0 344.231 344.231;"
	 xml:space="preserve">
<g>
	<g>
		<path d="M316.032,57.943l22.025-22.031c3.976-3.984,6.174-9.292,6.174-14.919c0-5.645-2.21-10.944-6.174-14.898
			c-7.974-7.98-21.845-8.01-29.85-0.012L286.2,28.096L264.151,6.065c-7.975-7.951-21.846-7.944-29.802,0
			c-3.993,3.984-6.216,9.283-6.216,14.928s2.21,10.953,6.197,14.931l22.002,22.02l-38.575,38.596
			c-23.376-17.074-51.65-26.36-80.923-26.36c-36.587,0-70.947,14.216-96.743,40.019C14.244,136.05,0,170.473,0,207.118
			c0,36.652,14.244,71.078,40.091,96.917c25.851,25.862,60.273,40.1,96.926,40.1c36.642,0,71.073-14.231,96.917-40.1
			c48.099-48.087,53.119-123.759,13.667-177.655L286.2,87.79l22.026,22.032c3.975,3.972,9.271,6.161,14.916,6.155
			c5.632,0.006,10.923-2.195,14.892-6.167c8.25-8.221,8.25-21.608,0.036-29.853L316.032,57.943z M137.018,302.035
			c-25.406,0.013-49.251-9.854-67.158-27.771c-37.028-37.021-37.035-97.272,0-134.307c17.906-17.9,41.757-27.769,67.158-27.769
			c25.395,0,49.239,9.869,67.146,27.769c37.05,37.034,37.025,97.28,0,134.307C186.257,292.181,162.412,302.047,137.018,302.035z"/>
	</g>
</g>
<g>
</g>
<g>
</g>
<g>
</g>
<g>
</g>
<g>
</g>
<g>
</g>
<g>
</g>
<g>
</g>
<g>
</g>
<g>
</g>
<g>
</g>
<g>
</g>
<g>
</g>
<g>
</g>
<g>
</g>
</svg>
