<?xml version="1.0" encoding="iso-8859-1"?>
<!-- Generator: Adobe Illustrator 16.0.0, SVG Export Plug-In . SVG Version: 6.00 Build 0)  -->
<!DOCTYPE svg PUBLIC "-//W3C//DTD SVG 1.1//EN" "http://www.w3.org/Graphics/SVG/1.1/DTD/svg11.dtd">
<svg version="1.1" id="Capa_1" xmlns="http://www.w3.org/2000/svg" xmlns:xlink="http://www.w3.org/1999/xlink" x="0px" y="0px"
	 width="338.743px" height="338.743px" viewBox="0 0 338.743 338.743" style="enable-background:new 0 0 338.743 338.743;"
	 xml:space="preserve">
<g>
	<g>
		<g>
			<path d="M330.612,248.215l-0.349,1.285c-2.918,10.809-11.649,19.636-24.596,24.842c-7.338,2.942-15.414,4.51-23.353,4.51
				c-9.025,0-17.396-2.072-23.562-5.789c-19.533-12.195-23.521-33.171-26.409-57.286c-0.631-5.752-1.171-11.685-1.729-17.726
				c-4.323-46.886-9.235-100.025-55.211-127.085l-1.174-0.685l-0.135,0.24c-18.471-12.427-39.957-18.987-62.252-18.987
				C50.17,51.534,0,101.704,0,163.376s50.17,111.836,111.843,111.836c52.971,0,98.337-37.301,109.284-88.234
				c0.366,3.64,0.702,7.254,1.021,10.797l0.198,2.078c0.528,5.74,1.057,11.373,1.657,16.939
				c2.444,20.302,5.776,48.086,30.349,63.429c7.464,4.503,17.426,6.989,28.042,6.989c8.995,0,18.135-1.754,26.409-5.062
				c15.456-6.209,25.965-17.018,29.579-30.45l0.361-1.303L330.612,248.215z M111.843,67.873c17.912,0,32.477,14.573,32.477,32.489
				c0,17.913-14.564,32.492-32.477,32.492c-17.913,0-32.492-14.579-32.492-32.492C79.345,82.446,93.924,67.873,111.843,67.873z
				 M48.822,195.853c-17.913,0-32.48-14.567-32.48-32.482c0-17.918,14.567-32.489,32.48-32.489c17.93,0,32.504,14.571,32.504,32.489
				C81.332,181.285,66.752,195.853,48.822,195.853z M111.843,258.867c-17.913,0-32.492-14.579-32.492-32.498
				c0-17.906,14.58-32.474,32.492-32.474c17.912,0,32.477,14.567,32.477,32.474C144.319,244.288,129.755,258.867,111.843,258.867z
				 M174.845,195.853c-17.912,0-32.48-14.567-32.48-32.482c0-17.918,14.568-32.489,32.48-32.489
				c17.909,0,32.489,14.571,32.489,32.489C207.334,181.285,192.754,195.853,174.845,195.853z"/>
		</g>
	</g>
</g>
<g>
</g>
<g>
</g>
<g>
</g>
<g>
</g>
<g>
</g>
<g>
</g>
<g>
</g>
<g>
</g>
<g>
</g>
<g>
</g>
<g>
</g>
<g>
</g>
<g>
</g>
<g>
</g>
<g>
</g>
</svg>
