<?xml version="1.0" encoding="iso-8859-1"?>
<!-- Generator: Adobe Illustrator 16.0.0, SVG Export Plug-In . SVG Version: 6.00 Build 0)  -->
<!DOCTYPE svg PUBLIC "-//W3C//DTD SVG 1.1//EN" "http://www.w3.org/Graphics/SVG/1.1/DTD/svg11.dtd">
<svg version="1.1" id="Capa_1" xmlns="http://www.w3.org/2000/svg" xmlns:xlink="http://www.w3.org/1999/xlink" x="0px" y="0px"
	 width="353.562px" height="353.562px" viewBox="0 0 353.562 353.562" style="enable-background:new 0 0 353.562 353.562;"
	 xml:space="preserve">
<g>
	<g>
		<path d="M284.309,0v5.521v5.521V23.95H69.329V5.521h-0.024V0H9.698v353.562h59.508v-5.513h0.123v-20.008h214.98v20.008h0.078
			v5.513h59.478V0H284.309z M46.3,294.031H30.652v-30.366H46.3V294.031z M46.3,237.43H30.652v-30.396H46.3V237.43z M46.3,175.448
			H30.652v-30.372H46.3V175.448z M46.3,110.029H30.652V79.648H46.3V110.029z M46.3,53.404H30.652V23.017H46.3V53.404z
			 M284.309,316.987H69.329V180.985h214.98V316.987z M284.309,169.918H69.329V34.999h214.98V169.918z M322.29,294.031h-15.643
			v-30.366h15.643V294.031z M322.29,237.43h-15.643v-30.396h15.643V237.43z M322.29,175.448h-15.643v-30.372h15.643V175.448z
			 M322.29,110.029h-15.643V79.648h15.643V110.029z M322.29,53.404h-15.643V23.017h15.643V53.404z"/>
	</g>
</g>
<g>
</g>
<g>
</g>
<g>
</g>
<g>
</g>
<g>
</g>
<g>
</g>
<g>
</g>
<g>
</g>
<g>
</g>
<g>
</g>
<g>
</g>
<g>
</g>
<g>
</g>
<g>
</g>
<g>
</g>
</svg>
