<?xml version="1.0" encoding="iso-8859-1"?>
<!-- Generator: Adobe Illustrator 18.1.1, SVG Export Plug-In . SVG Version: 6.00 Build 0)  -->
<svg version="1.1" id="Capa_1" xmlns="http://www.w3.org/2000/svg" xmlns:xlink="http://www.w3.org/1999/xlink" x="0px" y="0px"
	 viewBox="0 0 450.421 450.421" style="enable-background:new 0 0 450.421 450.421;" xml:space="preserve">
<g>
	<g>
		<path style="fill:#010002;" d="M445.828,133.028c-13.997-21.012-32.222-42.821-54.226-64.809
			c-37.294-37.294-72.06-61.948-73.531-62.988l-6.966-4.918l-77.051,125.668l1.349,1.349L0,374.032l76.059,76.075l246.702-235.404
			l2.17,2.178l125.489-76.937L445.828,133.028z M243.849,258.785l-11.006-11.608l34.815-33.108l11.006,11.608L243.849,258.785z
			 M327.882,196.285l-73.255-73.247L315.73,23.39c11.965,9.006,37.814,29.425,64.549,56.152
			c18.858,18.85,34.79,37.473,47.512,55.494L327.882,196.285z"/>
	</g>
</g>
<g>
</g>
<g>
</g>
<g>
</g>
<g>
</g>
<g>
</g>
<g>
</g>
<g>
</g>
<g>
</g>
<g>
</g>
<g>
</g>
<g>
</g>
<g>
</g>
<g>
</g>
<g>
</g>
<g>
</g>
</svg>
