<?xml version="1.0" encoding="iso-8859-1"?>
<!-- Generator: Adobe Illustrator 18.1.1, SVG Export Plug-In . SVG Version: 6.00 Build 0)  -->
<svg version="1.1" id="Capa_1" xmlns="http://www.w3.org/2000/svg" xmlns:xlink="http://www.w3.org/1999/xlink" x="0px" y="0px"
	 viewBox="0 0 300.215 300.215" style="enable-background:new 0 0 300.215 300.215;" xml:space="preserve">
<g>
	<g>
		<path style="fill:#010002;" d="M203.008,64.719l-24.818-24.818h-55.614l-21.506,24.818H0v195.594h300.215V64.719H203.008z
			 M213.657,159.375c-0.239,16.051-6.619,31.15-17.965,42.495c-11.585,11.574-26.994,17.949-43.404,17.949
			s-31.829-6.375-43.398-17.949c-23.932-23.932-23.932-62.87,0-86.802c11.563-11.563,26.978-17.943,43.382-17.943
			c11.786,0,23.274,3.389,33.08,9.654l-2.856-14.441l10.72-2.812l5.809,29.561l0.577,3.334l-2.774,1.295l-30.459,7.229l-2.23-10.786
			l15.42-3.965c-8.066-5.189-17.546-8.006-27.266-8.006c-13.451,0-26.091,5.232-35.577,14.713
			c-19.619,19.613-19.619,51.541,0,71.148c9.48,9.491,22.115,14.713,35.577,14.713c13.451,0,26.086-5.221,35.577-14.713
			c9.306-9.301,14.539-21.675,14.729-34.826l0.044-3.16l11.068,0.158L213.657,159.375z"/>
	</g>
</g>
<g>
</g>
<g>
</g>
<g>
</g>
<g>
</g>
<g>
</g>
<g>
</g>
<g>
</g>
<g>
</g>
<g>
</g>
<g>
</g>
<g>
</g>
<g>
</g>
<g>
</g>
<g>
</g>
<g>
</g>
</svg>
