<?xml version="1.0" encoding="iso-8859-1"?>
<!-- Generator: Adobe Illustrator 18.1.1, SVG Export Plug-In . SVG Version: 6.00 Build 0)  -->
<svg version="1.1" id="Capa_1" xmlns="http://www.w3.org/2000/svg" xmlns:xlink="http://www.w3.org/1999/xlink" x="0px" y="0px"
	 viewBox="0 0 309.885 309.885" style="enable-background:new 0 0 309.885 309.885;" xml:space="preserve">
<g>
	<g>
		<g>
			<path style="fill:#010002;" d="M303.959,196.44v-82.989c2.072-5.575,12.706-36.768-0.876-56.8
				c-12.575-18.547-41.147-21.288-84.92-7.745c-6.396-3.78-28.637-15.055-66.917-15.055c-36.757,0-54.206,10.514-59.922,14.936
				C47.762,35.378,19.327,38.158,6.79,56.656c-13.581,20.038-2.943,51.22-0.865,56.795v82.989
				c-2.078,5.575-12.711,36.757,0.876,56.795c12.542,18.493,40.978,21.267,84.529,7.876c5.716,4.422,23.165,14.925,59.922,14.925
				c38.28,0,60.52-11.264,66.917-15.055c18.292,5.662,34.07,8.518,46.912,8.518c17.9,0,30.704-5.466,38.025-16.268
				C316.675,233.197,306.031,202.015,303.959,196.44z M265.934,234.404H42.155V75.377h223.779
				C265.934,75.377,265.934,234.404,265.934,234.404z"/>
		</g>
		<g>
			<path style="fill:#010002;" d="M118.845,190.158c2.322,2.322,6.086,2.322,8.409,0l26.798-26.804l26.804,26.787
				c2.322,2.339,6.081,2.339,8.409,0.016c2.306-2.328,2.306-6.081-0.016-8.409l-26.787-26.804l26.804-26.798
				c2.322-2.322,2.322-6.081-0.016-8.403c-2.328-2.328-6.07-2.328-8.392-0.005l-26.82,26.804l-26.782-26.798
				c-2.333-2.328-6.086-2.322-8.409-0.005c-2.322,2.322-2.322,6.086,0.005,8.409l26.793,26.798l-26.798,26.804
				C116.523,184.071,116.523,187.83,118.845,190.158z"/>
		</g>
	</g>
</g>
<g>
</g>
<g>
</g>
<g>
</g>
<g>
</g>
<g>
</g>
<g>
</g>
<g>
</g>
<g>
</g>
<g>
</g>
<g>
</g>
<g>
</g>
<g>
</g>
<g>
</g>
<g>
</g>
<g>
</g>
</svg>
