<?xml version="1.0" encoding="iso-8859-1"?>
<!-- Generator: Adobe Illustrator 18.1.1, SVG Export Plug-In . SVG Version: 6.00 Build 0)  -->
<svg version="1.1" id="Capa_1" xmlns="http://www.w3.org/2000/svg" xmlns:xlink="http://www.w3.org/1999/xlink" x="0px" y="0px"
	 viewBox="0 0 288.126 288.126" style="enable-background:new 0 0 288.126 288.126;" xml:space="preserve">
<g>
	<g>
		<g>
			<path style="fill:#010002;" d="M282.614,182.64v-77.159c1.931-5.189,11.825-34.185-0.81-52.813
				c-11.683-17.247-38.248-19.793-78.953-7.201c-5.945-3.514-26.624-14-62.223-14c-34.179,0-50.404,9.774-55.707,13.886
				C44.416,32.886,17.976,35.475,6.31,52.673c-12.624,18.629-2.73,47.619-0.794,52.808v77.159
				c-1.925,5.183-11.814,34.179,0.81,52.813c11.656,17.193,38.095,19.776,78.6,7.321c5.303,4.112,21.528,13.886,55.707,13.886
				c35.604,0,56.283-10.481,62.223-14c17.008,5.265,31.672,7.925,43.627,7.925c16.644,0,28.533-5.086,35.343-15.126
				C294.433,216.819,284.55,187.823,282.614,182.64z M247.26,217.945H39.2V70.073h208.055v147.872H247.26z"/>
		</g>
		<g>
			<path style="fill:#010002;" d="M171.113,186.659c0.359,0.364,1.218,1.218,23.154,10.106c0.865,0.343,1.849,0.131,2.491-0.538
				c0.631-0.669,0.8-1.664,0.419-2.502c-9.687-21.093-10.541-21.947-10.856-22.262l-79.051-79.046c-1.768-1.768-4.64-1.768-6.402,0
				l-8.8,8.8c-1.762,1.768-1.762,4.634,0,6.396L171.113,186.659z M190.656,190.407c-5.657-2.317-11.063-4.596-14.12-5.961
				l7.642-7.642C185.646,179.735,188.121,184.935,190.656,190.407z M104.066,95.62l9.883,9.877l-8.8,8.8l-9.888-9.883L104.066,95.62
				z"/>
		</g>
	</g>
</g>
<g>
</g>
<g>
</g>
<g>
</g>
<g>
</g>
<g>
</g>
<g>
</g>
<g>
</g>
<g>
</g>
<g>
</g>
<g>
</g>
<g>
</g>
<g>
</g>
<g>
</g>
<g>
</g>
<g>
</g>
</svg>
