<?xml version="1.0" encoding="iso-8859-1"?>
<!-- Generator: Adobe Illustrator 18.1.1, SVG Export Plug-In . SVG Version: 6.00 Build 0)  -->
<svg version="1.1" id="Capa_1" xmlns="http://www.w3.org/2000/svg" xmlns:xlink="http://www.w3.org/1999/xlink" x="0px" y="0px"
	 viewBox="0 0 315.536 315.536" style="enable-background:new 0 0 315.536 315.536;" xml:space="preserve">
<g>
	<g>
		<g>
			<path style="fill:#010002;" d="M108.928,60.828c-15.61,0-28.332,12.706-28.332,28.338c0,15.626,12.722,28.338,28.332,28.338
				c15.637,0,28.343-12.717,28.343-28.338C137.277,73.533,124.565,60.828,108.928,60.828z"/>
		</g>
		<g>
			<path style="fill:#010002;" d="M108.928,33.643c-27.712,0-50.252,22.55-50.252,50.252v197.998h100.514V83.895
				C159.196,56.194,136.656,33.643,108.928,33.643z M141.231,268.236H76.642V256.34h64.589V268.236z M76.642,157.768V144.1h13.663
				v13.668H76.642z M108.928,125.433c-19.983,0-36.262-16.274-36.262-36.268c0-19.999,16.274-36.262,36.262-36.262
				c19.999,0,36.257,16.268,36.257,36.262C145.19,109.159,128.928,125.433,108.928,125.433z"/>
		</g>
		<g>
			<path style="fill:#010002;" d="M166.327,105.809v103h149.21v-103H166.327z"/>
		</g>
		<g>
			<path style="fill:#010002;" d="M32.759,128.615h-5.586c-10.34,0-18.743,8.403-18.743,18.743v2.317
				C3.753,149.811,0,153.629,0,158.339v33.075c0,4.716,3.753,8.518,8.431,8.659v0.038c0,10.323,8.403,18.727,18.743,18.727h5.586
				c10.34,0,18.743-8.403,18.743-18.727v-52.748C51.503,137.018,43.099,128.615,32.759,128.615z M45.639,200.106
				c0,7.098-5.765,12.869-12.88,12.869h-5.586c-7.103,0-12.896-5.776-12.896-12.869v-2.089c1.876-1.594,3.106-3.943,3.106-6.608
				v-33.075c0-2.665-1.229-5.009-3.106-6.608v-4.373c0-7.114,5.793-12.896,12.896-12.896h5.586c7.12,0,12.88,5.782,12.88,12.896
				V200.106z"/>
		</g>
	</g>
</g>
<g>
</g>
<g>
</g>
<g>
</g>
<g>
</g>
<g>
</g>
<g>
</g>
<g>
</g>
<g>
</g>
<g>
</g>
<g>
</g>
<g>
</g>
<g>
</g>
<g>
</g>
<g>
</g>
<g>
</g>
</svg>
