<?xml version="1.0" encoding="iso-8859-1"?>
<!-- Generator: Adobe Illustrator 16.0.0, SVG Export Plug-In . SVG Version: 6.00 Build 0)  -->
<!DOCTYPE svg PUBLIC "-//W3C//DTD SVG 1.1//EN" "http://www.w3.org/Graphics/SVG/1.1/DTD/svg11.dtd">
<svg version="1.1" id="Capa_1" xmlns="http://www.w3.org/2000/svg" xmlns:xlink="http://www.w3.org/1999/xlink" x="0px" y="0px"
	 width="357.76px" height="357.76px" viewBox="0 0 357.76 357.76" style="enable-background:new 0 0 357.76 357.76;"
	 xml:space="preserve">
<g>
	<g>
		<path d="M278.442,124.458h-7.554V71.94c0-39.665-32.258-71.94-71.926-71.94h-40.16c-39.665,0-71.929,32.275-71.929,71.94v52.518
			h-7.563c-14.126,0-25.628,11.499-25.628,25.629v182.05c0,14.124,11.511,25.623,25.628,25.623h199.131
			c14.136,0,25.635-11.499,25.635-25.623v-182.05C304.077,135.957,292.578,124.458,278.442,124.458z M196.249,262.998v35.956
			c0,9.59-7.782,17.378-17.381,17.378c-9.557,0-17.36-7.794-17.36-17.378v-35.969c-9.223-5.908-14.856-16.032-14.856-26.985
			c0-17.762,14.457-32.216,32.216-32.216c17.789,0,32.236,14.454,32.236,32.216C211.104,246.953,205.473,257.077,196.249,262.998z
			 M253.793,124.458H103.967V71.94c0-30.246,24.596-54.842,54.836-54.842h40.16c30.24,0,54.83,24.596,54.83,54.842V124.458z"/>
	</g>
</g>
<g>
</g>
<g>
</g>
<g>
</g>
<g>
</g>
<g>
</g>
<g>
</g>
<g>
</g>
<g>
</g>
<g>
</g>
<g>
</g>
<g>
</g>
<g>
</g>
<g>
</g>
<g>
</g>
<g>
</g>
</svg>
