<?xml version="1.0" encoding="iso-8859-1"?>
<!-- Generator: Adobe Illustrator 16.0.0, SVG Export Plug-In . SVG Version: 6.00 Build 0)  -->
<!DOCTYPE svg PUBLIC "-//W3C//DTD SVG 1.1//EN" "http://www.w3.org/Graphics/SVG/1.1/DTD/svg11.dtd">
<svg version="1.1" id="Capa_1" xmlns="http://www.w3.org/2000/svg" xmlns:xlink="http://www.w3.org/1999/xlink" x="0px" y="0px"
	 width="359.099px" height="359.099px" viewBox="0 0 359.099 359.099" style="enable-background:new 0 0 359.099 359.099;"
	 xml:space="preserve">
<g>
	<g>
		<g>
			<path d="M179.762,67.683c-38.26,0-69.392,31.126-69.392,69.383c0,38.259,31.132,69.391,69.392,69.391
				c38.274,0,69.386-31.131,69.386-69.391C249.148,98.809,218.037,67.683,179.762,67.683z M179.282,189.175
				c-28.901,0-52.401-23.515-52.401-52.404c0-28.895,23.5-52.395,52.401-52.395c28.89,0,52.38,23.5,52.38,52.395
				S208.171,189.175,179.282,189.175z"/>
		</g>
		<g>
			<path d="M179.756,112.815c-13.394,0-24.241,10.86-24.241,24.244c0,13.4,10.854,24.248,24.241,24.248
				c13.408,0,24.235-10.854,24.235-24.248C204.003,123.681,193.165,112.815,179.756,112.815z"/>
		</g>
		<g>
			<path d="M311.964,257.624v-30.421h-25.569c0.69-2.522,1.045-5.128,1.045-7.8V64.047c0-16.534-13.456-29.994-30.006-29.994h-10.01
				C245.184,14.783,216.314,0,179.756,0c-36.545,0-65.419,14.783-67.665,34.047h-10.016c-16.54,0-29.988,13.46-29.988,29.994
				v155.362c0,2.672,0.339,5.271,1.033,7.8H47.134v30.421h128.341v38.641l-43.343,58.288l6.104,4.54l38.02-51.137v32.66h7.603
				v-31.598l37.241,50.08l6.089-4.54l-43.33-58.282V257.63h128.106V257.624z M179.756,7.614c30.984,0,57.357,11.877,60.012,26.439
				H119.741C122.398,19.485,148.777,7.614,179.756,7.614z M179.762,213.53c-42.166,0-76.474-34.314-76.474-76.471
				c0-42.163,34.309-76.474,76.474-76.474c42.159,0,76.483,34.312,76.483,76.474C256.246,179.225,221.934,213.53,179.762,213.53z"/>
		</g>
	</g>
</g>
<g>
</g>
<g>
</g>
<g>
</g>
<g>
</g>
<g>
</g>
<g>
</g>
<g>
</g>
<g>
</g>
<g>
</g>
<g>
</g>
<g>
</g>
<g>
</g>
<g>
</g>
<g>
</g>
<g>
</g>
</svg>
