<?xml version="1.0" encoding="iso-8859-1"?>
<!-- Generator: Adobe Illustrator 16.0.0, SVG Export Plug-In . SVG Version: 6.00 Build 0)  -->
<!DOCTYPE svg PUBLIC "-//W3C//DTD SVG 1.1//EN" "http://www.w3.org/Graphics/SVG/1.1/DTD/svg11.dtd">
<svg version="1.1" id="Capa_1" xmlns="http://www.w3.org/2000/svg" xmlns:xlink="http://www.w3.org/1999/xlink" x="0px" y="0px"
	 width="358.685px" height="358.685px" viewBox="0 0 358.685 358.685" style="enable-background:new 0 0 358.685 358.685;"
	 xml:space="preserve">
<g>
	<g>
		<path d="M0,0v358.685h358.685V0H0z M22.389,66.77V22.389h47.149V66.77H22.389z M22.389,134.15V89.153h47.149v44.997H22.389z
			 M22.389,203.814v-47.3h47.149v47.3H22.389z M22.389,267.952V226.2h47.149v41.752H22.389z M22.389,336.304v-45.973h47.149v45.973
			H22.389z M91.928,66.77V22.389h44.444V66.77H91.928z M91.928,134.15V89.153h44.444v44.997H91.928z M91.928,203.814v-47.3h44.444
			v47.3H91.928z M91.928,267.952V226.2h44.444v41.752H91.928z M91.928,336.304v-45.973h44.444v45.973H91.928z M158.758,66.77V22.389
			h44.871V66.77H158.758z M158.758,134.15V89.153h44.871v44.997H158.758z M158.758,203.814v-47.3h44.871v47.3H158.758z
			 M158.758,267.952V226.2h44.871v41.752H158.758z M226.015,66.77V22.389h44.874V66.77H226.015z M226.015,134.15V89.153h44.874
			v44.997H226.015z M226.015,203.814v-47.3h44.874v47.3H226.015z M226.015,267.952V226.2h44.874v41.752H226.015z M293.25,66.77
			V22.389h43.055V66.77H293.25z M293.25,134.15V89.153h43.055v44.997H293.25z M293.25,203.814v-47.3h43.055v47.3H293.25z
			 M293.25,267.952V226.2h43.055v41.752H293.25z M158.758,336.304v-45.973h177.547v45.973H158.758z"/>
	</g>
</g>
<g>
</g>
<g>
</g>
<g>
</g>
<g>
</g>
<g>
</g>
<g>
</g>
<g>
</g>
<g>
</g>
<g>
</g>
<g>
</g>
<g>
</g>
<g>
</g>
<g>
</g>
<g>
</g>
<g>
</g>
</svg>
