<?xml version="1.0" encoding="iso-8859-1"?>
<!-- Generator: Adobe Illustrator 18.1.1, SVG Export Plug-In . SVG Version: 6.00 Build 0)  -->
<svg version="1.1" id="Capa_1" xmlns="http://www.w3.org/2000/svg" xmlns:xlink="http://www.w3.org/1999/xlink" x="0px" y="0px"
	 viewBox="0 0 436.635 436.635" style="enable-background:new 0 0 436.635 436.635;" xml:space="preserve">
<g>
	<g>
		<path style="fill:#010002;" d="M415.614,253.876c-5.007-122.969-93.023-221.252-200.508-221.252
			c-108.525,0-197.15,100.217-200.564,224.877C5.568,264.012,0,274.433,0,285.927v82.684c0,19.525,15.891,35.4,35.4,35.4
			c19.533,0,35.416-15.875,35.416-35.4v-82.684c0-16.046-10.795-29.474-25.467-33.791C50.966,146.79,124.847,63.049,215.098,63.049
			c91.008,0,165.36,85.122,169.879,191.68c-11.429,5.934-19.143,17.769-19.143,31.197v82.684c0,19.525,15.883,35.4,35.408,35.4
			c19.517,0,35.392-15.875,35.392-35.4v-82.684C436.643,271.734,428.067,259.428,415.614,253.876z"/>
	</g>
</g>
<g>
</g>
<g>
</g>
<g>
</g>
<g>
</g>
<g>
</g>
<g>
</g>
<g>
</g>
<g>
</g>
<g>
</g>
<g>
</g>
<g>
</g>
<g>
</g>
<g>
</g>
<g>
</g>
<g>
</g>
</svg>
