<?xml version="1.0" encoding="iso-8859-1"?>
<!-- Generator: Adobe Illustrator 16.0.0, SVG Export Plug-In . SVG Version: 6.00 Build 0)  -->
<!DOCTYPE svg PUBLIC "-//W3C//DTD SVG 1.1//EN" "http://www.w3.org/Graphics/SVG/1.1/DTD/svg11.dtd">
<svg version="1.1" id="Capa_1" xmlns="http://www.w3.org/2000/svg" xmlns:xlink="http://www.w3.org/1999/xlink" x="0px" y="0px"
	 width="358.102px" height="358.102px" viewBox="0 0 358.102 358.102" style="enable-background:new 0 0 358.102 358.102;"
	 xml:space="preserve">
<g>
	<g>
		<g>
			<path d="M311.967,125.629h-5.422C300.774,55.34,245.206,0,177.634,0C110.044,0,54.479,55.34,48.696,125.629H46.12
				c-13.901,0-25.229,11.307-25.229,25.211v99.02c0,13.925,11.328,25.231,25.229,25.231h27.412
				c13.922,0,25.229-11.307,25.229-25.231v-99.02c0-13.904-11.307-25.211-25.229-25.211H62.564
				c5.687-62.645,55.124-111.77,115.07-111.77c59.952,0,109.384,49.119,115.052,111.764h-8.124
				c-13.925,0-25.232,11.307-25.232,25.211v99.013c0,11.956,8.503,22.338,20.2,24.729l12.298,0.336
				c0.378,8.227-0.505,24.224-11.121,36.978c-8.851,10.616-22.848,17.023-41.565,19.288c-3.098-4.816-8.502-7.999-14.633-7.999
				h-26.464c-9.625,0-17.452,7.807-17.452,17.462c0,9.644,7.827,17.462,17.452,17.462h26.476c8.185,0,15.006-5.65,16.897-13.276
				c22.109-2.762,38.965-10.803,50.062-24.182c13.15-15.9,14.664-34.924,14.256-45.559h6.245c13.919,0,25.231-11.307,25.231-25.238
				V150.84C337.205,136.93,325.898,125.629,311.967,125.629z"/>
		</g>
	</g>
</g>
<g>
</g>
<g>
</g>
<g>
</g>
<g>
</g>
<g>
</g>
<g>
</g>
<g>
</g>
<g>
</g>
<g>
</g>
<g>
</g>
<g>
</g>
<g>
</g>
<g>
</g>
<g>
</g>
<g>
</g>
</svg>
