<?xml version="1.0" encoding="iso-8859-1"?>
<!-- Generator: Adobe Illustrator 18.1.1, SVG Export Plug-In . SVG Version: 6.00 Build 0)  -->
<svg version="1.1" id="Capa_1" xmlns="http://www.w3.org/2000/svg" xmlns:xlink="http://www.w3.org/1999/xlink" x="0px" y="0px"
	 viewBox="0 0 297.571 297.571" style="enable-background:new 0 0 297.571 297.571;" xml:space="preserve">
<g>
	<g>
		<path style="fill:#010002;" d="M148.786,0.005C66.743,0.005,0,66.748,0,148.786c0,82.043,66.743,148.78,148.786,148.78
			s148.786-66.737,148.786-148.78C297.571,66.748,230.828,0.005,148.786,0.005z M141.274,247.749
			c-10.03,0-17.318-7.626-17.318-18.15c0-10.845,7.25-18.417,17.601-18.417c10.198,0,17.34,7.571,17.34,18.417
			C158.891,240.292,151.641,247.749,141.274,247.749z M168.736,144.782c-11.569,13.652-16.138,25.395-15.311,39.281l0.305,8.469
			h-23.665l-0.653-8.333c-1.762-15.98,4.03-32.194,17.226-48.027c11.961-14.082,18.868-24.59,18.868-36.708
			c0-14.142-8.817-22.066-24.84-22.322c-7.974,0-16.741,2.235-23.344,5.972l-4.922,2.779l-7.343-19.325l3.443-2.099
			c9.54-5.798,23.78-9.404,37.171-9.404c32.362,0,46.858,20.783,46.858,41.38C192.521,115.091,182.666,128.242,168.736,144.782z"/>
	</g>
</g>
<g>
</g>
<g>
</g>
<g>
</g>
<g>
</g>
<g>
</g>
<g>
</g>
<g>
</g>
<g>
</g>
<g>
</g>
<g>
</g>
<g>
</g>
<g>
</g>
<g>
</g>
<g>
</g>
<g>
</g>
</svg>
