<?xml version="1.0" encoding="iso-8859-1"?>
<!-- Generator: Adobe Illustrator 16.0.0, SVG Export Plug-In . SVG Version: 6.00 Build 0)  -->
<!DOCTYPE svg PUBLIC "-//W3C//DTD SVG 1.1//EN" "http://www.w3.org/Graphics/SVG/1.1/DTD/svg11.dtd">
<svg version="1.1" id="Capa_1" xmlns="http://www.w3.org/2000/svg" xmlns:xlink="http://www.w3.org/1999/xlink" x="0px" y="0px"
	 width="341.559px" height="341.559px" viewBox="0 0 341.559 341.559" style="enable-background:new 0 0 341.559 341.559;"
	 xml:space="preserve">
<g>
	<g>
		<g>
			<path d="M9.608,88.919v162.838h52.536l118.865,89.802V0L63.312,88.913H9.608V88.919z M19.306,242.064V98.616H60.09v143.448
				H19.306z"/>
		</g>
		<g>
			<g>
				<path d="M230.572,134.69l-4.107-7.107l-7.146,3.942c-1.97,1.069-3.909,1.961-5.668,2.625l-9.536,3.402l5.164,8.785
					c5.038,8.431,7.71,18.047,7.71,27.802c0,9.308-2.432,18.543-7.014,26.697l-3.014,5.345l7.38,8.269
					c0.528,0.678,1.081,1.351,1.603,1.963l7.446,8.996l6.149-9.944c7.686-12.478,11.757-26.758,11.77-41.325
					C241.31,160.295,237.574,146.646,230.572,134.69z"/>
			</g>
			<g>
				<path d="M261.773,103.159l-6.743-9.452l-6.876,9.392c-1.525,2.102-3.086,4.161-4.636,6.11l-3.783,4.78l3.447,5.182
					c11.277,16.393,17.246,35.386,17.246,54.956c0,22.494-7.494,43.69-21.653,61.363l-4.012,5.037l5.465,7.303
					c0.811,0.948,1.669,1.825,2.558,2.689c0.486,0.48,0.949,0.949,1.43,1.478l6.545,7.044l6.064-7.435
					c18.272-22.247,27.94-49.053,27.94-77.479C284.76,148.688,276.81,124.14,261.773,103.159z"/>
			</g>
			<g>
				<path d="M288.892,61.42l-7.038-7.944l-6.041,8.617c-1.537,2.132-3.062,4.347-4.636,6.666l-3.579,5.38l4.252,4.759
					c23.082,26.484,35.788,60.304,35.782,95.23c0,34.371-12.483,67.866-35.182,94.323l-5.345,6.293l6.131,5.416
					c1.135,1.021,2.282,1.987,3.903,3.351l8.377,7.134l5.452-6.353c26.433-30.816,40.982-69.932,40.982-110.164
					C331.958,132.612,316.657,92.585,288.892,61.42z"/>
			</g>
		</g>
	</g>
</g>
<g>
</g>
<g>
</g>
<g>
</g>
<g>
</g>
<g>
</g>
<g>
</g>
<g>
</g>
<g>
</g>
<g>
</g>
<g>
</g>
<g>
</g>
<g>
</g>
<g>
</g>
<g>
</g>
<g>
</g>
</svg>
