<?xml version="1.0" encoding="iso-8859-1"?>
<!-- Generator: Adobe Illustrator 16.0.0, SVG Export Plug-In . SVG Version: 6.00 Build 0)  -->
<!DOCTYPE svg PUBLIC "-//W3C//DTD SVG 1.1//EN" "http://www.w3.org/Graphics/SVG/1.1/DTD/svg11.dtd">
<svg version="1.1" id="Capa_1" xmlns="http://www.w3.org/2000/svg" xmlns:xlink="http://www.w3.org/1999/xlink" x="0px" y="0px"
	 width="334.529px" height="334.528px" viewBox="0 0 334.529 334.528" style="enable-background:new 0 0 334.529 334.528;"
	 xml:space="preserve">
<g>
	<g>
		<g>
			<g>
				<g>
					<g>
						<path d="M56.663,304.212c-4.698,0-7.608-2.005-9.229-3.687c-3.666-3.813-3.648-8.869-3.618-9.854V178.399l-36.407,8.215
							c-2.705,0.612-5.479-0.696-6.737-3.164c-1.273-2.475-0.697-5.488,1.399-7.326L165.878,31.835
							c2.33-2.042,5.797-2.023,8.097,0.054l158.548,143.593c2.06,1.873,2.601,4.876,1.31,7.326c-1.291,2.443-4.048,3.74-6.779,3.098
							l-39.963-9.355v112.309c0.043,0.414,0.169,6.467-4.059,10.881c-1.825,1.915-5.141,4.19-10.557,4.19H192.93
							c-1.598,0-3.165-0.642-4.306-1.783c-1.142-1.159-1.771-2.696-1.771-4.306l0.156-66.383c0.018-0.33,0.036-2.39-1.129-3.572
							c-1.058-1.094-3.099-1.327-4.612-1.327h-33.72c-0.868,0-2.042,0.126-2.582,0.708c-0.799,0.889-0.952,2.877-0.886,3.663
							l-0.105,67.134c0,3.351-2.705,6.064-6.074,6.064C137.908,304.128,65.418,304.212,56.663,304.212z"/>
					</g>
				</g>
			</g>
		</g>
		<g>
			<g>
				<g>
					<g>
						<path d="M296.453,146.719h-12.147V70.986h-19.582l0.107,48.903l-12.153,0.03l-0.12-54.992
							c-0.012-1.622,0.631-3.17,1.771-4.312c1.135-1.147,2.69-1.784,4.3-1.784h31.747c3.351,0,6.07,2.721,6.07,6.083v81.804H296.453
							z"/>
					</g>
				</g>
			</g>
		</g>
	</g>
</g>
<g>
</g>
<g>
</g>
<g>
</g>
<g>
</g>
<g>
</g>
<g>
</g>
<g>
</g>
<g>
</g>
<g>
</g>
<g>
</g>
<g>
</g>
<g>
</g>
<g>
</g>
<g>
</g>
<g>
</g>
</svg>
