<?xml version="1.0" encoding="iso-8859-1"?>
<!-- Generator: Adobe Illustrator 16.0.0, SVG Export Plug-In . SVG Version: 6.00 Build 0)  -->
<!DOCTYPE svg PUBLIC "-//W3C//DTD SVG 1.1//EN" "http://www.w3.org/Graphics/SVG/1.1/DTD/svg11.dtd">
<svg version="1.1" id="Capa_1" xmlns="http://www.w3.org/2000/svg" xmlns:xlink="http://www.w3.org/1999/xlink" x="0px" y="0px"
	 width="307.452px" height="307.452px" viewBox="0 0 307.452 307.452" style="enable-background:new 0 0 307.452 307.452;"
	 xml:space="preserve">
<g>
	<g>
		<path d="M81.111,13.484c-6.566,7.38-9.376,18.053-8.397,31.742c7.014,0.916,13.994,3.296,14.676,9.046
			c0.756,6.401-5.57,12.487-39.094,22.93c-5.885,9.481-37.71,63.326-27.13,98.235c3.243,10.641,10.067,18.314,20.765,23.448
			c8.659-4.642,39.716-20.008,58.649-12.171c6.975,2.882,11.628,8.37,13.769,16.345l-9.329,2.521
			c-1.336-4.996-4.017-8.244-8.13-9.943c-14.042-6.702-52.812,13.09-52.812,13.09c-0.21,0.084-19.818,8.671-20.56,24.896
			c-0.715,14.699,15.093,31.897,45.667,49.804c14.499-6.857,36.278-20.519,37.151-30.421l9.623,0.847
			c-1.352,15.259-25.875,29.736-37.962,35.987c9.346,6.665,27.073,17.6,42.784,17.612c13.682,0,23.863-18.093,23.863-18.093V2.282
			c-5.299-0.991-14.006-2.276-23.611-2.276C108.295,0.006,91.01,2.342,81.111,13.484z M78.616,133.34l-5.456-7.969
			c9.604-6.587,34.005-27.547,31.741-45.237l9.575-1.23C117.975,106.075,80.225,132.231,78.616,133.34z"/>
		<path d="M206.869,186.707c18.934-7.83,49.996,7.536,58.649,12.172c10.7-5.14,17.534-12.808,20.771-23.448
			c10.574-34.909-21.251-88.754-27.13-98.236c-33.53-10.442-39.848-16.528-39.091-22.929c0.678-5.75,7.662-8.125,14.682-9.046
			c0.973-13.688-1.838-24.355-8.407-31.741C216.453,2.336,199.159,0,186.423,0c-9.602,0-18.309,1.285-23.61,2.276v287.071
			c0,0,10.184,18.087,23.863,18.087c15.714-0.012,33.44-10.946,42.79-17.612c-12.094-6.251-36.617-20.723-37.975-35.986l9.632-0.841
			c0.864,9.896,22.65,23.551,37.151,30.414c30.57-17.899,46.381-35.104,45.667-49.804c-0.745-16.23-20.356-24.812-20.561-24.89
			c0,0-38.779-19.804-52.818-13.091c-4.113,1.693-6.792,4.948-8.125,9.933l-9.331-2.522
			C195.244,195.084,199.892,189.59,206.869,186.707z M192.975,78.903l9.577,1.23c-2.264,17.69,22.146,38.656,31.741,45.237
			l-5.452,7.969C227.226,132.231,189.474,106.075,192.975,78.903z"/>
	</g>
</g>
<g>
</g>
<g>
</g>
<g>
</g>
<g>
</g>
<g>
</g>
<g>
</g>
<g>
</g>
<g>
</g>
<g>
</g>
<g>
</g>
<g>
</g>
<g>
</g>
<g>
</g>
<g>
</g>
<g>
</g>
</svg>
