<?xml version="1.0" encoding="iso-8859-1"?>
<!-- Generator: Adobe Illustrator 18.1.1, SVG Export Plug-In . SVG Version: 6.00 Build 0)  -->
<svg version="1.1" id="Capa_1" xmlns="http://www.w3.org/2000/svg" xmlns:xlink="http://www.w3.org/1999/xlink" x="0px" y="0px"
	 viewBox="0 0 306.225 306.225" style="enable-background:new 0 0 306.225 306.225;" xml:space="preserve">
<g>
	<g>
		<g>
			<path style="fill:#010002;" d="M296.157,53.743H10.073C4.514,53.743,0,58.269,0,63.827v172.69
				c0,5.559,4.514,10.073,10.073,10.073h38.65c2.045,3.503,6.603,5.891,12.026,5.891h8.98c5.396,0,9.937-2.366,11.999-5.891h136.82
				c2.051,3.503,6.608,5.891,12.031,5.891h8.974c5.396,0,9.937-2.366,11.999-5.891h44.6c5.548,0,10.073-4.509,10.073-10.073V63.827
				C306.225,58.269,301.699,53.743,296.157,53.743z M165.179,124.473h74.542v8.637h-74.542V124.473z M132.458,199.363
				c-17.111,7.598-42.941,8.974-44.035,9.034l-3.541,0.179l-0.044-0.179c-0.25-0.011-0.506-0.011-0.778-0.011
				c-1.197-0.065-27.016-1.436-44.122-9.023c-1.583-0.631-4.944-2.828-5.08-9.905c0.033-1.256,0.99-25.373,8.784-36.953
				c0.392-0.522,3.079-4.047,8.98-6.288c6.723-2.061,13.266-4.988,15.017-6.619c-2.676-3.796-4.678-8.235-5.586-12.94
				c-0.974-1.387-1.632-3.046-1.925-4.944c-1.197-4.21-1.12-7.636,0.315-10.084c-1.24-8.92-0.147-13.255,0.419-14.762
				c3.361-10.367,13.821-15.197,15.882-16.062c0.761-0.283,2.73-0.957,4.678-0.957l1.061,0.06c0.239-0.179,0.734-0.239,1.229-0.239
				c0.941,0.011,4.688,0.522,10.057,2.165l3.285,1.137c7.364,2.165,11.177,6.424,12.178,7.664
				c5.961,6.799,5.276,16.089,3.971,21.963c0.925,2.333,0.854,5.499-0.25,9.562c-0.256,1.572-0.914,3.198-1.915,4.585
				c-0.968,4.574-3.106,9.176-6.032,13.146c0.462,0.332,1.403,0.957,3.302,1.898c0.451,0.196,1.104,0.462,1.855,0.718
				c0.076,0.033,4.329,1.392,8.871,3.514l0.511,0.136c0.267,0.092,6.859,2.703,9.143,6.413l0.06-0.033
				c7.8,11.563,8.741,35.697,8.784,36.714C137.402,196.481,134.04,198.705,132.458,199.363z M239.721,189.301h-74.542v-8.632h74.542
				C239.721,180.669,239.721,189.301,239.721,189.301z M269.68,161.198H165.179v-8.621H269.68V161.198z M269.68,103.647H165.179
				V95.01H269.68V103.647z"/>
		</g>
	</g>
</g>
<g>
</g>
<g>
</g>
<g>
</g>
<g>
</g>
<g>
</g>
<g>
</g>
<g>
</g>
<g>
</g>
<g>
</g>
<g>
</g>
<g>
</g>
<g>
</g>
<g>
</g>
<g>
</g>
<g>
</g>
</svg>
