<?xml version="1.0" encoding="iso-8859-1"?>
<!-- Generator: Adobe Illustrator 18.1.1, SVG Export Plug-In . SVG Version: 6.00 Build 0)  -->
<svg version="1.1" id="Capa_1" xmlns="http://www.w3.org/2000/svg" xmlns:xlink="http://www.w3.org/1999/xlink" x="0px" y="0px"
	 viewBox="0 0 318.131 318.131" style="enable-background:new 0 0 318.131 318.131;" xml:space="preserve">
<g>
	<g>
		<g>
			<path style="fill:#010002;" d="M159.065,0C99.736,0,51.47,47.619,51.47,106.154c0,29.501,12.352,61.788,32.863,86.117
				c0.256,0.37,0.517,0.745,0.789,1.071c7.229,8.92,22.148,31.715,22.148,45.215c0,3.176,0.892,6.108,2.344,8.692v43.355
				c0,9.366,7.615,16.981,16.986,16.981h8.496l4.058,4.667c3.214,3.742,7.892,5.88,12.836,5.88h14.163
				c4.922,0,9.594-2.138,12.814-5.852l4.074-4.694h8.512c9.355,0,16.943-7.615,16.943-16.981v-42.642
				c1.713-2.774,2.692-6.005,2.692-9.404c0-12.319,12.956-33.858,22.153-45.231c0.636-0.794,1.207-1.648,1.702-2.567
				c19.809-24.296,31.617-55.881,31.617-84.605C266.661,47.619,218.389,0,159.065,0z M191.553,296.685H178.07l-7.337,8.458
				c-1.159,1.333-2.828,2.11-4.585,2.11h-14.163c-1.773,0-3.432-0.761-4.591-2.11l-7.332-8.458h-13.467
				c-3.367,0-6.092-2.73-6.092-6.081v-34.783c1.523,0.419,3.089,0.723,4.743,0.723h67.972c1.496,0,2.964-0.25,4.395-0.62v34.679
				C197.612,293.954,194.903,296.685,191.553,296.685z M149.64,245.644l-26.472-145.343l35.898,30.785l35.626-30.557
				l-28.517,145.114H149.64z"/>
		</g>
	</g>
</g>
<g>
</g>
<g>
</g>
<g>
</g>
<g>
</g>
<g>
</g>
<g>
</g>
<g>
</g>
<g>
</g>
<g>
</g>
<g>
</g>
<g>
</g>
<g>
</g>
<g>
</g>
<g>
</g>
<g>
</g>
</svg>
