<?xml version="1.0" encoding="iso-8859-1"?>
<!-- Generator: Adobe Illustrator 16.0.0, SVG Export Plug-In . SVG Version: 6.00 Build 0)  -->
<!DOCTYPE svg PUBLIC "-//W3C//DTD SVG 1.1//EN" "http://www.w3.org/Graphics/SVG/1.1/DTD/svg11.dtd">
<svg version="1.1" id="Capa_1" xmlns="http://www.w3.org/2000/svg" xmlns:xlink="http://www.w3.org/1999/xlink" x="0px" y="0px"
	 width="347.612px" height="347.612px" viewBox="0 0 347.612 347.612" style="enable-background:new 0 0 347.612 347.612;"
	 xml:space="preserve">
<g>
	<g>
		<path d="M173.807,0C77.97,0,0,77.97,0,173.806C0,269.64,77.97,347.612,173.807,347.612c95.833,0,173.806-77.973,173.806-173.807
			C347.612,77.97,269.64,0,173.807,0z M196.489,269.447c0,9.933-8.07,17.997-17.99,17.997c-9.914,0-17.969-8.064-17.969-17.997
			V137.342c0-9.898,8.056-17.966,17.969-17.966c9.92,0,17.99,8.068,17.99,17.966V269.447z M179.234,101.157
			c-11.294,0-20.494-9.193-20.494-20.495s9.193-20.495,20.494-20.495c11.305,0,20.498,9.193,20.498,20.495
			S190.539,101.157,179.234,101.157z"/>
	</g>
</g>
<g>
</g>
<g>
</g>
<g>
</g>
<g>
</g>
<g>
</g>
<g>
</g>
<g>
</g>
<g>
</g>
<g>
</g>
<g>
</g>
<g>
</g>
<g>
</g>
<g>
</g>
<g>
</g>
<g>
</g>
</svg>
