<?xml version="1.0" encoding="iso-8859-1"?>
<!-- Generator: Adobe Illustrator 16.0.0, SVG Export Plug-In . SVG Version: 6.00 Build 0)  -->
<!DOCTYPE svg PUBLIC "-//W3C//DTD SVG 1.1//EN" "http://www.w3.org/Graphics/SVG/1.1/DTD/svg11.dtd">
<svg version="1.1" id="Capa_1" xmlns="http://www.w3.org/2000/svg" xmlns:xlink="http://www.w3.org/1999/xlink" x="0px" y="0px"
	 width="358.685px" height="358.684px" viewBox="0 0 358.685 358.684" style="enable-background:new 0 0 358.685 358.684;"
	 xml:space="preserve">
<g>
	<g>
		<g>
			<path d="M265.7,177.838v-0.183c7.188-2.651,11.548-8.419,11.548-15.027c0-5.375-2.096-9.452-5.669-12.084
				c-4.27-3.456-9.938-4.957-18.765-4.957c-6.209,0-12.286,0.597-16.165,1.411v67.29c2.948,0.408,7.626,0.828,13.715,0.828
				c11.157,0,18.879-2.054,23.659-6.413c3.435-3.339,5.776-7.83,5.776-13.709C279.806,184.864,272.197,179.474,265.7,177.838z
				 M245.482,152.99c1.453-0.3,3.759-0.594,7.836-0.594c8.923,0,15,3.134,15,11.153c0,6.591-5.464,11.454-14.819,11.454h-8.022
				V152.99H245.482z M252.904,208.198c-3.135,0-5.669-0.096-7.422-0.414v-26.072h7.332c9.631,0,17.63,3.849,17.63,13.187
				C270.444,204.86,262.025,208.198,252.904,208.198z"/>
		</g>
		<g>
			<path d="M29.877,53.89l-1.384,0.135C13.904,56.908,2.792,68.203,0.142,82.818L0,304.906h322.698
				c18.771,0,34.335-14.616,35.849-33.057l0.138-218.07L29.877,53.89z M134.808,233.418c0,11.396-9.289,20.656-20.677,20.656H64.612
				V127.172c0-11.412,9.292-20.681,20.681-20.681h49.515V233.418z M213.555,233.418c0,11.396-9.271,20.656-20.681,20.656h-49.512
				V127.172c0-11.412,9.292-20.681,20.68-20.681h49.513V233.418L213.555,233.418z M293.683,233.418
				c0,11.396-9.289,20.656-20.669,20.656h-49.515V127.172c0-11.412,9.283-20.681,20.668-20.681h49.516V233.418z"/>
		</g>
		<g>
			<path d="M206.775,149.486l-2.12,7.211c-3.362-1.636-8.112-2.834-13.805-2.834c-16.024,0-26.7,10.238-26.7,28.192
				c0,16.763,9.638,27.529,26.283,27.529c5.395,0,10.859-1.135,14.402-2.858l1.85,7.008c-3.249,1.609-9.752,3.248-18.074,3.248
				c-19.27,0-33.792-12.195-33.792-34.6c0-21.41,14.522-35.936,35.728-35.936C199.053,146.442,204.451,148.261,206.775,149.486z"/>
		</g>
		<g>
			<path d="M102.355,146.097v45.048c0,13.391-4.654,16.969-12.586,16.969c-2.927,0-5.561-0.63-7.404-1.345l-1.315,7.218
				c2.237,0.9,6.179,1.621,9.431,1.621c11.781,0,20.698-5.578,20.698-23.742v-45.763h-8.824V146.097z"/>
		</g>
	</g>
</g>
<g>
</g>
<g>
</g>
<g>
</g>
<g>
</g>
<g>
</g>
<g>
</g>
<g>
</g>
<g>
</g>
<g>
</g>
<g>
</g>
<g>
</g>
<g>
</g>
<g>
</g>
<g>
</g>
<g>
</g>
</svg>
