<?xml version="1.0" encoding="iso-8859-1"?>
<!-- Generator: Adobe Illustrator 18.1.1, SVG Export Plug-In . SVG Version: 6.00 Build 0)  -->
<svg version="1.1" id="Capa_1" xmlns="http://www.w3.org/2000/svg" xmlns:xlink="http://www.w3.org/1999/xlink" x="0px" y="0px"
	 viewBox="0 0 298.512 298.512" style="enable-background:new 0 0 298.512 298.512;" xml:space="preserve">
<g>
	<g>
		<g>
			<path style="fill:#010002;" d="M286.378,18.504H12.173C5.461,18.504,0,23.937,0,30.611v237.274
				c0,6.69,5.461,12.124,12.173,12.124h274.205c6.69,0,12.135-5.428,12.135-12.124V30.611
				C298.512,23.932,293.068,18.504,286.378,18.504z M187.55,68.353c3.372-5.635,9.491-9.192,16.023-9.192h3.753
				c2.725,0,5.401,0.593,7.854,1.713c4.177-1.137,8.583-1.713,13.152-1.713c19.831,0,35.37,11.025,35.37,25.096
				c0,14.087-15.534,25.128-35.37,25.128c-5.537,0-11.014-0.892-15.893-2.589c-3.666,0.577-7.413,0.87-11.161,0.87
				c-18.177,0-36.518-6.288-36.518-20.32C164.771,78.181,173.251,71.148,187.55,68.353z M243.92,200.359H186.5
				c5.026-18.308,15.088-41.995,26.728-44.981c0.626-0.158,1.229-0.239,1.828-0.239C225.879,155.144,236.518,181.279,243.92,200.359
				z M125.142,118.147c1.909,0,3.998,1.115,6.184,3.307c23.051,23.051,34.951,62.457,39.118,78.905H82.44
				C93.644,159.435,112.268,118.147,125.142,118.147z M71.186,55.571c15.942,0,28.909,12.967,28.909,28.903
				c0,15.931-12.972,28.898-28.909,28.898c-15.947,0-28.925-12.967-28.925-28.898C42.262,68.538,55.239,55.571,71.186,55.571z
				 M285.845,267.341H12.678v-54.412c0.37,0.065,0.756,0.098,1.142,0.098h272.024V267.341z"/>
		</g>
	</g>
</g>
<g>
</g>
<g>
</g>
<g>
</g>
<g>
</g>
<g>
</g>
<g>
</g>
<g>
</g>
<g>
</g>
<g>
</g>
<g>
</g>
<g>
</g>
<g>
</g>
<g>
</g>
<g>
</g>
<g>
</g>
</svg>
