<?xml version="1.0" encoding="iso-8859-1"?>
<!-- Generator: Adobe Illustrator 18.1.1, SVG Export Plug-In . SVG Version: 6.00 Build 0)  -->
<svg version="1.1" id="Capa_1" xmlns="http://www.w3.org/2000/svg" xmlns:xlink="http://www.w3.org/1999/xlink" x="0px" y="0px"
	 viewBox="0 0 476.57 476.57" style="enable-background:new 0 0 476.57 476.57;" xml:space="preserve">
<g>
	<g>
		<g>
			<g>
				<path style="fill:#010002;" d="M263.488,135.097c-0.106-10.974,4.991-19.557,9.925-27.865
					c6.535-11.014,13.298-22.419,8.6-38.099c-4.788-14.379-13.859-21.443-21.882-27.67c-10.787-8.397-18.582-14.461-14.518-37.448
					l0.35-1.967L234.306,0l-0.35,1.959c-5.3,30.019,7.568,40.009,18.931,48.828c7.324,5.714,14.258,11.096,17.858,21.915
					c3.162,10.527-1.536,18.452-7.503,28.483c-5.536,9.323-11.754,19.834-11.64,33.896c-58.924,0.073-119.132,2.504-119.132,211.944
					c0,94.365,75.84,129.545,123.644,129.545c47.812,0,123.652-35.172,123.652-129.545
					C379.767,137.861,318.404,135.276,263.488,135.097z M262.041,310.772v-25.548c7.283-1.406,12.746-7.844,12.746-15.379v-77.181
					c0-7.551-5.471-13.973-12.746-15.379V146.9c48.633,0.106,94.178,2.032,103.948,139.218
					C332.719,301.676,297.758,309.951,262.041,310.772z M262.968,269.852c0,2.146-1.756,3.894-3.894,3.894h-5.885
					c-2.17,0-3.894-1.756-3.894-3.894v-77.181c0-2.146,1.731-3.894,3.894-3.894h5.885c2.146,0,3.894,1.748,3.894,3.894V269.852z
					 M245.971,153.508V177.3c-6.722,1.357-11.754,7.316-11.754,14.298v78.953c0,6.966,5.032,12.924,11.754,14.282v19.338
					c-49.731-1.203-86.114-17.769-95.478-22.459C159.491,155.508,201.28,153.614,245.971,153.508z"/>
			</g>
		</g>
		<g>
			<g>
				<path style="fill:#010002;" d="M198.061,127.627l1.943-0.431l-2.577-11.534l-1.935,0.447
					c-70.353,15.786-76.669,82.627-76.726,83.302l-0.163,1.992l11.795,0.894l0.171-1.959
					C130.594,199.743,136.227,141.51,198.061,127.627z"/>
			</g>
		</g>
		<g>
			<g>
				<path style="fill:#010002;" d="M176.284,105.834l1.935-0.431l-2.601-11.534l-1.935,0.431
					c-70.353,15.794-76.669,82.627-76.709,83.31l-0.171,1.983l11.778,0.919l0.171-1.967
					C108.817,177.951,114.385,119.726,176.284,105.834z"/>
			</g>
		</g>
	</g>
</g>
<g>
</g>
<g>
</g>
<g>
</g>
<g>
</g>
<g>
</g>
<g>
</g>
<g>
</g>
<g>
</g>
<g>
</g>
<g>
</g>
<g>
</g>
<g>
</g>
<g>
</g>
<g>
</g>
<g>
</g>
</svg>
