<?xml version="1.0" encoding="iso-8859-1"?>
<!-- Generator: Adobe Illustrator 18.1.1, SVG Export Plug-In . SVG Version: 6.00 Build 0)  -->
<svg version="1.1" id="Capa_1" xmlns="http://www.w3.org/2000/svg" xmlns:xlink="http://www.w3.org/1999/xlink" x="0px" y="0px"
	 viewBox="0 0 305.164 305.164" style="enable-background:new 0 0 305.164 305.164;" xml:space="preserve">
<g>
	<g>
		<g>
			<path style="fill:#010002;" d="M239.149,27.979C223.523,10.198,198.269,0,169.888,0c-13.913,0-27.93,2.377-41.685,7.06
				c-44.959,15.311-74.597,51.182-77.349,93.606l-0.517,7.919l29.099,1.882l0.506-7.919c2.35-36.382,31.318-58.932,57.643-67.896
				c10.824-3.688,21.762-5.553,32.493-5.553c19.853,0,37.051,6.603,47.189,18.123c17.895,20.358,15.599,56.512-6.44,101.852
				c-11.563,16.29-19.243,34.353-26.684,51.829c-17.427,40.967-31.247,73.46-87.232,75.016c-4.623-3.677-6.07-8.218-8.006-14.261
				c-3.008-9.404-8.61-26.902-34.223-26.902c-0.005,0-0.005,0-0.005,0h-8.033l0.239,21.288l0.832,8.028l8.023-0.18
				c2.116-0.005,2.981,0.218,2.981,0.18c0.609,0.789,1.599,3.883,2.366,6.288c9.132,31.411,24.601,34.805,30.829,34.805l1.207-0.044
				l3.013,0.027c0,0,0,0,0.005,0c75.527,0,95.33-46.803,112.806-88.097l2.023-4.786c6.957-16.35,14.158-33.26,24.612-47.744
				l0.876-1.523C272.436,89.804,257.778,49.18,239.149,27.979z"/>
		</g>
		<g>
			<path style="fill:#010002;" d="M130.227,168.807c-12.988-9.268-26.972-4.683-34.87,11.107
				c-5.651,11.297-8.197,28.212-2.208,36.186c8.887,10.367,18.031,12.537,24.139,12.537c9.524,0,19.222-5.183,27.299-14.604
				c11.525-13.44,17.715-32.52,15.349-47.869c-2.807-13.135-7.767-22.458-12.14-30.693c-6.32-11.873-10.905-20.489-7.593-36.545
				c3.117-7.794,9.573-10.84,22.795-10.84c2.355,0,4.65,0.092,6.821,0.174c2.094,0.076,4.063,0.147,5.858,0.147
				c3.633,0,14.669,0,15.871-9.66c0.25-1.969-0.082-5.004-2.991-8.305c-5.891-6.657-22.561-13.788-38.008-13.788
				c-12.151,0-21.686,4.291-27.554,12.417c-8.523,11.781-8.561,30.72-0.136,56.311c7.011,21.267,10.024,38.438,9.284,44.649
				C131.624,169.753,130.983,169.356,130.227,168.807z"/>
		</g>
	</g>
</g>
<g>
</g>
<g>
</g>
<g>
</g>
<g>
</g>
<g>
</g>
<g>
</g>
<g>
</g>
<g>
</g>
<g>
</g>
<g>
</g>
<g>
</g>
<g>
</g>
<g>
</g>
<g>
</g>
<g>
</g>
</svg>
