<?xml version="1.0" encoding="iso-8859-1"?>
<!-- Generator: Adobe Illustrator 18.1.1, SVG Export Plug-In . SVG Version: 6.00 Build 0)  -->
<svg version="1.1" id="Capa_1" xmlns="http://www.w3.org/2000/svg" xmlns:xlink="http://www.w3.org/1999/xlink" x="0px" y="0px"
	 viewBox="0 0 461.158 461.158" style="enable-background:new 0 0 461.158 461.158;" xml:space="preserve">
<g>
	<g>
		<g>
			<path style="fill:#010002;" d="M439.496,45.105l-24.378-24.378C401.739,7.356,383.961,0,365.03,0
				c-18.94,0-36.749,7.364-50.113,20.728l-52.868,52.86c-15.615,15.615-22.906,37.001-20.159,58.826
				c-6.438,3.121-12.25,7.234-17.298,12.274L46.91,322.379c-25.402,25.402-3.91,46.902,8.958,59.769l6.178,6.088L0.927,449.34
				l11.843,11.819l61.078-61.078c1.268,1.284,2.536,2.577,3.78,3.804c9.876,9.876,17.802,16.574,26.784,19.419
				c11.469,3.625,22.28,0.195,32.961-10.461L315.047,235.16c4.958-4.958,9.023-10.64,12.079-16.932
				c3.219,0.439,6.446,0.658,9.657,0.658c18.793,0,36.481-7.34,49.853-20.712l52.868-52.86
				c13.372-13.372,20.728-31.149,20.728-50.113C460.224,76.254,452.867,58.477,439.496,45.105z M439.65,115.206
				c-63.395-23.768-87.976-79.693-93.649-95.047c6.088-2.292,12.494-3.43,19.045-3.43c14.485,0,28.052,5.609,38.253,15.81
				l24.378,24.386C442.853,72.084,447.527,95.283,439.65,115.206z M324.964,200.857c-35.611-18.915-62.021-60.249-65.752-66.321
				c-3.674-17.932,1.788-36.278,14.656-49.129l52.868-52.86c1.349-1.357,2.837-2.666,4.519-3.975
				c4.763,12.494,16.777,38.749,40.814,62.761c16.737,16.737,36.538,29.661,58.957,38.424c-1.097,1.357-2.203,2.601-3.341,3.731
				l-52.868,52.86C361.835,199.353,343.026,204.808,324.964,200.857z"/>
		</g>
	</g>
</g>
<g>
</g>
<g>
</g>
<g>
</g>
<g>
</g>
<g>
</g>
<g>
</g>
<g>
</g>
<g>
</g>
<g>
</g>
<g>
</g>
<g>
</g>
<g>
</g>
<g>
</g>
<g>
</g>
<g>
</g>
</svg>
