<?xml version="1.0" encoding="iso-8859-1"?>
<!-- Generator: Adobe Illustrator 18.1.1, SVG Export Plug-In . SVG Version: 6.00 Build 0)  -->
<svg version="1.1" id="Capa_1" xmlns="http://www.w3.org/2000/svg" xmlns:xlink="http://www.w3.org/1999/xlink" x="0px" y="0px"
	 viewBox="0 0 462.127 462.127" style="enable-background:new 0 0 462.127 462.127;" xml:space="preserve">
<g>
	<g>
		<path style="fill:#010002;" d="M456.784,3.896c-3.463-3.04-8.12-4.422-12.737-3.715l-71.044,10.77
			c-3.333,0.512-6.365,2.048-8.73,4.422l-183.942,183.95c-47.617-16.729-102.729-6.243-140.73,31.766
			c-52.795,52.779-52.795,138.682,0,191.452c52.779,52.779,138.673,52.779,191.444,0c34.66-34.66,46.406-83.562,35.53-128.033
			l75.701-75.718c3.951-3.934,5.511-9.73,4.097-15.103l-7.503-28.669l29.182,7.234c5.324,1.317,11.047-0.285,14.908-4.146
			l17.192-17.192c3.804-3.804,5.397-9.234,4.235-14.526l-3.138-14.087l19.882,1.097c4.219,0,8.161-1.626,11.128-4.593l23.532-23.532
			c2.886-2.878,4.528-6.706,4.609-10.795l1.715-78.392C462.238,11.44,460.304,7.002,456.784,3.896z M209.196,394.044
			c-38.903,38.895-102.192,38.895-141.096,0c-38.903-38.903-38.903-102.192,0-141.096l3.333-3.341l141.096,141.104L209.196,394.044z
			 M429.098,87.491l-14.087,14.111L381.4,99.724c-4.731,0-9.12,2.048-11.99,5.544c-3.17,3.723-4.414,8.795-3.357,13.591
			l5.771,25.922l-4.82,4.82l-46.252-11.469c-5.316-1.341-11.03,0.244-14.981,4.219c-3.877,3.926-5.414,9.681-4.016,15.022
			l11.916,45.553l-59.412,59.42c-6.072-11.226-13.762-21.793-23.24-31.254c-6.511-6.511-13.534-12.201-20.923-17.103L382.846,41.264
			l47.43-7.194L429.098,87.491z"/>
	</g>
</g>
<g>
</g>
<g>
</g>
<g>
</g>
<g>
</g>
<g>
</g>
<g>
</g>
<g>
</g>
<g>
</g>
<g>
</g>
<g>
</g>
<g>
</g>
<g>
</g>
<g>
</g>
<g>
</g>
<g>
</g>
</svg>
