<?xml version="1.0" encoding="iso-8859-1"?>
<!-- Generator: Adobe Illustrator 16.0.0, SVG Export Plug-In . SVG Version: 6.00 Build 0)  -->
<!DOCTYPE svg PUBLIC "-//W3C//DTD SVG 1.1//EN" "http://www.w3.org/Graphics/SVG/1.1/DTD/svg11.dtd">
<svg version="1.1" id="Capa_1" xmlns="http://www.w3.org/2000/svg" xmlns:xlink="http://www.w3.org/1999/xlink" x="0px" y="0px"
	 width="363.914px" height="363.914px" viewBox="0 0 363.914 363.914" style="enable-background:new 0 0 363.914 363.914;"
	 xml:space="preserve">
<g>
	<g>
		<g>
			<path d="M45.912,94.734V268.24h55.979l126.662,95.674V0L103.135,94.734H45.912z M99.703,257.905H56.255v-152.84h43.448V257.905z"
				/>
		</g>
		<g>
			<path d="M293.514,103.264l-7.182-10.085l-7.308,10.004c-1.64,2.246-3.314,4.441-4.966,6.518l-4.071,5.141l3.711,5.485
				c12.016,17.45,18.374,37.698,18.374,58.556c0,23.947-7.974,46.549-23.052,65.356l-4.323,5.386l5.854,7.788
				c0.876,1.009,1.783,1.951,2.69,2.834c0.504,0.505,0.99,1.01,1.561,1.634l6.99,7.434l6.442-7.872
				c19.468-23.701,29.767-52.248,29.767-82.554C318.008,151.765,309.528,125.614,293.514,103.264z"/>
		</g>
	</g>
</g>
<g>
</g>
<g>
</g>
<g>
</g>
<g>
</g>
<g>
</g>
<g>
</g>
<g>
</g>
<g>
</g>
<g>
</g>
<g>
</g>
<g>
</g>
<g>
</g>
<g>
</g>
<g>
</g>
<g>
</g>
</svg>
