<?xml version="1.0" encoding="iso-8859-1"?>
<!-- Generator: Adobe Illustrator 16.0.0, SVG Export Plug-In . SVG Version: 6.00 Build 0)  -->
<!DOCTYPE svg PUBLIC "-//W3C//DTD SVG 1.1//EN" "http://www.w3.org/Graphics/SVG/1.1/DTD/svg11.dtd">
<svg version="1.1" id="Capa_1" xmlns="http://www.w3.org/2000/svg" xmlns:xlink="http://www.w3.org/1999/xlink" x="0px" y="0px"
	 width="355.064px" height="355.063px" viewBox="0 0 355.064 355.063" style="enable-background:new 0 0 355.064 355.063;"
	 xml:space="preserve">
<g>
	<g>
		<path d="M32.612,92.432v169.281h54.614l123.573,93.351V0L88.444,92.432H32.612z M85.091,251.638H42.694v-149.13h42.397V251.638z"
			/>
		<path d="M266.138,140.017l-4.287-7.389l-7.422,4.093c-2.054,1.113-4.054,2.041-5.896,2.726l-9.896,3.534l5.368,9.139
			c5.236,8.761,7.999,18.753,7.999,28.901c0,9.68-2.511,19.281-7.272,27.748l-3.14,5.566l7.662,8.581
			c0.564,0.709,1.122,1.411,1.663,2.054l7.752,9.338l6.383-10.334c8.005-12.965,12.232-27.809,12.232-42.953
			C277.284,166.63,273.422,152.444,266.138,140.017z"/>
		<path d="M298.577,107.237l-7.014-9.818l-7.158,9.758c-1.573,2.188-3.206,4.33-4.81,6.35l-3.945,4.969l3.579,5.392
			c11.745,17.039,17.931,36.789,17.931,57.121c0,23.383-7.783,45.426-22.507,63.795l-4.167,5.242l5.681,7.596
			c0.829,0.985,1.741,1.892,2.66,2.799c0.492,0.492,0.979,0.984,1.471,1.537l6.81,7.313l6.305-7.728
			c18.994-23.125,29.04-50.987,29.04-80.543C322.452,154.566,314.201,129.049,298.577,107.237z"/>
	</g>
</g>
<g>
</g>
<g>
</g>
<g>
</g>
<g>
</g>
<g>
</g>
<g>
</g>
<g>
</g>
<g>
</g>
<g>
</g>
<g>
</g>
<g>
</g>
<g>
</g>
<g>
</g>
<g>
</g>
<g>
</g>
</svg>
