<?xml version="1.0" encoding="iso-8859-1"?>
<!-- Generator: Adobe Illustrator 16.0.0, SVG Export Plug-In . SVG Version: 6.00 Build 0)  -->
<!DOCTYPE svg PUBLIC "-//W3C//DTD SVG 1.1//EN" "http://www.w3.org/Graphics/SVG/1.1/DTD/svg11.dtd">
<svg version="1.1" id="Capa_1" xmlns="http://www.w3.org/2000/svg" xmlns:xlink="http://www.w3.org/1999/xlink" x="0px" y="0px"
	 width="327.099px" height="327.099px" viewBox="0 0 327.099 327.099" style="enable-background:new 0 0 327.099 327.099;"
	 xml:space="preserve">
<g>
	<g>
		<path d="M317.408,7.962V7.458h-64.149v0.237h-2.342H0C12.977,30.39,43.505,90.558,38.794,145.898l0.457,127.788
			c-1.078,25.544,20.062,45.954,45.162,45.954h133.706c22.218,0,40.736-15.996,44.705-37.067h-57.136
			c-3.309,0-6.004-2.685-6.004-5.993c0-3.332,2.695-5.998,6.004-5.998h57.946v-20.729h-57.946c-3.309,0-6.004-2.685-6.004-5.999
			s2.695-5.98,6.004-5.98h57.946v-21.653h-57.946c-3.309,0-6.004-2.666-6.004-5.975s2.695-5.999,6.004-5.999h57.946v-16.189h-85.22
			c-3.303,0-5.98-2.672-5.98-6.005c0-3.303,2.678-5.975,5.98-5.975h85.22V152.6h-55.22c-3.314,0-5.999-2.666-5.999-5.975
			s2.685-5.996,5.999-5.996h55.22v-20.734h-55.22c-3.314,0-5.999-2.688-5.999-5.996c0-3.306,2.685-5.975,5.999-5.975h55.22V86.268
			h-55.22c-3.314,0-5.999-2.669-5.999-5.978s2.685-5.996,5.999-5.996h55.22V48.131h-85.22c-3.303,0-5.98-2.687-5.98-5.995
			c0-3.309,2.678-5.993,5.98-5.993h74.844v0.366h44.784v136.075h29.057V7.962H317.408z"/>
	</g>
</g>
<g>
</g>
<g>
</g>
<g>
</g>
<g>
</g>
<g>
</g>
<g>
</g>
<g>
</g>
<g>
</g>
<g>
</g>
<g>
</g>
<g>
</g>
<g>
</g>
<g>
</g>
<g>
</g>
<g>
</g>
</svg>
