<?xml version="1.0" encoding="iso-8859-1"?>
<!-- Generator: Adobe Illustrator 18.1.1, SVG Export Plug-In . SVG Version: 6.00 Build 0)  -->
<svg version="1.1" id="Capa_1" xmlns="http://www.w3.org/2000/svg" xmlns:xlink="http://www.w3.org/1999/xlink" x="0px" y="0px"
	 viewBox="0 0 316.445 316.445" style="enable-background:new 0 0 316.445 316.445;" xml:space="preserve">
<g>
	<g>
		<g>
			<g>
				<path style="fill:#010002;" d="M173.707,15.485v16.513c0,8.534-6.957,15.48-15.485,15.48c-8.539,0-15.485-6.946-15.485-15.48
					V15.485C142.737,6.951,149.683,0,158.222,0C166.745,0,173.707,6.951,173.707,15.485z M115.901,120.008h22.697v-8.256h-22.697
					V96.44h22.697v-8.256h-22.697V72.807h22.697v-8.257h-22.697V42.316c0-15.349,8.257-28.773,20.505-36.186
					c-1.246,2.866-1.925,6.032-1.925,9.361v16.513c0,13.086,10.65,23.731,23.742,23.731c13.086,0,23.725-10.644,23.725-23.731
					V15.485c0-3.329-0.685-6.494-1.925-9.361c12.26,7.413,20.505,20.842,20.505,36.186v21.473h-22.703v8.257h22.703v15.387h-22.703
					v8.257h22.703v15.306h-22.703v8.257h22.703v13.897c0,24.052-19.379,44.372-42.305,44.372c-22.942,0-42.321-20.32-42.321-44.372
					V120.008z"/>
			</g>
		</g>
		<g>
			<path style="fill:#010002;" d="M237.089,137.94V55.141h-15.556v82.799c0,31.693-23.731,58.236-55.201,61.733l-8.284,0.925
				l-8.376-1.001c-31.22-3.709-54.766-30.214-54.766-61.657V55.141h-15.55v82.799c0,36.404,25.232,67.76,60.428,75.723v60.39
				h-22.501c-11.694,0-21.201,9.502-21.201,21.191s9.513,21.201,21.201,21.201h81.874c11.689,0,21.201-9.513,21.201-21.201
				c0-11.683-9.513-21.191-21.201-21.191h-23.056V213.82C211.618,206.075,237.089,174.648,237.089,137.94z"/>
		</g>
	</g>
</g>
<g>
</g>
<g>
</g>
<g>
</g>
<g>
</g>
<g>
</g>
<g>
</g>
<g>
</g>
<g>
</g>
<g>
</g>
<g>
</g>
<g>
</g>
<g>
</g>
<g>
</g>
<g>
</g>
<g>
</g>
</svg>
