<?xml version="1.0" encoding="iso-8859-1"?>
<!-- Generator: Adobe Illustrator 18.1.1, SVG Export Plug-In . SVG Version: 6.00 Build 0)  -->
<svg version="1.1" id="Capa_1" xmlns="http://www.w3.org/2000/svg" xmlns:xlink="http://www.w3.org/1999/xlink" x="0px" y="0px"
	 viewBox="0 0 457.679 457.679" style="enable-background:new 0 0 457.679 457.679;" xml:space="preserve">
<g>
	<g>
		<g>
			<path style="fill:#010002;" d="M222.016,278.599h12.168c36.245,0,65.736-29.482,65.736-65.728V65.728
				C299.92,29.482,270.43,0,234.184,0h-12.168c-36.245,0-65.736,29.482-65.736,65.728v147.152
				C156.28,249.116,185.77,278.599,222.016,278.599z M222.016,9.746h12.168c30.872,0,55.982,25.117,55.982,55.981v16.826H166.034
				V65.728C166.034,34.863,191.143,9.746,222.016,9.746z"/>
		</g>
		<g>
			<path style="fill:#010002;" d="M336.442,213.408l-8.129,0.813v8.129c0,49.219-40.041,89.252-89.252,89.252H218.61
				c-49.227,0-89.268-40.041-89.268-90.065v-8.129h-17.875l-8.129,0.813v8.129c0,62.623,50.21,113.743,112.491,115.231v94.096
				h-58.444v26.003h142.9v-26.003h-58.444v-94.104c62.289-1.479,112.499-52.616,112.499-116.035v-8.129H336.442z"/>
		</g>
	</g>
</g>
<g>
</g>
<g>
</g>
<g>
</g>
<g>
</g>
<g>
</g>
<g>
</g>
<g>
</g>
<g>
</g>
<g>
</g>
<g>
</g>
<g>
</g>
<g>
</g>
<g>
</g>
<g>
</g>
<g>
</g>
</svg>
