<?xml version="1.0" encoding="iso-8859-1"?>
<!-- Generator: Adobe Illustrator 16.0.0, SVG Export Plug-In . SVG Version: 6.00 Build 0)  -->
<!DOCTYPE svg PUBLIC "-//W3C//DTD SVG 1.1//EN" "http://www.w3.org/Graphics/SVG/1.1/DTD/svg11.dtd">
<svg version="1.1" id="Capa_1" xmlns="http://www.w3.org/2000/svg" xmlns:xlink="http://www.w3.org/1999/xlink" x="0px" y="0px"
	 width="346.188px" height="346.188px" viewBox="0 0 346.188 346.188" style="enable-background:new 0 0 346.188 346.188;"
	 xml:space="preserve">
<g>
	<path d="M224.898,174.77l-33.999,33.993C207.28,204.056,220.172,191.145,224.898,174.77z"/>
	<path d="M248.346,162.043v6.148c0,37.233-30.288,67.515-67.512,67.515h-15.471c-0.451,0-0.892-0.065-1.342-0.078l-17.642,17.643
		c5.456,1.213,11.094,1.934,16.874,2.078v71.181h-44.21v19.659h108.101v-19.659h-44.207V255.36
		c47.126-1.123,85.1-39.806,85.1-87.778v-6.149h-13.534L248.346,162.043z"/>
	<path d="M308.034,25.959l-81.166,81.167V49.72c0-27.418-22.302-49.72-49.723-49.72h-9.206c-27.417,0-49.726,22.302-49.726,49.72
		v111.314c0,14.991,6.726,28.375,17.252,37.496l-17.468,17.469c-12.391-12.322-20.164-29.357-20.164-48.417v-6.149h-13.52
		l-6.149,0.616v6.148c0,24.137,9.998,45.91,25.923,61.708L25.947,308.04l12.202,12.202L320.242,38.161L308.034,25.959z
		 M125.59,62.447V49.72c0-23.347,18.993-42.349,42.349-42.349h9.206c23.35,0,42.349,19.002,42.349,42.349v12.728H125.59z"/>
</g>
<g>
</g>
<g>
</g>
<g>
</g>
<g>
</g>
<g>
</g>
<g>
</g>
<g>
</g>
<g>
</g>
<g>
</g>
<g>
</g>
<g>
</g>
<g>
</g>
<g>
</g>
<g>
</g>
<g>
</g>
</svg>
