<?xml version="1.0" encoding="iso-8859-1"?>
<!-- Generator: Adobe Illustrator 16.0.0, SVG Export Plug-In . SVG Version: 6.00 Build 0)  -->
<!DOCTYPE svg PUBLIC "-//W3C//DTD SVG 1.1//EN" "http://www.w3.org/Graphics/SVG/1.1/DTD/svg11.dtd">
<svg version="1.1" id="Capa_1" xmlns="http://www.w3.org/2000/svg" xmlns:xlink="http://www.w3.org/1999/xlink" x="0px" y="0px"
	 width="344.104px" height="344.104px" viewBox="0 0 344.104 344.104" style="enable-background:new 0 0 344.104 344.104;"
	 xml:space="preserve">
<g>
	<g>
		<g>
			<path d="M177.36,97.539c-0.093-7.926,3.604-14.117,7.161-20.125c4.726-7.957,9.613-16.189,6.215-27.496
				c-3.459-10.374-9.995-15.465-15.799-19.978c-7.791-6.064-13.417-10.442-10.502-27.036l0.258-1.423l-8.4-1.48l-0.252,1.414
				c-3.831,21.68,5.467,28.895,13.658,35.257c5.3,4.128,10.305,8.014,12.913,15.816c2.276,7.617-1.122,13.337-5.419,20.573
				c-3.99,6.734-8.503,14.322-8.397,24.473C126.245,97.59,82.77,99.34,82.77,250.574c0,68.13,54.764,93.53,89.282,93.53
				c34.525,0,89.283-25.4,89.283-93.53C261.322,99.532,217.013,97.668,177.36,97.539z M176.312,224.387v-18.44
				c5.248-1.015,9.206-5.663,9.206-11.103v-55.731c0-5.449-3.958-10.091-9.206-11.106v-21.933
				c35.116,0.075,67.986,1.468,75.06,100.526C227.354,217.817,202.109,223.799,176.312,224.387z M176.985,194.844
				c0,1.549-1.268,2.81-2.816,2.81h-4.257c-1.549,0-2.816-1.261-2.816-2.81v-55.731c0-1.549,1.267-2.816,2.816-2.816h4.257
				c1.549,0,2.816,1.267,2.816,2.816V194.844z M167.768,128.007c-5.257,1.015-9.205,5.657-9.205,11.106v55.731
				c0,5.439,3.948,10.088,9.205,11.103v18.452c-39.256-0.924-67.854-14.021-75.072-17.666
				c7.059-99.202,39.941-100.583,75.072-100.658V128.007z"/>
		</g>
	</g>
</g>
<g>
</g>
<g>
</g>
<g>
</g>
<g>
</g>
<g>
</g>
<g>
</g>
<g>
</g>
<g>
</g>
<g>
</g>
<g>
</g>
<g>
</g>
<g>
</g>
<g>
</g>
<g>
</g>
<g>
</g>
</svg>
