<?xml version="1.0" encoding="iso-8859-1"?>
<!-- Generator: Adobe Illustrator 16.0.0, SVG Export Plug-In . SVG Version: 6.00 Build 0)  -->
<!DOCTYPE svg PUBLIC "-//W3C//DTD SVG 1.1//EN" "http://www.w3.org/Graphics/SVG/1.1/DTD/svg11.dtd">
<svg version="1.1" id="Capa_1" xmlns="http://www.w3.org/2000/svg" xmlns:xlink="http://www.w3.org/1999/xlink" x="0px" y="0px"
	 width="344.339px" height="344.339px" viewBox="0 0 344.339 344.339" style="enable-background:new 0 0 344.339 344.339;"
	 xml:space="preserve">
<g>
	<g>
		<g>
			<path d="M0,47.026V269.66h344.339V47.026H0z M220.28,179.072c0.24,4.875-1.796,10.484-6.017,15.294
				c-4.426,5.002-10.245,7.992-15.564,7.992c-3.051,0-5.771-0.973-7.879-2.822c-5.944-5.248-4.972-15.744,2.222-23.894
				c5.795-6.554,14.201-9.241,20.188-7.022v-40.86l-59.466,2.21v60.618c0.556,5.074-1.492,11.109-6.001,16.213
				c-4.414,5.021-10.241,8.005-15.562,8.005c-3.05,0-5.768-0.967-7.875-2.828c-5.941-5.248-4.975-15.745,2.219-23.888
				c5.651-6.413,13.766-9.108,19.726-7.157c-0.018-5.086-0.018-10.185-0.018-15.246l-0.012-5.065
				c-0.033-11.118-0.051-33.495-0.051-44.58c0-2.387,1.513-4.447,3.783-5.158l0.751-0.129l63.071-3.461
				c1.525-0.352,3.152,0.012,4.407,0.934c1.346,0.981,2.174,2.618,2.174,4.335l0.012,66.51H220.28L220.28,179.072z"/>
		</g>
		<g>
			<polygon points="107.225,297.312 169.506,297.312 233.19,297.312 233.19,280.553 107.225,280.553 			"/>
		</g>
	</g>
</g>
<g>
</g>
<g>
</g>
<g>
</g>
<g>
</g>
<g>
</g>
<g>
</g>
<g>
</g>
<g>
</g>
<g>
</g>
<g>
</g>
<g>
</g>
<g>
</g>
<g>
</g>
<g>
</g>
<g>
</g>
</svg>
