<?xml version="1.0" encoding="iso-8859-1"?>
<!-- Generator: Adobe Illustrator 18.1.1, SVG Export Plug-In . SVG Version: 6.00 Build 0)  -->
<svg version="1.1" id="Capa_1" xmlns="http://www.w3.org/2000/svg" xmlns:xlink="http://www.w3.org/1999/xlink" x="0px" y="0px"
	 viewBox="0 0 329.966 329.966" style="enable-background:new 0 0 329.966 329.966;" xml:space="preserve">
<g>
	<g>
		<g>
			<path style="fill:#010002;" d="M104.61,31.03v214.609c-8.882-1.806-18.64-1.545-28.158,0.8
				c-28.474,7.136-47.042,31.231-41.495,53.265c2.72,17.269,22.681,30.263,46.466,30.263c5.211,0,10.41-0.631,15.403-1.904
				c22.257-5.515,39.036-21.751,41.979-39.836h0.446l0.631-184.286L261.32,81.738v133.774c-9.034-1.882-19.015-1.637-28.702,0.767
				c-28.718,7.19-47.456,31.514-41.794,54.238c4.509,18.063,23.073,30.209,46.167,30.209l0,0c5.385,0,10.84-0.691,16.241-2.012
				c26.374-6.668,42.756-24.916,42.756-47.657V0L104.61,31.03z"/>
		</g>
	</g>
</g>
<g>
</g>
<g>
</g>
<g>
</g>
<g>
</g>
<g>
</g>
<g>
</g>
<g>
</g>
<g>
</g>
<g>
</g>
<g>
</g>
<g>
</g>
<g>
</g>
<g>
</g>
<g>
</g>
<g>
</g>
</svg>
