<?xml version="1.0" encoding="iso-8859-1"?>
<!-- Generator: Adobe Illustrator 18.1.1, SVG Export Plug-In . SVG Version: 6.00 Build 0)  -->
<svg version="1.1" id="Capa_1" xmlns="http://www.w3.org/2000/svg" xmlns:xlink="http://www.w3.org/1999/xlink" x="0px" y="0px"
	 viewBox="0 0 295.194 295.194" style="enable-background:new 0 0 295.194 295.194;" xml:space="preserve">
<g>
	<g>
		<g>
			<polygon style="fill:#010002;" points="129.689,140.428 155.981,140.428 180.305,112.858 105.012,112.912 			"/>
		</g>
		<g>
			<path style="fill:#010002;" d="M294.656,115.991c-0.664-1.207-11.672-20.195-53.531-33.075
				c-27.717-30.72-59.324-46.373-91.795-46.471c-0.114,0-0.228,0-0.332,0c-54.635,0-93.563,43.583-95.243,45.438l0.936,0.848
				c-42.376,12.88-53.515,32.058-54.173,33.265L0,116.959v94.89c0,25.857,19.347,46.901,43.121,46.901h208.947
				c23.774,0,43.126-21.044,43.126-46.901v-94.895L294.656,115.991z M148.998,44.967c0.103,0,0.201,0,0.305,0
				c26.336,0.087,52.536,11.444,75.897,33.749c-19.983-4.514-45.367-7.577-77.61-7.577c-32.618,0-58.203,3.133-78.284,7.734
				C83.751,66.397,112.73,44.967,148.998,44.967z M81.379,185.807c0,17.187-9.159,31.71-20.01,31.71H8.931
				c-0.245-1.86-0.419-3.742-0.419-5.678v-74.532h52.857c10.851,0,20.01,14.517,20.01,31.715V185.807z M192.956,111.406
				l-31.84,36.11c-0.821,0.919-1.969,1.436-3.209,1.436h-30.116c-1.207,0-2.371-0.517-3.176-1.409l-32.33-36.034
				c-1.131-1.251-1.409-3.046-0.734-4.585c0.691-1.539,2.214-2.513,3.894-2.513l94.292-0.087c1.686,0,3.209,0.979,3.9,2.502
				C194.321,108.36,194.06,110.138,192.956,111.406z M286.644,211.843c0,1.936-0.169,3.818-0.413,5.678h-52.248
				c-10.84,0-20.016-14.522-20.016-31.71v-16.79c0-17.193,9.176-31.715,20.016-31.715h52.666v74.537H286.644z"/>
		</g>
	</g>
</g>
<g>
</g>
<g>
</g>
<g>
</g>
<g>
</g>
<g>
</g>
<g>
</g>
<g>
</g>
<g>
</g>
<g>
</g>
<g>
</g>
<g>
</g>
<g>
</g>
<g>
</g>
<g>
</g>
<g>
</g>
</svg>
