<?xml version="1.0" encoding="iso-8859-1"?>
<!-- Generator: Adobe Illustrator 16.0.0, SVG Export Plug-In . SVG Version: 6.00 Build 0)  -->
<!DOCTYPE svg PUBLIC "-//W3C//DTD SVG 1.1//EN" "http://www.w3.org/Graphics/SVG/1.1/DTD/svg11.dtd">
<svg version="1.1" id="Capa_1" xmlns="http://www.w3.org/2000/svg" xmlns:xlink="http://www.w3.org/1999/xlink" x="0px" y="0px"
	 width="340.472px" height="340.471px" viewBox="0 0 340.472 340.471" style="enable-background:new 0 0 340.472 340.471;"
	 xml:space="preserve">
<g>
	<g>
		<g>
			<path d="M305.17,100.709c-19.468,0-35.29,15.841-35.29,35.302v121.513h22.38V136.012c0-7.116,5.794-12.901,12.916-12.901
				c6.425,0,11.764,4.717,12.742,10.866l-0.132,152.828c0,16.026-18.387,29.46-41.397,30.606
				c-20.398-0.919-36.383-12.352-36.383-26.007l0.126-290.872H0v286.284c0,29.292,30.31,53.124,67.557,53.124h205.067
				c6.539,0,8.707-0.294,8.707-0.294l2.492-0.433c32.312-4.227,56.354-26.391,56.354-52.397l0.294-150.792
				C340.478,116.55,324.638,100.709,305.17,100.709z M22.407,22.915h195.32l-0.113,268.489c0,9.439,3.351,18.423,9.607,26.133
				H67.557c-24.902,0-45.156-13.787-45.156-30.721V22.915H22.407z"/>
		</g>
		<g>
			<g>
				<rect x="30.504" y="131.487" width="79.149" height="9.377"/>
			</g>
		</g>
		<g>
			<g>
				<rect x="38.131" y="45.775" width="163.192" height="9.397"/>
			</g>
		</g>
		<g>
			<g>
				<rect x="71.599" y="73.367" width="96.266" height="9.389"/>
			</g>
		</g>
		<g>
			<g>
				<rect x="30.504" y="154.906" width="79.149" height="9.392"/>
			</g>
		</g>
		<g>
			<g>
				<rect x="30.504" y="178.027" width="79.149" height="9.397"/>
			</g>
		</g>
		<g>
			<g>
				<rect x="30.504" y="201.5" width="79.149" height="9.385"/>
			</g>
		</g>
		<g>
			<g>
				<rect x="30.504" y="227.447" width="79.149" height="9.386"/>
			</g>
		</g>
		<g>
			<g>
				<rect x="126.293" y="132.892" width="79.149" height="9.392"/>
			</g>
		</g>
		<g>
			<g>
				<rect x="126.293" y="156.308" width="79.149" height="9.392"/>
			</g>
		</g>
		<g>
			<g>
				<rect x="126.293" y="179.426" width="79.149" height="9.392"/>
			</g>
		</g>
		<g>
			<g>
				<rect x="126.293" y="202.899" width="79.149" height="9.386"/>
			</g>
		</g>
		<g>
			<g>
				<rect x="126.293" y="228.846" width="79.149" height="9.391"/>
			</g>
		</g>
	</g>
</g>
<g>
</g>
<g>
</g>
<g>
</g>
<g>
</g>
<g>
</g>
<g>
</g>
<g>
</g>
<g>
</g>
<g>
</g>
<g>
</g>
<g>
</g>
<g>
</g>
<g>
</g>
<g>
</g>
<g>
</g>
</svg>
