<?xml version="1.0" encoding="iso-8859-1"?>
<!-- Generator: Adobe Illustrator 18.1.1, SVG Export Plug-In . SVG Version: 6.00 Build 0)  -->
<svg version="1.1" id="Capa_1" xmlns="http://www.w3.org/2000/svg" xmlns:xlink="http://www.w3.org/1999/xlink" x="0px" y="0px"
	 viewBox="0 0 317.571 317.571" style="enable-background:new 0 0 317.571 317.571;" xml:space="preserve">
<g>
	<g>
		<path style="fill:#010002;" d="M250.216,0H67.36c-8.42,0-15.278,6.598-15.278,14.702v288.172c0,8.104,6.853,14.696,15.278,14.696
			h182.856c8.42,0,15.273-6.592,15.273-14.696V14.702C265.483,6.603,258.63,0,250.216,0z M133.227,17.1h51.116v3.59h-51.116
			C133.227,20.69,133.227,17.1,133.227,17.1z M160.015,302.107c-4.683,0-8.496-3.813-8.496-8.507c0-4.678,3.813-8.49,8.496-8.49
			c4.694,0,8.501,3.807,8.501,8.49C168.516,298.289,164.708,302.107,160.015,302.107z M255.144,270.164H62.427V43.714h192.717
			V270.164z"/>
	</g>
</g>
<g>
</g>
<g>
</g>
<g>
</g>
<g>
</g>
<g>
</g>
<g>
</g>
<g>
</g>
<g>
</g>
<g>
</g>
<g>
</g>
<g>
</g>
<g>
</g>
<g>
</g>
<g>
</g>
<g>
</g>
</svg>
