<?xml version="1.0" encoding="iso-8859-1"?>
<!-- Generator: Adobe Illustrator 18.1.1, SVG Export Plug-In . SVG Version: 6.00 Build 0)  -->
<svg version="1.1" id="Capa_1" xmlns="http://www.w3.org/2000/svg" xmlns:xlink="http://www.w3.org/1999/xlink" x="0px" y="0px"
	 viewBox="0 0 474.855 474.855" style="enable-background:new 0 0 474.855 474.855;" xml:space="preserve">
<g>
	<g>
		<g>
			<path style="fill:#010002;" d="M415.35,40.667V0h-17.103v40.667h-61.623V0h-17.119v40.667H250.73V0h-17.127v40.667h-71.41V0
				h-17.111v40.667H76.624V0H59.505v40.667H3.849v261.911h123.408l-69.678-69.703l21.638-21.655l106.647,106.647L79.201,424.539
				l-21.622-21.671l69.662-69.678H3.849v35.481v106.184h467.157V40.667H415.35z M455.481,137.259H19.383V56.185h40.123v36.554
				h17.119V56.185h68.459v36.554h17.103V56.185h71.41v36.554h17.119V56.185h68.776v36.554h17.119V56.185h61.623v36.554h17.103
				V56.185h40.139v81.074H455.481z"/>
		</g>
	</g>
</g>
<g>
</g>
<g>
</g>
<g>
</g>
<g>
</g>
<g>
</g>
<g>
</g>
<g>
</g>
<g>
</g>
<g>
</g>
<g>
</g>
<g>
</g>
<g>
</g>
<g>
</g>
<g>
</g>
<g>
</g>
</svg>
