<?xml version="1.0" encoding="iso-8859-1"?>
<!-- Generator: Adobe Illustrator 18.1.1, SVG Export Plug-In . SVG Version: 6.00 Build 0)  -->
<svg version="1.1" id="Capa_1" xmlns="http://www.w3.org/2000/svg" xmlns:xlink="http://www.w3.org/1999/xlink" x="0px" y="0px"
	 viewBox="0 0 306.812 306.812" style="enable-background:new 0 0 306.812 306.812;" xml:space="preserve">
<g>
	<path style="fill:#010002;" d="M24.946,306.812L0.008,281.88l48.272-48.272l24.938,24.938L24.946,306.812z M138.313,132.708
		l5.194-5.194l2.72,2.72l5.722-5.716l-2.725-2.725l20.951-20.962l2.73,2.725l5.727-5.716l-2.72-2.725l21.941-21.947l2.73,2.72
		l5.711-5.716l-2.73-2.73l4.112-4.096l18.194-18.194l2.73,2.725l5.711-5.722l-2.73-2.73l3.584-3.584l-7.413-7.413l-3.59,3.59v-0.011
		l-5.727,5.716l0,0l-16.431,16.453l-5.852,5.852V60.02l-5.662,5.657l0,0l-0.033,0.027l-0.033,0.033l0,0l-11.014,11.03
		l-10.933,10.922l0,0l-5.706,5.716l0,0l-25.085,25.074l-1.61,1.605l0,0l-5.194,5.2L138.313,132.708z M281.855,0l-44.802,44.823
		l4.417,4.411c4.971-4.346,9.605-6.657,10.987-5.276c1.621,1.615-1.817,7.696-7.696,13.576c-5.863,5.869-11.944,9.301-13.576,7.685
		c-1.333-1.349,0.821-5.727,4.917-10.535l-4.465-4.465l-22.85,22.866l4.438,4.444c4.873-4.226,9.393-6.451,10.753-5.102
		c1.615,1.632-1.817,7.702-7.702,13.576c-5.852,5.874-11.933,9.333-13.554,7.702c-1.371-1.365,0.859-5.869,5.091-10.753
		l-4.438-4.449l-22.159,22.153l4.449,4.449c4.879-4.21,9.382-6.456,10.753-5.102c1.615,1.632-1.817,7.707-7.696,13.592
		c-5.863,5.869-11.944,9.301-13.576,7.685c-1.349-1.365,0.876-5.869,5.102-10.753l-4.487-4.444l-21.354,21.365l4.455,4.46
		c4.814-4.145,9.263-6.315,10.59-4.966c1.637,1.615-1.8,7.696-7.675,13.57c-5.88,5.874-11.961,9.312-13.587,7.685
		c-1.371-1.371,0.925-5.945,5.222-10.9l-4.427-4.427l-95.287,95.298l24.933,24.927L306.804,24.944L281.855,0z"/>
</g>
<g>
</g>
<g>
</g>
<g>
</g>
<g>
</g>
<g>
</g>
<g>
</g>
<g>
</g>
<g>
</g>
<g>
</g>
<g>
</g>
<g>
</g>
<g>
</g>
<g>
</g>
<g>
</g>
<g>
</g>
</svg>
