<?xml version="1.0" encoding="iso-8859-1"?>
<!-- Generator: Adobe Illustrator 18.1.1, SVG Export Plug-In . SVG Version: 6.00 Build 0)  -->
<svg version="1.1" id="Capa_1" xmlns="http://www.w3.org/2000/svg" xmlns:xlink="http://www.w3.org/1999/xlink" x="0px" y="0px"
	 viewBox="0 0 449.681 449.681" style="enable-background:new 0 0 449.681 449.681;" xml:space="preserve">
<g>
	<g>
		<g>
			<path style="fill:#010002;" d="M448.535,244.975l1.146-0.78L331.166,69.772l-2.073-0.805
				c-0.496-0.179-47.325-17.55-77.319,29.466l12.03,7.681c20.72-32.482,50.275-26.719,58.176-24.467l105.55,155.361
				c-14.355-3.268-37.684-7.121-68.239-7.121c-30.336,0-61.525,3.829-92.69,11.372l-5.365,1.292l-0.098,6.787
				c-27.97-11.99-58.843-4.227-73.751,1.008l-0.146-7.795l-5.373-1.292c-31.141-7.543-62.33-11.372-92.658-11.372
				c-28.621,0-50.909,3.381-65.419,6.487L128.927,81.632c7.917-2.341,37.326-8.218,58.168,24.483l12.03-7.681
				c-29.986-47.016-76.848-29.653-77.311-29.466l-2.081,0.805L2.536,242.269L0,243.195l0.122,61.281
				C0,305.663-2.17,334.17,18.785,356.979c16.46,17.923,42.114,27.019,76.238,27.019c35.603,0,61.745-9.071,77.652-26.954
				c18.452-20.744,15.786-45.455,15.721-45.788l-0.756-45.731c10.494-4.154,45.618-15.859,73.238-0.39l-0.732,45.414
				c-0.13,1.04-2.788,25.751,15.688,46.495c15.916,17.883,42.057,26.954,77.66,26.954c34.116,0,59.769-9.096,76.238-27.019
				c20.939-22.809,18.769-51.316,18.696-51.893L448.535,244.975z"/>
		</g>
	</g>
</g>
<g>
</g>
<g>
</g>
<g>
</g>
<g>
</g>
<g>
</g>
<g>
</g>
<g>
</g>
<g>
</g>
<g>
</g>
<g>
</g>
<g>
</g>
<g>
</g>
<g>
</g>
<g>
</g>
<g>
</g>
</svg>
