<?xml version="1.0" encoding="iso-8859-1"?>
<!-- Generator: Adobe Illustrator 18.1.1, SVG Export Plug-In . SVG Version: 6.00 Build 0)  -->
<svg version="1.1" id="Capa_1" xmlns="http://www.w3.org/2000/svg" xmlns:xlink="http://www.w3.org/1999/xlink" x="0px" y="0px"
	 viewBox="0 0 442.977 442.977" style="enable-background:new 0 0 442.977 442.977;" xml:space="preserve">
<g>
	<g>
		<g>
			<path style="fill:#010002;" d="M440.179,79.624l0.276-0.382l-2.471-3.39c-7.584-10.47-15.989-18.931-25.759-25.857
				c-10.063-6.934-22.866-14.014-41.635-14.014h-0.016c-9.771,0.293-20.037,3.91-28.149,9.86
				c-7.267,5.219-13.485,12.25-18.46,20.923c-1.406,2.439-2.707,4.983-3.91,7.706h-39.806v43.902h29.661
				c24.914,96.681,21.459,166.571-10.266,207.775c-27.003,35.075-65.947,36.855-73.49,36.855l-2.154-0.024
				c-37.424,0-65.297-12.242-82.846-36.384c-44.984-61.883-12.16-184.389-5.17-208.222h25.841V74.471h-38.79
				c-1.187-2.674-2.471-5.235-3.894-7.738c-5.015-8.665-11.209-15.696-18.419-20.866c-8.169-5.974-18.46-9.592-28.409-9.901
				c-18.598,0-31.384,7.096-41.513,14.062c-9.706,6.893-18.119,15.347-25.703,25.816l-2.528,3.609l0.211,0.301
				C0.943,83.388,0,87.355,0,91.419c0,14.51,11.786,26.312,26.312,26.312c14.51,0,26.312-11.803,26.312-26.312
				c0-7.682-3.39-14.761-8.844-19.647c9.657-3.568,17.013-4.796,24.256-3.52c7.031,1.032,13.144,6.373,16.403,14.388
				c3.056,7.137,4.739,15.981,5.267,27.824c0.788,20.72-2.227,41.667-5.625,61.273c-3.113,18.631-6.609,40.74-8.974,63.549
				c-1.861,20.606-3.178,42.821-0.358,65.419c2.943,25.564,13.063,47.666,28.483,62.175c12.477,12.038,26.19,21.061,43.228,28.344
				c1.52,0.65,37.782,15.786,81.96,15.786c26.215,0,49.723-5.365,70.076-16.103c30.807-17.769,40.935-27.67,41.253-27.987
				c15.452-14.526,25.597-36.635,28.564-62.175c2.804-22.744,1.463-44.886-0.415-65.516c-2.057-20.313-5.056-40.066-8.925-63.533
				c-3.398-19.647-6.413-40.667-5.666-61.192c0.553-11.851,2.227-20.703,5.324-27.946c3.235-7.925,9.356-13.266,16.501-14.331
				c6.609-1.179,14.493,0,24.085,3.536c-5.471,4.877-8.86,11.973-8.86,19.655c0,14.51,11.803,26.312,26.304,26.312
				c14.526,0,26.312-11.803,26.312-26.312C443.024,87.322,442.056,83.315,440.179,79.624z M26.345,106.002
				c-8.055,0-14.583-6.535-14.583-14.575c0-3.056,1.008-6.023,2.902-8.608l1.821-2.544c1.325-1.74,2.642-3.39,4.024-4.975
				l8.901,1.894c6.674,1.414,11.51,7.405,11.51,14.233C40.911,99.466,34.384,106.002,26.345,106.002z M416.711,106.002
				c-8.031,0-14.566-6.535-14.566-14.575c0-6.836,4.837-12.835,11.526-14.249l8.966-1.87c1.13,1.325,2.252,2.682,3.357,4.097
				l-0.041,0.049l2.471,3.398c1.87,2.585,2.878,5.56,2.878,8.584C431.302,99.466,424.742,106.002,416.711,106.002z"/>
		</g>
		<g>
			<path style="fill:#010002;" d="M259.09,39.924h-82.529v30.588h82.529C259.09,70.512,259.09,39.924,259.09,39.924z
				 M192.745,59.913c-2.609,0-4.698-2.105-4.698-4.69c0-2.585,2.089-4.698,4.698-4.698c2.585,0,4.682,2.113,4.682,4.698
				C197.427,57.807,195.33,59.913,192.745,59.913z M242.809,59.913c-2.585,0-4.682-2.105-4.682-4.69
				c0-2.585,2.097-4.698,4.682-4.698c2.577,0,4.69,2.113,4.69,4.698C247.499,57.807,245.394,59.913,242.809,59.913z"/>
		</g>
		<g>
			<path style="fill:#010002;" d="M272.673,81.713H166.75v30.563h105.923V81.713z M183.177,101.685c-2.609,0-4.698-2.105-4.698-4.69
				c0-2.593,2.089-4.69,4.698-4.69c2.585,0,4.674,2.089,4.674,4.69C187.851,99.58,185.762,101.685,183.177,101.685z
				 M257.196,101.685c-2.577,0-4.69-2.105-4.69-4.69c0-2.593,2.113-4.69,4.69-4.69c2.585,0,4.698,2.089,4.698,4.69
				C261.895,99.58,259.781,101.685,257.196,101.685z"/>
		</g>
		<g>
			<path style="fill:#010002;" d="M157.629,155.106h124.14v-30.555h-124.14V155.106z M266.073,135.134
				c2.585,0,4.698,2.105,4.698,4.69c0,2.585-2.113,4.698-4.698,4.698c-2.577,0-4.674-2.113-4.674-4.698
				C261.399,137.24,263.496,135.134,266.073,135.134z M173.342,135.134c2.585,0,4.698,2.105,4.698,4.69
				c0,2.585-2.113,4.698-4.698,4.698c-2.585,0-4.698-2.113-4.698-4.698C168.644,137.24,170.757,135.134,173.342,135.134z"/>
		</g>
		<g>
			<path style="fill:#010002;" d="M151.492,199.537h140.364v-30.563H151.492V199.537z M272.145,179.557
				c2.585,0,4.698,2.105,4.698,4.698c0,2.585-2.113,4.674-4.698,4.674c-2.585,0-4.698-2.089-4.698-4.674
				C267.438,181.662,269.552,179.557,272.145,179.557z M168.644,179.557c2.585,0,4.698,2.105,4.698,4.698
				c0,2.585-2.113,4.674-4.698,4.674s-4.674-2.089-4.674-4.674C163.97,181.662,166.059,179.557,168.644,179.557z"/>
		</g>
		<g>
			<path style="fill:#010002;" d="M144.859,244.521h155.882v-30.572H144.859V244.521z M283.671,224.541
				c2.585,0,4.698,2.097,4.698,4.69c0,2.577-2.113,4.69-4.698,4.69s-4.674-2.113-4.674-4.69
				C278.989,226.638,281.078,224.541,283.671,224.541z M160.71,224.541c2.585,0,4.682,2.097,4.682,4.69
				c0,2.577-2.089,4.69-4.682,4.69c-2.585,0-4.698-2.113-4.698-4.69C156.012,226.638,158.125,224.541,160.71,224.541z"/>
		</g>
		<g>
			<path style="fill:#010002;" d="M135.975,287.358h176.983v-30.58H135.975V287.358z M294.645,267.378
				c2.577,0,4.69,2.113,4.69,4.698s-2.113,4.674-4.69,4.674c-2.585,0-4.698-2.089-4.698-4.674S292.06,267.378,294.645,267.378z
				 M150.566,267.378c2.585,0,4.674,2.113,4.674,4.698s-2.089,4.674-4.674,4.674c-2.585,0-4.698-2.089-4.698-4.674
				S147.981,267.378,150.566,267.378z"/>
		</g>
	</g>
</g>
<g>
</g>
<g>
</g>
<g>
</g>
<g>
</g>
<g>
</g>
<g>
</g>
<g>
</g>
<g>
</g>
<g>
</g>
<g>
</g>
<g>
</g>
<g>
</g>
<g>
</g>
<g>
</g>
<g>
</g>
</svg>
