<?xml version="1.0" encoding="iso-8859-1"?>
<!-- Generator: Adobe Illustrator 18.1.1, SVG Export Plug-In . SVG Version: 6.00 Build 0)  -->
<svg version="1.1" id="Capa_1" xmlns="http://www.w3.org/2000/svg" xmlns:xlink="http://www.w3.org/1999/xlink" x="0px" y="0px"
	 viewBox="0 0 311.214 311.214" style="enable-background:new 0 0 311.214 311.214;" xml:space="preserve">
<g>
	<g>
		<g>
			<path style="fill:#010002;" d="M303.218,30.289l-13.625-13.543l-0.37,0.37c-5.798-4.531-12.488-8.338-19.7-11.156
				c-6.853-2.605-13.407-4.237-19.945-4.982c-52.618-6.331-100.715,17.704-165.94,82.94C-6.547,174.114,0.262,246.813,0.594,249.929
				c0.821,6.837,2.448,13.38,5.031,20.038c2.779,7.141,6.576,13.804,11.117,19.602l-0.272,0.299l13.451,13.712
				c9.926,9.915,25.759,10.209,35.332,0.658l48.076-48.06c9.535-9.573,9.241-25.422-0.664-35.332l-24.215-24.215
				c0.843-1.528,1.719-3.122,2.66-4.775c8.479-15.284,20.086-36.208,42.126-58.242c22.083-22.093,43.05-33.711,58.356-42.196
				c1.621-0.903,3.171-1.762,4.656-2.605l16.225,16.246l7.99,7.979c9.943,9.915,25.776,10.209,35.348,0.658l48.06-48.076
				C313.438,56.065,313.139,40.215,303.218,30.289z"/>
		</g>
	</g>
</g>
<g>
</g>
<g>
</g>
<g>
</g>
<g>
</g>
<g>
</g>
<g>
</g>
<g>
</g>
<g>
</g>
<g>
</g>
<g>
</g>
<g>
</g>
<g>
</g>
<g>
</g>
<g>
</g>
<g>
</g>
</svg>
