<?xml version="1.0" encoding="iso-8859-1"?>
<!-- Generator: Adobe Illustrator 16.0.0, SVG Export Plug-In . SVG Version: 6.00 Build 0)  -->
<!DOCTYPE svg PUBLIC "-//W3C//DTD SVG 1.1//EN" "http://www.w3.org/Graphics/SVG/1.1/DTD/svg11.dtd">
<svg version="1.1" id="Capa_1" xmlns="http://www.w3.org/2000/svg" xmlns:xlink="http://www.w3.org/1999/xlink" x="0px" y="0px"
	 width="348.866px" height="348.866px" viewBox="0 0 348.866 348.866" style="enable-background:new 0 0 348.866 348.866;"
	 xml:space="preserve">
<g>
	<g>
		<path d="M346.969,324.512v-6.132h-0.858L330.51,207.298V0H18.347v207.298L2.759,318.38H2.354v2.883l-0.679,4.9h0.679v22.703
			h344.609v-22.703h0.229L346.969,324.512z M166.546,13.024c2.726,0,4.951,2.201,4.951,4.936c0,2.738-2.225,4.963-4.951,4.963
			c-2.741,0-4.948-2.219-4.948-4.963C161.598,15.226,163.805,13.024,166.546,13.024z M27.49,36.642h293.869v137.141H27.49V36.642z
			 M284.561,248.989l3.099,27.682h-32.918l-2.474-27.682H284.561z M251.456,239.855L249,212.186h31.466l3.086,27.67H251.456z
			 M243.104,248.989l2.45,27.682h-37.771l-0.925-27.682H243.104z M206.541,239.855l-0.907-27.67h34.203l2.438,27.67H206.541z
			 M197.72,248.989l0.925,27.682h-41.77l0.946-27.682H197.72z M158.118,239.855l0.928-27.67h37.437l0.925,27.67H158.118z
			 M111.109,239.855l2.471-27.67h36.335l-0.948,27.67H111.109z M148.678,248.989l-0.946,27.682h-39.896l2.477-27.682H148.678z
			 M67.926,239.855L71,212.186h33.393l-2.453,27.67H67.926z M101.129,248.989l-2.453,27.682H63.831l3.075-27.682H101.129z
			 M26.91,212.186h34.909l-8.22,73.637h244.293l-8.227-73.637h32.294l14.724,104.844H207.855v-22.866h-81.302v22.866H12.198
			L26.91,212.186z M198.704,303.296v13.733h-63.026v-13.733H198.704z"/>
	</g>
</g>
<g>
</g>
<g>
</g>
<g>
</g>
<g>
</g>
<g>
</g>
<g>
</g>
<g>
</g>
<g>
</g>
<g>
</g>
<g>
</g>
<g>
</g>
<g>
</g>
<g>
</g>
<g>
</g>
<g>
</g>
</svg>
