<?xml version="1.0" encoding="iso-8859-1"?>
<!-- Generator: Adobe Illustrator 18.1.1, SVG Export Plug-In . SVG Version: 6.00 Build 0)  -->
<svg version="1.1" id="Capa_1" xmlns="http://www.w3.org/2000/svg" xmlns:xlink="http://www.w3.org/1999/xlink" x="0px" y="0px"
	 viewBox="0 0 312.931 312.931" style="enable-background:new 0 0 312.931 312.931;" xml:space="preserve">
<g>
	<g>
		<g>
			<g>
				<path style="fill:#010002;" d="M282.603,80.324h-4.465V19.619C278.137,8.79,269.332,0,258.519,0h-8.648l-0.952,0.071
					C183.248,10.916,30.181,56.577,28.68,57.023C10.704,62.277,10.704,75.429,10.704,83.31v16.638v169.829v23.535
					c0,10.807,8.811,19.619,19.619,19.619h252.28c10.829,0,19.624-8.811,19.624-19.619v-46.95v-78.252V99.948
					C302.232,89.119,293.438,80.324,282.603,80.324z M32.003,68.266c1.518-0.462,153.153-45.715,218.346-56.561h8.169
					c4.362,0,7.919,3.557,7.919,7.914V80.33H30.323c-2.823,0-5.488,0.625-7.898,1.697C22.442,75.375,22.996,70.893,32.003,68.266z
					 M290.522,234.679h-77.006c-4.362,0-7.914-3.573-7.914-7.936v-39.014c0-4.362,3.552-7.914,7.914-7.914h77.006V234.679z"/>
			</g>
		</g>
		<g>
			<g>
				<circle style="fill:#010002;" cx="225.759" cy="206.951" r="8.605"/>
			</g>
		</g>
	</g>
</g>
<g>
</g>
<g>
</g>
<g>
</g>
<g>
</g>
<g>
</g>
<g>
</g>
<g>
</g>
<g>
</g>
<g>
</g>
<g>
</g>
<g>
</g>
<g>
</g>
<g>
</g>
<g>
</g>
<g>
</g>
</svg>
