<?xml version="1.0" encoding="iso-8859-1"?>
<!-- Generator: Adobe Illustrator 18.1.1, SVG Export Plug-In . SVG Version: 6.00 Build 0)  -->
<svg version="1.1" id="Capa_1" xmlns="http://www.w3.org/2000/svg" xmlns:xlink="http://www.w3.org/1999/xlink" x="0px" y="0px"
	 viewBox="0 0 312.095 312.095" style="enable-background:new 0 0 312.095 312.095;" xml:space="preserve">
<g>
	<g>
		<path style="fill:#010002;" d="M238.46,118.981h-15.79l9.404-35.941c8.311-31.759-10.758-64.36-42.523-72.677l-32.139-8.414
			c-31.77-8.316-64.382,10.758-72.699,42.517l13.69,3.584c6.331-24.215,31.198-38.759,55.408-32.417l32.156,8.409
			c24.204,6.342,38.759,31.204,32.428,55.424l-10.345,39.52H73.635c-11.689,0-21.218,9.518-21.218,21.218v150.689
			c0,11.689,9.524,21.201,21.218,21.201h164.831c11.689,0,21.212-9.513,21.212-21.201v-150.7
			C259.678,128.494,250.154,118.981,238.46,118.981z M170.428,233.653v29.757c0,7.941-6.462,14.392-14.386,14.392
			c-7.93,0-14.37-6.451-14.37-14.392v-29.768c-7.636-4.89-12.298-13.266-12.298-22.333c0-14.702,11.966-26.668,26.668-26.668
			c14.718,0,26.684,11.966,26.684,26.668C182.721,220.371,178.065,228.747,170.428,233.653z"/>
	</g>
</g>
<g>
</g>
<g>
</g>
<g>
</g>
<g>
</g>
<g>
</g>
<g>
</g>
<g>
</g>
<g>
</g>
<g>
</g>
<g>
</g>
<g>
</g>
<g>
</g>
<g>
</g>
<g>
</g>
<g>
</g>
</svg>
