<?xml version="1.0" encoding="iso-8859-1"?>
<!-- Generator: Adobe Illustrator 16.0.0, SVG Export Plug-In . SVG Version: 6.00 Build 0)  -->
<!DOCTYPE svg PUBLIC "-//W3C//DTD SVG 1.1//EN" "http://www.w3.org/Graphics/SVG/1.1/DTD/svg11.dtd">
<svg version="1.1" id="Capa_1" xmlns="http://www.w3.org/2000/svg" xmlns:xlink="http://www.w3.org/1999/xlink" x="0px" y="0px"
	 width="343.107px" height="343.107px" viewBox="0 0 343.107 343.107" style="enable-background:new 0 0 343.107 343.107;"
	 xml:space="preserve">
<g>
	<g>
		<g>
			<path d="M137.418,250.172c34.795,0,54.985-10.238,60.805-13.68c16.615,5.141,30.948,7.734,42.634,7.734
				c16.261,0,27.881-4.972,34.533-14.771c12.328-18.213,2.673-46.537,0.77-51.605v-75.408c1.897-5.065,11.559-33.398-0.781-51.611
				c-11.421-16.855-37.38-19.338-77.155-7.041c-5.812-3.438-26.01-13.682-60.808-13.682c-33.399,0-49.251,9.554-54.428,13.571
				c-39.581-12.181-65.425-9.656-76.825,7.157c-12.328,18.207-2.669,46.534-0.774,51.6v75.402
				c-1.883,5.062-11.542,33.398,0.792,51.617c11.388,16.789,37.233,19.311,76.813,7.14
				C88.164,240.611,104.023,250.172,137.418,250.172z M38.309,212.341V67.842H241.62v144.499H38.309z"/>
		</g>
		<g>
			<path d="M337.708,240.678v-75.405c1.903-5.068,11.559-33.401-0.787-51.614c-9.049-13.36-27.382-17.537-54.343-12.628
				c-0.841,2.954-1.622,5.212-2.036,6.314v23.329h22.633v144.503H99.865v-26.938c-6.257-2.486-14.334-5.08-16.465-6.738
				c-8.119,2.486-11.529,4.216-18.483,5.488c-3.021,10.641-6.833,31.045,2.822,45.301c11.385,16.795,37.224,19.312,76.811,7.14
				c5.173,4.017,21.035,13.571,54.425,13.571c34.797,0,54.991-10.238,60.811-13.686c16.615,5.152,30.948,7.746,42.634,7.746
				c16.261,0,27.874-4.972,34.533-14.777C349.267,274.07,339.618,245.74,337.708,240.678z"/>
		</g>
	</g>
</g>
<g>
</g>
<g>
</g>
<g>
</g>
<g>
</g>
<g>
</g>
<g>
</g>
<g>
</g>
<g>
</g>
<g>
</g>
<g>
</g>
<g>
</g>
<g>
</g>
<g>
</g>
<g>
</g>
<g>
</g>
</svg>
