<?xml version="1.0" encoding="iso-8859-1"?>
<!-- Generator: Adobe Illustrator 18.1.1, SVG Export Plug-In . SVG Version: 6.00 Build 0)  -->
<svg version="1.1" id="Capa_1" xmlns="http://www.w3.org/2000/svg" xmlns:xlink="http://www.w3.org/1999/xlink" x="0px" y="0px"
	 viewBox="0 0 317.461 317.461" style="enable-background:new 0 0 317.461 317.461;" xml:space="preserve">
<g>
	<g>
		<g>
			<path style="fill:#010002;" d="M317.09,79.358c0.109-0.158,0.201-0.326,0.261-0.511c0.022-0.076,0.022-0.158,0.043-0.245
				c0.033-0.163,0.065-0.343,0.049-0.511c0-0.027,0.022-0.054,0.016-0.082c-0.016-0.092-0.054-0.163-0.076-0.256
				c-0.016-0.098-0.016-0.212-0.06-0.31c-0.011-0.038-0.038-0.065-0.06-0.098c-0.054-0.114-0.114-0.201-0.174-0.294
				c-0.082-0.114-0.158-0.234-0.256-0.343c-0.076-0.065-0.147-0.114-0.228-0.185c-0.114-0.092-0.25-0.169-0.386-0.234
				c-0.087-0.049-0.174-0.071-0.277-0.092c-0.141-0.054-0.294-0.076-0.451-0.092c0,0-0.092-0.027-0.131-0.027h-0.082L2.049,86.5
				c-1.017,0.033-1.866,0.789-2.023,1.795c-0.158,0.995,0.43,1.974,1.387,2.317l69.723,24.585l20.233,124.408
				c0.044,0.272,0.136,0.522,0.272,0.74c0.022,0.038,0.044,0.054,0.065,0.082c0.174,0.267,0.419,0.479,0.685,0.636
				c0.038,0.016,0.054,0.071,0.092,0.087c0.038,0.027,0.071,0.011,0.098,0.027c0.267,0.12,0.555,0.207,0.865,0.207h0.016l0,0l0,0
				c0.103,0,0.223-0.005,0.332-0.027c0.326-0.054,0.609-0.179,0.859-0.364c0.016-0.011,0.038,0,0.049-0.011L308.034,84.933
				l8.382-4.895c0.06-0.033,0.092-0.082,0.136-0.114c0.169-0.12,0.326-0.239,0.451-0.402
				C317.036,79.467,317.058,79.413,317.09,79.358z M92.256,121.62c-0.027,0.033-0.06,0.044-0.087,0.082
				c-0.256,0.294-0.419,0.658-0.479,1.05c-0.005,0.038-0.044,0.065-0.044,0.098c0,0.022,0.011,0.044,0.005,0.071
				c0,0.054-0.022,0.109-0.022,0.163l-0.218,90.419l-15.964-98.11l157.804-23.056L93.322,121.021
				C92.898,121.109,92.544,121.337,92.256,121.62z M303.308,82.79l-128.221,74.967l-74.537-33.891L303.308,82.79z M277.728,81.561
				L73.235,111.449L13.4,90.345L277.728,81.561z"/>
		</g>
	</g>
</g>
<g>
</g>
<g>
</g>
<g>
</g>
<g>
</g>
<g>
</g>
<g>
</g>
<g>
</g>
<g>
</g>
<g>
</g>
<g>
</g>
<g>
</g>
<g>
</g>
<g>
</g>
<g>
</g>
<g>
</g>
</svg>
