<?xml version="1.0" encoding="iso-8859-1"?>
<!-- Generator: Adobe Illustrator 18.1.1, SVG Export Plug-In . SVG Version: 6.00 Build 0)  -->
<svg version="1.1" id="Capa_1" xmlns="http://www.w3.org/2000/svg" xmlns:xlink="http://www.w3.org/1999/xlink" x="0px" y="0px"
	 viewBox="0 0 310.554 310.554" style="enable-background:new 0 0 310.554 310.554;" xml:space="preserve">
<g>
	<g>
		<path style="fill:#010002;" d="M155.274,0c-47.483,0-84.681,16.622-84.681,37.84v209.513h0.033
			c0.174,9.676,8.077,18.379,21.158,24.944v9.72h0.033c0.381,16.023,28.109,28.539,63.458,28.539
			c35.365,0,63.077-12.515,63.463-28.539h0.038v-9.709c13.076-6.576,20.973-15.278,21.158-24.954h0.027V37.84
			C239.955,16.622,202.757,0,155.274,0z M155.274,303.701c-33.385,0-56.648-11.596-56.648-22.012v-6.331
			c14.903,5.934,34.674,9.497,56.648,9.497c21.985,0,41.75-3.563,56.653-9.497v6.331
			C211.922,292.105,188.659,303.701,155.274,303.701z M233.124,112.893c0,14.968-31.28,30.986-77.849,30.986
			c-46.558,0-77.833-16.018-77.833-30.986V97.947c12.836,13.467,42.479,22.681,77.833,22.681c35.365,0,65.019-9.214,77.849-22.681
			V112.893z M197.112,63.822c5.521-3.835,8.724-8.55,8.724-13.777c0-13.511-21.207-23.709-49.343-23.709
			c-28.131,0-49.338,10.198-49.338,23.709c0,5.695,3.796,10.78,10.253,14.778C92.562,59.139,77.436,48.244,77.436,37.84
			c0-14.968,31.275-30.992,77.833-30.992c46.569,0,77.849,16.023,77.849,30.992C233.124,47.668,219.559,57.926,197.112,63.822z"/>
	</g>
</g>
<g>
</g>
<g>
</g>
<g>
</g>
<g>
</g>
<g>
</g>
<g>
</g>
<g>
</g>
<g>
</g>
<g>
</g>
<g>
</g>
<g>
</g>
<g>
</g>
<g>
</g>
<g>
</g>
<g>
</g>
</svg>
