<?xml version="1.0" encoding="iso-8859-1"?>
<!-- Generator: Adobe Illustrator 16.0.0, SVG Export Plug-In . SVG Version: 6.00 Build 0)  -->
<!DOCTYPE svg PUBLIC "-//W3C//DTD SVG 1.1//EN" "http://www.w3.org/Graphics/SVG/1.1/DTD/svg11.dtd">
<svg version="1.1" id="Capa_1" xmlns="http://www.w3.org/2000/svg" xmlns:xlink="http://www.w3.org/1999/xlink" x="0px" y="0px"
	 width="351.101px" height="351.101px" viewBox="0 0 351.101 351.101" style="enable-background:new 0 0 351.101 351.101;"
	 xml:space="preserve">
<g>
	<path d="M337.578,169.401h-6.762c-6.148-15.988-22.14-41.812-58.414-44.273c0,0,7.986-7.377,6.762-14.757
		c-1.231-7.377-4.925-12.298-11.073-13.526c0,0-1.226,0-3.687,0c-6.762,0-20.291,3.075-35.045,21.521
		c-9.223-7.995-19.684-14.144-31.362-18.446c3.074-4.921,4.306-10.455,4.306-15.988c0-17.831-14.76-32.591-32.592-32.591
		c-17.831,0-32.588,14.76-32.588,32.591c0,3.69,0.612,6.765,1.844,10.452c-49.807,9.223-86.085,51.038-86.085,100.232
		c0,0.612,0,1.225,0,1.838c-1.231,0-2.459,0-3.69,0c-3.075,0-5.533,0-7.992,0c-1.231-9.836-7.996-22.134-19.062-24.593
		c-5.533-1.229-9.839,0-12.298,3.689c-2.458,3.69-2.458,8.605,0,13.529c3.69,7.374,9.839,12.298,19.678,14.76
		c-0.615,1.225-1.846,3.074-6.149,3.074c-3.074,0-7.38-0.618-11.07-1.85c-2.459-0.612-4.917-1.225-6.764-1.225
		c-3.687,0-5.534,1.837-5.534,3.687c0,1.844,0.616,4.3,4.921,5.537c5.533,1.837,11.682,3.074,17.215,3.074
		c7.38,0,16.604-1.85,19.062-11.073c2.459,0,5.533,0,9.223,0c1.228,0,2.459,0,3.69,0l0.613,4.306
		c1.23,6.768,3.074,9.224,4.921,12.298c1.228,1.844,3.074,3.692,4.918,7.38l-2.459,49.191c0,13.522,4.918,20.908,15.372,20.908
		h15.372c14.757,0,18.447-27.058,19.062-31.981l1.843,0.618c11.07,3.075,31.36,9.224,50.422,9.224
		c17.216,0,41.199-5.53,52.266-7.992c1.231,9.836,7.992,30.745,25.214,30.745h9.836c31.357,0,20.909-21.521,20.909-21.521
		l-9.842-21.521c2.456,0,4.918,0,6.768,0c19.671,0,35.044-6.762,48.572-22.134h19.678c7.374,0,13.523-6.148,13.523-13.534v-36.894
		C351.101,175.55,344.952,169.401,337.578,169.401z M28.901,192.766c-2.459,1.231-10.455-9.223-7.996-11.066
		C23.368,180.468,31.36,192.153,28.901,192.766z M170.326,62.411c11.682,0,21.521,9.839,21.521,21.521
		c0,11.683-9.839,21.521-21.521,21.521s-21.521-9.839-21.521-21.521C148.805,72.25,158.028,62.411,170.326,62.411z M204.763,136.198
		c-1.236,1.228-3.074,1.843-4.311,1.843c-1.838,0-3.688-0.615-4.912-2.459c-3.074-3.689-13.532-7.38-26.445-7.38
		s-23.365,3.69-26.439,7.38c-3.69,3.075-7.996,3.075-10.455,0.616c-3.074-2.459-3.074-6.764-0.615-9.839
		c6.764-7.38,20.909-11.682,36.894-11.682c15.987,0,30.135,4.302,36.896,11.682C207.838,129.434,207.219,133.739,204.763,136.198z
		 M299.454,178.009c-3.693,0-6.768-4.302-6.768-9.839c0-5.533,3.074-9.835,6.768-9.835c3.692,0,6.767,4.302,6.767,9.835
		C306.22,173.707,303.146,178.009,299.454,178.009z"/>
</g>
<g>
</g>
<g>
</g>
<g>
</g>
<g>
</g>
<g>
</g>
<g>
</g>
<g>
</g>
<g>
</g>
<g>
</g>
<g>
</g>
<g>
</g>
<g>
</g>
<g>
</g>
<g>
</g>
<g>
</g>
</svg>
