<?xml version="1.0" encoding="iso-8859-1"?>
<!-- Generator: Adobe Illustrator 16.0.0, SVG Export Plug-In . SVG Version: 6.00 Build 0)  -->
<!DOCTYPE svg PUBLIC "-//W3C//DTD SVG 1.1//EN" "http://www.w3.org/Graphics/SVG/1.1/DTD/svg11.dtd">
<svg version="1.1" id="Capa_1" xmlns="http://www.w3.org/2000/svg" xmlns:xlink="http://www.w3.org/1999/xlink" x="0px" y="0px"
	 width="361.2px" height="361.2px" viewBox="0 0 361.2 361.2" style="enable-background:new 0 0 361.2 361.2;" xml:space="preserve"
	>
<g>
	<g>
		<path d="M339.385,27.229L222.916,0L0.054,222.862L138.398,361.2l222.748-222.751L339.385,27.229z M226.543,189.276
			c-1.405-5.277-5.008-12.207-10.797-17.993c-6.93-6.929-15.156-10.268-23.995-10.139c-7.587,0.111-15.925,3.32-24.043,8.842
			l35.854,35.846l-6.425,6.425l-36.993-36.995c-1.93,1.408-3.738,3.209-5.65,5.122c-0.769,0.793-1.408,1.435-2.177,2.204
			l37.257,37.229l-6.419,6.449l-36.377-36.359c-6.401,8.467-9.482,16.453-9.74,23.887c-0.393,9.896,3.714,18.627,10.662,25.557
			c6.794,6.815,15.132,10.269,19.906,11.434l-6.053,10.4c-6.659-1.297-16.054-5.513-24.392-13.871
			c-10.397-10.406-15.808-23.779-14.672-37.53c0.531-10.25,4.774-20.915,12.847-31.318l-7.957-7.962l6.443-6.419l7.323,7.323
			c0.64-0.64,1.279-1.297,1.937-1.937c1.913-1.912,3.96-3.714,5.891-5.386l-7.563-7.587l6.419-6.419l8.467,8.467
			c10.535-7.434,21.707-11.148,32.239-11.172c13.214-0.375,25.554,4.242,35.966,14.646c7.698,7.716,11.434,15.814,13.108,21.333
			L226.543,189.276z M289.005,93.143c-7.698,7.698-20.164,7.698-27.862,0c-7.698-7.698-7.698-20.167,0-27.865
			c7.698-7.68,20.164-7.698,27.862,0C296.703,72.976,296.703,85.445,289.005,93.143z"/>
	</g>
</g>
<g>
</g>
<g>
</g>
<g>
</g>
<g>
</g>
<g>
</g>
<g>
</g>
<g>
</g>
<g>
</g>
<g>
</g>
<g>
</g>
<g>
</g>
<g>
</g>
<g>
</g>
<g>
</g>
<g>
</g>
</svg>
