<?xml version="1.0" encoding="iso-8859-1"?>
<!-- Generator: Adobe Illustrator 16.0.0, SVG Export Plug-In . SVG Version: 6.00 Build 0)  -->
<!DOCTYPE svg PUBLIC "-//W3C//DTD SVG 1.1//EN" "http://www.w3.org/Graphics/SVG/1.1/DTD/svg11.dtd">
<svg version="1.1" id="Capa_1" xmlns="http://www.w3.org/2000/svg" xmlns:xlink="http://www.w3.org/1999/xlink" x="0px" y="0px"
	 width="353.797px" height="353.797px" viewBox="0 0 353.797 353.797" style="enable-background:new 0 0 353.797 353.797;"
	 xml:space="preserve">
<g>
	<g>
		<g>
			<path d="M324.112,239.436l-28.493-84.217c8.791-10.656,11.541-25.007,7.14-38.062c-4.413-13.03-15.306-22.764-28.769-25.893
				L245.443,6.87C243.9,2.312,241.503,0,238.339,0c-4.967,0-8.101,6.197-9.933,11.701c-20.704,82.44-113.31,108.666-114.475,108.984
				c-3.951,1.336-6.702,3.444-8.337,6.179c-1.796-1.021-3.916-1.708-6.555-1.708c-1.979,0-4.107,0.381-6.344,1.138l-39.193,13.262
				c-11.781,4.569-31.675,20.218-22.689,46.763l13.871,41.013c0.381,1.188,9.569,29.177,34.429,29.177
				c3.861,0,7.911-0.715,11.793-2.023c0,0,0.447-0.12,1.144-0.12c4.825,0,8.731,4.563,11.097,13.097l25.028,73.949
				c0.892,4.479,4.759,12.388,13.655,12.388c1.724,0,3.549-0.307,5.456-0.919c2.483-0.492,17.474-3.879,21.059-15.048
				c2.411-7.519-0.928-16.267-9.941-26.043c3.48-10.358-1.963-19.101-7.25-27.592c-4.711-7.566-9.569-15.396-9.752-25.497
				c1.081-3.639,5.269-18.849,2.471-27.147l-0.688-2.071c0.892,0.156,1.801,0.264,2.765,0.264c2.816,0,4.999-0.708,5.245-0.792
				c23.175-7.837,45.885-11.806,67.491-11.806c58.547,0,90.895,29.321,91.213,29.609l0.589,0.457
				c1.188,0.756,5.332,3.236,8.749,3.236c2.858,0,4.341-1.562,4.983-2.492C326.087,245.2,325.006,241.646,324.112,239.436z
				 M144.187,288.543c5.92,9.523,9.1,15.258,5.704,22.409l-1.234,2.595l2.021,2.054c7.971,8.094,11.376,14.91,9.851,19.707
				c-1.9,5.993-11.466,8.924-14.979,9.548l-0.622,0.156c-1.141,0.384-2.183,0.583-3.099,0.583c-4.389-0.007-5.509-5.32-5.62-5.903
				l-25.196-74.64c-4.741-17.048-14.838-18.891-18.963-18.891c-1.823,0-3.062,0.324-3.543,0.468
				c-3.279,1.111-6.425,1.663-9.395,1.663c-18.828,0-26.52-23.208-26.619-23.508l-13.898-41.098
				c-8.686-25.664,16.792-36.031,17.717-36.395l39.013-13.196c1.384-0.474,2.627-0.714,3.708-0.714c4.299,0,5.275,4.287,5.425,5.116
				l31.609,95.671c1.648,4.858-0.787,16.52-2.705,22.729l-0.189,1.213C133.174,270.841,139.026,280.25,144.187,288.543z"/>
		</g>
	</g>
</g>
<g>
</g>
<g>
</g>
<g>
</g>
<g>
</g>
<g>
</g>
<g>
</g>
<g>
</g>
<g>
</g>
<g>
</g>
<g>
</g>
<g>
</g>
<g>
</g>
<g>
</g>
<g>
</g>
<g>
</g>
</svg>
