<?xml version="1.0" encoding="iso-8859-1"?>
<!-- Generator: Adobe Illustrator 18.1.1, SVG Export Plug-In . SVG Version: 6.00 Build 0)  -->
<svg version="1.1" id="Capa_1" xmlns="http://www.w3.org/2000/svg" xmlns:xlink="http://www.w3.org/1999/xlink" x="0px" y="0px"
	 viewBox="0 0 300.519 300.519" style="enable-background:new 0 0 300.519 300.519;" xml:space="preserve">
<g>
	<g>
		<g>
			<path style="fill:#010002;" d="M0,165.465l0.005,65.791l12.945,0.005v-30.725c0-1.784,1.441-3.231,3.236-3.236
				c1.795,0.005,3.242,1.452,3.225,3.231v30.725l11.204-0.011l-0.005-30.709c0.005-1.784,1.452-3.231,3.236-3.231
				c1.784-0.005,3.236,1.447,3.236,3.236v30.714l11.678,0.005l0.005-30.72c-0.005-1.795,1.441-3.242,3.242-3.236
				c1.779,0,3.225,1.447,3.225,3.231v30.709l8.735,0.011l-0.005-45.438c0.005-1.784,1.447-3.225,3.236-3.231
				c1.784,0,3.242,1.447,3.242,3.225v45.449l12.668-0.005l-0.011-29.257c0.005-1.789,1.447-3.236,3.225-3.231
				c1.795,0.005,3.247,1.441,3.242,3.236v29.24l11.21,0.011l-0.022-29.257c0-1.779,1.447-3.231,3.242-3.225
				c1.773-0.005,3.225,1.452,3.225,3.231l-0.005,29.257l11.683-0.005l0.005-29.251c0.005-1.795,1.441-3.242,3.22-3.231
				c1.8-0.011,3.247,1.436,3.242,3.225l0.005,29.257h14.12v-45.443c0.005-1.779,1.458-3.22,3.242-3.22
				c1.789-0.005,3.236,1.436,3.236,3.22v45.443h12.793l0.005-30.72c0-1.784,1.452-3.231,3.236-3.236
				c1.789-0.005,3.236,1.447,3.242,3.236l-0.005,30.72h11.188l0.016-30.72c-0.016-1.789,1.43-3.242,3.22-3.231
				c1.795-0.005,3.236,1.441,3.236,3.231v30.725h11.683l-0.005-30.725c0.005-1.789,1.458-3.236,3.236-3.231
				c1.795,0,3.242,1.447,3.242,3.231l-0.005,30.72h8.746l-0.011-45.438c0.005-1.784,1.447-3.225,3.242-3.231
				c1.784,0,3.225,1.441,3.242,3.231l-0.005,45.432l12.657,0.016l0.005-29.251c-0.005-1.789,1.447-3.242,3.236-3.236
				c1.779,0,3.231,1.447,3.22,3.231v29.251h11.194V202.01c0.005-1.784,1.458-3.231,3.247-3.242c1.779,0.005,3.231,1.463,3.236,3.242
				v29.251l11.678,0.005l0.005-29.257c-0.005-1.8,1.43-3.236,3.231-3.231c1.784-0.005,3.236,1.436,3.225,3.231l0.011,29.257
				l14.125-0.005l0.011-45.438c-0.011-1.789,1.452-3.225,3.225-3.225c1.795-0.005,3.236,1.441,3.231,3.225l0.005,45.438l8.713,0.005
				v-65.807L0,165.465z"/>
		</g>
		<g>
			<path style="fill:#010002;" d="M148.176,97.569c32.564,0,59.139,25.863,60.423,58.133h30.345
				c-1.305-47.886-40.565-86.448-88.744-86.448s-87.444,38.563-88.76,86.438h26.309C89.032,123.426,115.607,97.569,148.176,97.569z"
				/>
		</g>
	</g>
</g>
<g>
</g>
<g>
</g>
<g>
</g>
<g>
</g>
<g>
</g>
<g>
</g>
<g>
</g>
<g>
</g>
<g>
</g>
<g>
</g>
<g>
</g>
<g>
</g>
<g>
</g>
<g>
</g>
<g>
</g>
</svg>
