<?xml version="1.0" encoding="iso-8859-1"?>
<!-- Generator: Adobe Illustrator 16.0.0, SVG Export Plug-In . SVG Version: 6.00 Build 0)  -->
<!DOCTYPE svg PUBLIC "-//W3C//DTD SVG 1.1//EN" "http://www.w3.org/Graphics/SVG/1.1/DTD/svg11.dtd">
<svg version="1.1" id="Capa_1" xmlns="http://www.w3.org/2000/svg" xmlns:xlink="http://www.w3.org/1999/xlink" x="0px" y="0px"
	 width="344.339px" height="344.339px" viewBox="0 0 344.339 344.339" style="enable-background:new 0 0 344.339 344.339;"
	 xml:space="preserve">
<g>
	<g>
		<g>
			<path d="M0,1.69V240.97h66.464l-0.018,101.679l101.91-101.686h175.982V1.69H0z M99.908,147.991
				c-16.177,0-29.337-13.166-29.337-29.337c0-16.188,13.166-29.354,29.337-29.354c16.183,0,29.342,13.166,29.342,29.354
				C129.25,134.832,116.085,147.991,99.908,147.991z M174.487,147.991c-16.171,0-29.336-13.166-29.336-29.337
				c0-16.188,13.165-29.354,29.336-29.354c16.177,0,29.34,13.166,29.34,29.354C203.827,134.832,190.671,147.991,174.487,147.991z
				 M250.526,147.991c-16.184,0-29.346-13.166-29.346-29.337c0-16.188,13.162-29.354,29.346-29.354
				c16.177,0,29.346,13.166,29.346,29.354C279.872,134.832,266.709,147.991,250.526,147.991z"/>
		</g>
	</g>
</g>
<g>
</g>
<g>
</g>
<g>
</g>
<g>
</g>
<g>
</g>
<g>
</g>
<g>
</g>
<g>
</g>
<g>
</g>
<g>
</g>
<g>
</g>
<g>
</g>
<g>
</g>
<g>
</g>
<g>
</g>
</svg>
