<?xml version="1.0" encoding="iso-8859-1"?>
<!-- Generator: Adobe Illustrator 18.1.1, SVG Export Plug-In . SVG Version: 6.00 Build 0)  -->
<svg version="1.1" id="Capa_1" xmlns="http://www.w3.org/2000/svg" xmlns:xlink="http://www.w3.org/1999/xlink" x="0px" y="0px"
	 viewBox="0 0 304.827 304.827" style="enable-background:new 0 0 304.827 304.827;" xml:space="preserve">
<g>
	<g>
		<g>
			<circle style="fill:#010002;" cx="186.799" cy="146.643" r="23.35"/>
		</g>
		<g>
			<path style="fill:#010002;" d="M186.816,85.192c-33.896,0-61.456,27.576-61.456,61.451s27.56,61.44,61.456,61.44
				c33.874,0,61.434-27.565,61.434-61.44C248.25,112.763,220.69,85.192,186.816,85.192z M186.375,192.788
				c-25.591,0-46.406-20.815-46.406-46.401c0-25.591,20.815-46.401,46.406-46.401c25.585,0,46.406,20.81,46.406,46.401
				C232.781,171.972,211.96,192.788,186.375,192.788z"/>
		</g>
		<g>
			<path style="fill:#010002;" d="M299.094,94.292H290v-2.268c0-20.157-16.399-36.561-36.567-36.561h-17.497l-22.229-20.832h-61.712
				l-18.052,20.832H96.663c-1.653-6.886-6.179-11.58-11.574-11.58H58.753c-5.434,0-9.981,4.754-11.612,11.721
				C28.484,57.235,13.81,72.954,13.81,92.018v2.268H5.727C2.556,94.286,0,96.853,0,100.014c0,3.155,2.562,5.722,5.727,5.722h8.082
				V233.64c0,20.157,16.393,36.556,36.556,36.556h203.073c20.168,0,36.567-16.399,36.567-36.556v-127.9h9.094
				c3.155,0,5.727-2.567,5.727-5.722C304.816,96.859,302.249,94.292,299.094,94.292z M88.439,82.451
				c0,4.019-3.274,7.288-7.305,7.288H62.413c-4.036,0-7.294-3.269-7.294-7.288v-4.286c0-4.03,3.258-7.294,7.294-7.294h18.721
				c4.036,0,7.305,3.263,7.305,7.294V82.451z M186.816,220.293c-40.613,0-73.667-33.048-73.667-73.65
				c0-40.608,33.053-73.656,73.667-73.656c40.603,0,73.639,33.053,73.639,73.656C260.455,187.24,227.418,220.293,186.816,220.293z"
				/>
		</g>
	</g>
</g>
<g>
</g>
<g>
</g>
<g>
</g>
<g>
</g>
<g>
</g>
<g>
</g>
<g>
</g>
<g>
</g>
<g>
</g>
<g>
</g>
<g>
</g>
<g>
</g>
<g>
</g>
<g>
</g>
<g>
</g>
</svg>
