<?xml version="1.0" encoding="iso-8859-1"?>
<!-- Generator: Adobe Illustrator 16.0.0, SVG Export Plug-In . SVG Version: 6.00 Build 0)  -->
<!DOCTYPE svg PUBLIC "-//W3C//DTD SVG 1.1//EN" "http://www.w3.org/Graphics/SVG/1.1/DTD/svg11.dtd">
<svg version="1.1" id="Capa_1" xmlns="http://www.w3.org/2000/svg" xmlns:xlink="http://www.w3.org/1999/xlink" x="0px" y="0px"
	 width="350.461px" height="350.461px" viewBox="0 0 350.461 350.461" style="enable-background:new 0 0 350.461 350.461;"
	 xml:space="preserve">
<g>
	<g>
		<g>
			<path d="M349.484,87.494c-0.306-2.324-1.897-4.261-4.125-5.005c-2.228-0.745-4.66-0.165-6.335,1.489l-42.273,42.279
				l-61.79-10.742L224.194,53.71l42.298-42.286c1.651-1.654,2.228-4.101,1.483-6.32c-0.751-2.213-2.69-3.825-5.008-4.138
				c-31.79-4.347-62.937,6.092-85.5,28.646c-26.505,26.502-35.14,64.128-26.117,97.971L14.807,264.146
				c-19.732,19.72-19.732,51.803-0.019,71.517c19.726,19.731,51.804,19.731,71.529,0l136.567-136.561
				c33.843,9.043,71.457,0.39,97.968-26.109C343.407,150.433,353.843,119.277,349.484,87.494z M312.134,164.28
				c-34.714,34.726-91.225,34.726-125.938,0c-34.723-34.72-34.723-91.225,0-125.953c16.682-16.676,38.73-25.818,61.976-25.998
				l-34.937,34.939c-1.417,1.42-2.053,3.438-1.729,5.404l12.033,69.226c0.469,2.564,2.456,4.561,5.032,5.011l69.235,12.046
				c1.951,0.346,3.969-0.303,5.393-1.717l34.93-34.936C337.949,125.537,328.816,147.592,312.134,164.28z"/>
		</g>
	</g>
</g>
<g>
</g>
<g>
</g>
<g>
</g>
<g>
</g>
<g>
</g>
<g>
</g>
<g>
</g>
<g>
</g>
<g>
</g>
<g>
</g>
<g>
</g>
<g>
</g>
<g>
</g>
<g>
</g>
<g>
</g>
</svg>
