<?xml version="1.0" encoding="iso-8859-1"?>
<!-- Generator: Adobe Illustrator 18.1.1, SVG Export Plug-In . SVG Version: 6.00 Build 0)  -->
<svg version="1.1" id="Capa_1" xmlns="http://www.w3.org/2000/svg" xmlns:xlink="http://www.w3.org/1999/xlink" x="0px" y="0px"
	 viewBox="0 0 476.367 476.367" style="enable-background:new 0 0 476.367 476.367;" xml:space="preserve">
<g>
	<g>
		<g>
			<g>
				<path style="fill:#010002;" d="M229.628,135.04c-0.106-10.982,4.991-19.549,9.917-27.873c6.56-11.006,13.298-22.402,8.6-38.074
					c-4.78-14.371-13.851-21.419-21.874-27.653c-10.787-8.389-18.574-14.453-14.518-37.424l0.35-1.967L200.455,0l-0.35,1.959
					c-5.3,30.011,7.568,39.993,18.907,48.812c7.34,5.698,14.266,11.079,17.875,21.89c3.154,10.535-1.544,18.452-7.503,28.483
					c-5.527,9.315-11.77,19.817-11.624,33.896h-2.845c-55.364,0.154-118.141,0.333-118.141,211.847
					c0,94.324,75.807,129.48,123.611,129.48c47.764,0,123.587-35.156,123.587-129.48
					C343.965,139.958,283.992,135.308,229.628,135.04z M230.514,304.041v-19.33c6.722-1.366,11.754-7.308,11.754-14.282v-78.912
					c0-6.982-5.032-12.941-11.754-14.29v-23.784c44.675,0.106,86.456,2,95.429,128.139
					C316.588,286.272,280.22,302.83,230.514,304.041z M227.198,269.73c0,2.146-1.731,3.894-3.894,3.894h-5.877
					c-2.146,0-3.894-1.756-3.894-3.894v-77.148c0-2.146,1.756-3.894,3.894-3.894h5.877c2.17,0,3.894,1.756,3.894,3.894V269.73z
					 M214.46,177.211c-7.283,1.406-12.737,7.828-12.737,15.371v77.148c0,7.535,5.462,13.973,12.737,15.371v25.54
					c-35.717-0.821-70.662-9.096-103.916-24.63c9.795-137.129,55.291-139.056,103.916-139.161V177.211z"/>
			</g>
		</g>
		<g>
			<g>
				<path style="fill:#010002;" d="M280.984,116.044l-1.935-0.447l-2.577,11.534l1.935,0.431
					c62.143,13.949,67.288,70.272,67.483,72.661l0.163,1.983l11.77-0.91l-0.154-1.983
					C357.604,198.654,351.719,131.911,280.984,116.044z"/>
			</g>
		</g>
		<g>
			<g>
				<path style="fill:#010002;" d="M379.446,177.536c-0.041-0.675-5.958-67.402-76.677-83.285l-1.935-0.431l-2.593,11.534
					l1.935,0.431c62.151,13.949,67.305,70.272,67.5,72.661l0.146,1.983l11.77-0.927L379.446,177.536z"/>
			</g>
		</g>
	</g>
</g>
<g>
</g>
<g>
</g>
<g>
</g>
<g>
</g>
<g>
</g>
<g>
</g>
<g>
</g>
<g>
</g>
<g>
</g>
<g>
</g>
<g>
</g>
<g>
</g>
<g>
</g>
<g>
</g>
<g>
</g>
</svg>
