<?xml version="1.0" encoding="iso-8859-1"?>
<!-- Generator: Adobe Illustrator 16.0.0, SVG Export Plug-In . SVG Version: 6.00 Build 0)  -->
<!DOCTYPE svg PUBLIC "-//W3C//DTD SVG 1.1//EN" "http://www.w3.org/Graphics/SVG/1.1/DTD/svg11.dtd">
<svg version="1.1" id="Capa_1" xmlns="http://www.w3.org/2000/svg" xmlns:xlink="http://www.w3.org/1999/xlink" x="0px" y="0px"
	 width="348.156px" height="348.156px" viewBox="0 0 348.156 348.156" style="enable-background:new 0 0 348.156 348.156;"
	 xml:space="preserve">
<g>
	<g>
		<g>
			<path d="M333.955,99.393H55.57c-7.839,0-14.205,6.618-14.205,14.748v176.655c0,8.131,6.365,14.742,14.205,14.742h278.385
				c7.812,0,14.201-6.611,14.201-14.742V114.141C348.156,106.004,341.768,99.393,333.955,99.393z M70.168,229.854h-3.843v-54.776
				h3.843V229.854z M302.34,295.563H83.585V109.367H302.34V295.563z M324.99,209.485c-4.521,0-8.196-3.675-8.196-8.209
				c0-4.521,3.675-8.214,8.196-8.214c4.527,0,8.215,3.692,8.215,8.214C333.205,205.811,329.518,209.485,324.99,209.485z"/>
		</g>
		<g>
			<path d="M74.158,65.358l-14.64,8.491c-1.384,0.793-1.846,2.564-1.054,3.945c0.543,0.931,1.501,1.441,2.51,1.441
				c0.498,0,0.991-0.12,1.438-0.385l23.139-13.427c0.841-0.48,1.384-1.357,1.438-2.324c0.057-0.967-0.375-1.897-1.144-2.486
				L62.71,43.194c-1.294-0.949-3.096-0.703-4.054,0.576c-0.96,1.279-0.708,3.087,0.571,4.042l15.675,11.817
				c-22.794-1.868-40.883,3.369-53.725,15.745c-24.311,23.407-21.113,63.242-20.96,64.924l5.768-0.511
				c-0.03-0.384-3.092-38.797,19.233-60.27C36.76,68.396,53.246,63.694,74.158,65.358z"/>
		</g>
	</g>
</g>
<g>
</g>
<g>
</g>
<g>
</g>
<g>
</g>
<g>
</g>
<g>
</g>
<g>
</g>
<g>
</g>
<g>
</g>
<g>
</g>
<g>
</g>
<g>
</g>
<g>
</g>
<g>
</g>
<g>
</g>
</svg>
