<?xml version="1.0" encoding="iso-8859-1"?>
<!-- Generator: Adobe Illustrator 18.1.1, SVG Export Plug-In . SVG Version: 6.00 Build 0)  -->
<svg version="1.1" id="Capa_1" xmlns="http://www.w3.org/2000/svg" xmlns:xlink="http://www.w3.org/1999/xlink" x="0px" y="0px"
	 viewBox="0 0 451.217 451.217" style="enable-background:new 0 0 451.217 451.217;" xml:space="preserve">
<g>
	<g>
		<g>
			<path style="fill:#010002;" d="M225.629,0c23.069,0,41.83,18.769,41.83,41.846v20.858h-83.676v-20.85
				C183.783,18.769,202.544,0,225.629,0z M225.629,451.217c-61.176,0-110.947-49.779-110.947-110.947
				c0-43.366,25.597-82.993,65.175-100.965l3.918-1.764V76.059h83.684v30.637h-49.235v13.331h49.235v23.345h-49.235v13.331h49.235
				v25.556h-49.235v13.347h49.235v41.943l3.894,1.764c39.602,17.972,65.183,57.599,65.183,100.965
				C336.535,401.438,286.78,451.217,225.629,451.217z"/>
		</g>
	</g>
</g>
<g>
</g>
<g>
</g>
<g>
</g>
<g>
</g>
<g>
</g>
<g>
</g>
<g>
</g>
<g>
</g>
<g>
</g>
<g>
</g>
<g>
</g>
<g>
</g>
<g>
</g>
<g>
</g>
<g>
</g>
</svg>
