<?xml version="1.0" encoding="iso-8859-1"?>
<!-- Generator: Adobe Illustrator 18.1.1, SVG Export Plug-In . SVG Version: 6.00 Build 0)  -->
<svg version="1.1" id="Capa_1" xmlns="http://www.w3.org/2000/svg" xmlns:xlink="http://www.w3.org/1999/xlink" x="0px" y="0px"
	 viewBox="0 0 470.1 470.1" style="enable-background:new 0 0 470.1 470.1;" xml:space="preserve">
<g>
	<g>
		<g>
			<polygon style="fill:#010002;" points="251.746,357.641 251.746,64.939 218.378,64.939 218.378,357.641 135.434,274.697 
				111.845,298.302 235.05,421.507 358.247,298.302 334.698,274.697 			"/>
		</g>
		<g>
			<path style="fill:#010002;" d="M235.05,0C105.44,0,0.004,105.452,0.004,235.054S105.44,470.1,235.05,470.1
				c129.602,0,235.046-105.444,235.046-235.046S364.652,0,235.05,0z M235.05,438.293c-112.069,0-203.231-91.17-203.231-203.239
				S122.981,31.815,235.05,31.815c112.061,0,203.231,91.178,203.231,203.239S347.11,438.293,235.05,438.293z"/>
		</g>
	</g>
</g>
<g>
</g>
<g>
</g>
<g>
</g>
<g>
</g>
<g>
</g>
<g>
</g>
<g>
</g>
<g>
</g>
<g>
</g>
<g>
</g>
<g>
</g>
<g>
</g>
<g>
</g>
<g>
</g>
<g>
</g>
</svg>
