<?xml version="1.0" encoding="iso-8859-1"?>
<!-- Generator: Adobe Illustrator 18.1.1, SVG Export Plug-In . SVG Version: 6.00 Build 0)  -->
<svg version="1.1" id="Capa_1" xmlns="http://www.w3.org/2000/svg" xmlns:xlink="http://www.w3.org/1999/xlink" x="0px" y="0px"
	 viewBox="0 0 306.328 306.328" style="enable-background:new 0 0 306.328 306.328;" xml:space="preserve">
<g>
	<g>
		<path style="fill:#010002;" d="M267.731,208.229c-1.876-2.371-4.574-3.867-7.549-4.215l-23.111-2.785l-1.577-0.114
			c-4.302,0-8.169,2.453-10.1,6.413c-2.116,4.373-1.235,9.594,2.181,13.005c8.561,8.567,8.338,13.94,7.424,17.22
			c-4.308,15.512-37.426,31.884-70.479,42.185V145.876h29.556V123.14h-29.55V82.13c17.943-5.009,30.529-21.25,30.529-40.233
			C195.055,18.792,176.263,0,153.158,0s-41.903,18.797-41.903,41.897c0,18.982,12.586,35.223,30.535,40.233v41.011h-29.556v22.73
			h29.556v134.057c-33.059-10.302-66.177-26.673-70.479-42.169c-0.908-3.291-1.137-8.67,7.397-17.204
			c3.448-3.427,4.34-8.675,2.219-13.01c-1.904-3.96-5.814-6.418-10.204-6.418l-24.541,2.877c-3.03,0.343-5.727,1.86-7.609,4.242
			s-2.72,5.357-2.361,8.409c0.696,5.711,5.488,10.013,11.145,10.013l1.784-0.141c-1.43,5.733-1.343,11.525,0.267,17.334
			c10.535,37.867,86.019,58.416,101.303,62.207c0.805,0.169,1.626,0.261,2.415,0.261c0.854,0,1.735-0.098,2.812-0.337
			c15.023-3.737,90.457-24.285,100.987-62.152c1.615-5.782,1.697-11.58,0.272-17.307l1.751,0.136c5.673,0,10.476-4.319,11.172-10.03
			C270.467,213.663,269.646,210.693,267.731,208.229z M141.79,41.897v15.376c-4.797-3.514-7.8-9.154-7.8-15.376
			c0-10.568,8.599-19.162,19.167-19.162c10.568,0,19.173,8.599,19.173,19.167c0,6.217-3.008,11.852-7.811,15.371V41.903
			c0-6.26-5.102-11.362-11.368-11.362C146.886,30.54,141.79,35.637,141.79,41.897z"/>
	</g>
</g>
<g>
</g>
<g>
</g>
<g>
</g>
<g>
</g>
<g>
</g>
<g>
</g>
<g>
</g>
<g>
</g>
<g>
</g>
<g>
</g>
<g>
</g>
<g>
</g>
<g>
</g>
<g>
</g>
<g>
</g>
</svg>
