<?xml version="1.0" encoding="iso-8859-1"?>
<!-- Generator: Adobe Illustrator 16.0.0, SVG Export Plug-In . SVG Version: 6.00 Build 0)  -->
<!DOCTYPE svg PUBLIC "-//W3C//DTD SVG 1.1//EN" "http://www.w3.org/Graphics/SVG/1.1/DTD/svg11.dtd">
<svg version="1.1" id="Capa_1" xmlns="http://www.w3.org/2000/svg" xmlns:xlink="http://www.w3.org/1999/xlink" x="0px" y="0px"
	 width="376.524px" height="376.524px" viewBox="0 0 376.524 376.524" style="enable-background:new 0 0 376.524 376.524;"
	 xml:space="preserve">
<g>
	<g>
		<g>
			<path d="M67.626,0.003l308.898,308.881l-67.638,67.638l-8.959-8.953l46.692-46.717c1.862-1.838,1.862-4.804,0-6.642
				c-1.831-1.825-4.804-1.85-6.635,0l-46.712,46.699l-14.531-14.514l30.084-30.084c1.838-1.837,1.838-4.804,0-6.635
				c-1.85-1.855-4.798-1.855-6.629,0l-30.084,30.065l-12.01-12.009l30.084-30.066c1.808-1.832,1.808-4.822,0-6.653
				c-1.861-1.831-4.828-1.831-6.678,0l-30.071,30.065l-11.493-11.505l30.065-30.06c1.85-1.832,1.85-4.805,0-6.636
				c-1.831-1.855-4.804-1.855-6.635,0l-30.084,30.066l-12.989-13.024l46.693-46.699c1.832-1.85,1.832-4.816,0-6.653
				c-1.849-1.825-4.797-1.825-6.652,0l-46.693,46.717l-9.002-8.995l31.592-31.573c1.831-1.837,1.831-4.804-0.019-6.653
				c-1.813-1.837-4.779-1.837-6.635,0l-31.579,31.586l-12.016-12.01l31.574-31.598c1.855-1.825,1.855-4.798,0-6.629
				c-1.832-1.861-4.798-1.861-6.636,0l-31.585,31.566l-11.5-11.499l31.591-31.567c1.825-1.855,1.825-4.827,0-6.658
				c-1.861-1.832-4.825-1.832-6.656,0l-31.588,31.572l-13.15-13.15l46.711-46.714c1.837-1.832,1.819-4.801-0.019-6.636
				c-1.837-1.831-4.807-1.831-6.641-0.018l-46.711,46.721l-14.514-14.514l30.063-30.084c1.837-1.834,1.837-4.804-0.018-6.635
				c-1.807-1.853-4.783-1.832-6.629,0l-30.075,30.06L110.19,177.85l30.078-30.063c1.823-1.831,1.823-4.828,0-6.641
				c-1.837-1.85-4.812-1.85-6.647-0.018l-30.06,30.087L92.05,159.691l30.057-30.062c1.849-1.832,1.831-4.801,0-6.659
				c-1.823-1.832-4.798-1.832-6.636,0l-30.062,30.087l-13.019-13.004l46.714-46.714c1.819-1.832,1.819-4.828-0.006-6.659
				c-1.843-1.832-4.812-1.832-6.659,0l-46.693,46.714l-8.977-8.998l31.567-31.567c1.832-1.831,1.832-4.801,0-6.635
				c-1.844-1.85-4.816-1.85-6.66,0l-31.582,31.57l-11.977-12.016l31.567-31.57c1.846-1.85,1.846-4.819,0-6.66
				c-1.832-1.832-4.801-1.832-6.647,0l-31.562,31.57l-11.523-11.5l31.583-31.591c1.843-1.811,1.843-4.786,0-6.636
				c-1.841-1.834-4.816-1.834-6.647,0L13.294,80.954L0,67.641L67.626,0.003z"/>
		</g>
	</g>
</g>
<g>
</g>
<g>
</g>
<g>
</g>
<g>
</g>
<g>
</g>
<g>
</g>
<g>
</g>
<g>
</g>
<g>
</g>
<g>
</g>
<g>
</g>
<g>
</g>
<g>
</g>
<g>
</g>
<g>
</g>
</svg>
