<?xml version="1.0" encoding="iso-8859-1"?>
<!-- Generator: Adobe Illustrator 18.1.1, SVG Export Plug-In . SVG Version: 6.00 Build 0)  -->
<svg version="1.1" id="Capa_1" xmlns="http://www.w3.org/2000/svg" xmlns:xlink="http://www.w3.org/1999/xlink" x="0px" y="0px"
	 viewBox="0 0 450.721 450.721" style="enable-background:new 0 0 450.721 450.721;" xml:space="preserve">
<g>
	<g>
		<g>
			<path style="fill:#010002;" d="M449.9,258.72L393.732,86.321L234.274,55.693V41.313c0-4.747-3.837-8.6-8.592-8.6
				c-4.747,0-8.592,3.853-8.592,8.6v11.079L55.404,21.333L0.756,214.696l4.064,1.138H0c0,27.515,29.369,49.869,65.451,49.869
				c34.14,0,64.094-24.272,65.329-52.372l0.301-0.098l-0.244-0.772c0.008-0.309,0.065-0.618,0.065-0.919h-0.358L77.01,42.996
				l140.08,26.906v312.536h-90.113l-28.271,46.951h247.832l-21.476-46.943h-90.796V73.202l132.219,25.394l-37.31,164.433h-0.219
				c0,27.491,27.304,49.877,60.891,49.877c32.425,0,60.875-25.329,60.875-54.177H449.9V258.72z"/>
		</g>
	</g>
</g>
<g>
</g>
<g>
</g>
<g>
</g>
<g>
</g>
<g>
</g>
<g>
</g>
<g>
</g>
<g>
</g>
<g>
</g>
<g>
</g>
<g>
</g>
<g>
</g>
<g>
</g>
<g>
</g>
<g>
</g>
</svg>
