<?xml version="1.0" encoding="iso-8859-1"?>
<!-- Generator: Adobe Illustrator 16.0.0, SVG Export Plug-In . SVG Version: 6.00 Build 0)  -->
<!DOCTYPE svg PUBLIC "-//W3C//DTD SVG 1.1//EN" "http://www.w3.org/Graphics/SVG/1.1/DTD/svg11.dtd">
<svg version="1.1" id="Capa_1" xmlns="http://www.w3.org/2000/svg" xmlns:xlink="http://www.w3.org/1999/xlink" x="0px" y="0px"
	 width="347.378px" height="347.378px" viewBox="0 0 347.378 347.378" style="enable-background:new 0 0 347.378 347.378;"
	 xml:space="preserve">
<g>
	<g>
		<g>
			<g>
				<path d="M0.322,347.378h254.063V93.317H0.322V347.378z M22.954,324.739V115.926h208.805v208.813"/>
			</g>
		</g>
		<g>
			<g>
				<polygon points="312.499,276.257 312.499,132.577 340.89,160.974 347.057,154.825 308.14,115.926 269.241,154.825 
					275.401,160.974 303.792,132.577 303.792,276.257 275.401,247.866 269.241,254.015 308.14,292.926 347.057,254.015 
					340.89,247.866 				"/>
			</g>
		</g>
		<g>
			<g>
				<polygon points="83.38,71.655 54.972,43.265 198.654,43.265 170.24,71.655 176.418,77.816 215.306,38.917 176.418,0 
					170.24,6.161 198.654,34.552 54.972,34.552 83.38,6.161 77.226,0 38.302,38.917 77.226,77.816 				"/>
			</g>
		</g>
	</g>
</g>
<g>
</g>
<g>
</g>
<g>
</g>
<g>
</g>
<g>
</g>
<g>
</g>
<g>
</g>
<g>
</g>
<g>
</g>
<g>
</g>
<g>
</g>
<g>
</g>
<g>
</g>
<g>
</g>
<g>
</g>
</svg>
