<?xml version="1.0" encoding="iso-8859-1"?>
<!-- Generator: Adobe Illustrator 16.0.0, SVG Export Plug-In . SVG Version: 6.00 Build 0)  -->
<!DOCTYPE svg PUBLIC "-//W3C//DTD SVG 1.1//EN" "http://www.w3.org/Graphics/SVG/1.1/DTD/svg11.dtd">
<svg version="1.1" id="Capa_1" xmlns="http://www.w3.org/2000/svg" xmlns:xlink="http://www.w3.org/1999/xlink" x="0px" y="0px"
	 width="364.064px" height="364.065px" viewBox="0 0 364.064 364.065" style="enable-background:new 0 0 364.064 364.065;"
	 xml:space="preserve">
<g>
	<g>
		<path d="M309.499,58.048l-47.918,47.924H160.364V52.809l33.645,33.648l10.467-10.448l-51.503-51.503l-51.497,51.497l10.449,10.466
			l33.65-33.653v53.163H0l44.438,65.443h153.456v12.286H52.776l41.547,60.831h124.768l-12.844,41.751H104.79v0.211
			c-13.712,1.051-24.59,12.424-24.59,26.415c0,14.693,11.946,26.644,26.644,26.644c14.679,0,26.631-11.95,26.631-26.644
			c0-5.272-1.6-10.19-4.26-14.34h44.462c-2.669,4.149-4.263,9.067-4.263,14.34c0,14.693,11.95,26.644,26.643,26.644
			c14.688,0,26.625-11.95,26.625-26.644c0-6.587-2.485-12.556-6.467-17.21l56.421-183.387l41.956-41.961h49.473V58.06h-54.565
			V58.048z M106.844,327.249c-7.915,0-14.346-6.431-14.346-14.346c0-7.896,6.431-14.339,14.346-14.339
			c7.908,0,14.333,6.443,14.333,14.339C121.177,320.818,114.752,327.249,106.844,327.249z M196.051,327.249
			c-7.905,0-14.339-6.431-14.339-14.346c0-7.896,6.434-14.339,14.339-14.339c7.908,0,14.346,6.443,14.346,14.339
			C210.396,320.818,203.959,327.249,196.051,327.249z"/>
	</g>
</g>
<g>
</g>
<g>
</g>
<g>
</g>
<g>
</g>
<g>
</g>
<g>
</g>
<g>
</g>
<g>
</g>
<g>
</g>
<g>
</g>
<g>
</g>
<g>
</g>
<g>
</g>
<g>
</g>
<g>
</g>
</svg>
