<?xml version="1.0" encoding="iso-8859-1"?>
<!-- Generator: Adobe Illustrator 18.1.1, SVG Export Plug-In . SVG Version: 6.00 Build 0)  -->
<svg version="1.1" id="Capa_1" xmlns="http://www.w3.org/2000/svg" xmlns:xlink="http://www.w3.org/1999/xlink" x="0px" y="0px"
	 viewBox="0 0 317.293 317.293" style="enable-background:new 0 0 317.293 317.293;" xml:space="preserve">
<g>
	<g>
		<g>
			<path style="fill:#010002;" d="M269.734,35.982l-41.761,41.767H0l38.732,57.034h86.47l-21.669-21.675l9.143-9.149l26.738,26.738
				l26.728-26.738l9.143,9.149l-21.669,21.675h18.846v10.704h-18.264l21.082,21.076l-9.143,9.148l-26.728-26.738l-26.738,26.738
				l-9.143-9.148l21.082-21.076H45.993l36.213,53.015h108.738l-11.194,36.387H91.327v0.179c-11.95,0.914-21.43,10.829-21.43,23.018
				c0,12.804,10.416,23.225,23.219,23.225c12.793,0,23.208-10.416,23.208-23.225c0-4.601-1.392-8.882-3.715-12.499h38.753
				c-2.322,3.617-3.715,7.898-3.715,12.499c0,12.804,10.416,23.225,23.219,23.225c12.793,0,23.209-10.416,23.209-23.225
				c0-5.744-2.17-10.943-5.64-15.001l49.169-159.821l36.572-36.567h43.115V35.982H269.734z M93.111,270.596
				c-6.897,0-12.499-5.602-12.499-12.504c0-6.88,5.602-12.499,12.499-12.499c6.891,0,12.494,5.619,12.494,12.499
				C105.605,264.994,100.003,270.596,93.111,270.596z M170.863,270.596c-6.897,0-12.499-5.602-12.499-12.504
				c0-6.88,5.608-12.499,12.499-12.499c6.891,0,12.499,5.619,12.499,12.499C183.362,264.994,177.754,270.596,170.863,270.596z"/>
		</g>
	</g>
</g>
<g>
</g>
<g>
</g>
<g>
</g>
<g>
</g>
<g>
</g>
<g>
</g>
<g>
</g>
<g>
</g>
<g>
</g>
<g>
</g>
<g>
</g>
<g>
</g>
<g>
</g>
<g>
</g>
<g>
</g>
</svg>
