<?xml version="1.0" encoding="iso-8859-1"?>
<!-- Generator: Adobe Illustrator 18.1.1, SVG Export Plug-In . SVG Version: 6.00 Build 0)  -->
<svg version="1.1" id="Capa_1" xmlns="http://www.w3.org/2000/svg" xmlns:xlink="http://www.w3.org/1999/xlink" x="0px" y="0px"
	 viewBox="0 0 316.831 316.831" style="enable-background:new 0 0 316.831 316.831;" xml:space="preserve">
<g>
	<g>
		<path style="fill:#010002;" d="M304.473,125.485H165.701c-6.385-0.033-17.699-10.182-19.428-16.187l-0.152-0.468
			c-3.84-9.181,1.126-16.361,6.891-24.655c0.805-1.153,1.588-2.312,2.246-3.285c20.804-28.109,25.596-47.478-5.967-75.413
			l-5.684,6.418c24.998,22.11,25.972,35.24,4.629,64.067c-0.74,1.104-1.49,2.219-2.263,3.323c-5.95,8.567-13.32,19.211-7.843,32.629
			c1.327,4.324,5.096,9.372,9.807,13.57H12.336C5.532,125.485,0,131.016,0,137.82v161.187c0,6.804,5.532,12.347,12.336,12.347
			h292.143c6.826,0,12.352-5.542,12.352-12.347V137.82C316.831,131.016,311.299,125.485,304.473,125.485z M165.484,159.778h27.141
			v27.135h-27.141V159.778z M165.212,204.835h27.141v27.146h-27.141V204.835z M124.941,159.778h27.146v27.135h-27.146V159.778z
			 M124.674,204.835h27.146v27.146h-27.146V204.835z M83.223,159.778h27.135v27.135H83.223V159.778z M43.224,159.778h27.141v27.135
			H43.224V159.778z M70.365,279.671H43.224v-27.146h27.141V279.671z M42.958,231.982v-27.146h39.999h2.415h24.737v27.146H85.366
			h-2.415H42.958z M192.826,279.671H83.675v-27.146h109.151C192.826,252.525,192.826,279.671,192.826,279.671z M205.21,204.835
			h27.152v27.146H205.21V204.835z M232.634,279.671h-27.141v-27.146h27.141C232.634,252.525,232.634,279.671,232.634,279.671z
			 M232.634,186.913h-27.141v-27.135h27.141C232.634,159.778,232.634,186.913,232.634,186.913z M245.661,204.835h27.135v27.146
			h-27.135V204.835z M273.079,279.671h-27.152v-27.146h27.152V279.671z M273.079,186.913h-27.152v-27.135h27.152V186.913z"/>
	</g>
</g>
<g>
</g>
<g>
</g>
<g>
</g>
<g>
</g>
<g>
</g>
<g>
</g>
<g>
</g>
<g>
</g>
<g>
</g>
<g>
</g>
<g>
</g>
<g>
</g>
<g>
</g>
<g>
</g>
<g>
</g>
</svg>
