<?xml version="1.0" encoding="iso-8859-1"?>
<!-- Generator: Adobe Illustrator 18.1.1, SVG Export Plug-In . SVG Version: 6.00 Build 0)  -->
<svg version="1.1" id="Capa_1" xmlns="http://www.w3.org/2000/svg" xmlns:xlink="http://www.w3.org/1999/xlink" x="0px" y="0px"
	 viewBox="0 0 300.612 300.612" style="enable-background:new 0 0 300.612 300.612;" xml:space="preserve">
<g>
	<g>
		<g>
			<path style="fill:#010002;" d="M0,82.065v135.748h43.795l99.089,74.852V7.946L44.769,82.065H0z M8.088,209.725V90.147h33.994
				v119.578C42.082,209.725,8.088,209.725,8.088,209.725z"/>
		</g>
		<g>
			<g>
				<path style="fill:#010002;" d="M176.721,126.415l-3.421-5.918l-5.967,3.274c-1.659,0.897-3.269,1.643-4.727,2.187l-7.952,2.834
					l4.308,7.326c4.194,7.016,6.413,15.028,6.413,23.176c0,7.778-2.012,15.48-5.847,22.273l-2.491,4.455l4.389,4.688
					c0.528,0.631,1.028,1.262,1.539,1.915l7.756,9.404l5.129-8.284c6.413-10.41,9.796-22.322,9.796-34.446
					C185.646,147.768,182.557,136.39,176.721,126.415z"/>
			</g>
			<g>
				<path style="fill:#010002;" d="M202.725,100.139l-5.608-7.898l-5.744,7.827c-1.273,1.757-2.578,3.476-3.867,5.102l-3.149,3.981
					l2.872,4.324c9.399,13.652,14.359,29.491,14.359,45.802c0,18.738-6.233,36.425-18.03,51.144l-3.383,4.215l4.558,6.048
					c0.669,0.794,1.409,1.539,2.154,2.284c0.408,0.397,0.8,0.8,1.202,1.224l5.45,5.858l5.069-6.173
					c15.229-18.547,23.268-40.891,23.268-64.594C221.87,138.071,215.251,117.609,202.725,100.139z"/>
			</g>
			<g>
				<path style="fill:#010002;" d="M225.324,65.345l-5.847-6.63l-5.053,7.18c-1.278,1.773-2.545,3.617-3.873,5.57l-2.959,4.487
					l3.525,3.96c19.243,22.077,29.839,50.262,29.839,79.378c0,28.669-10.41,56.593-29.333,78.633l-4.46,5.243l5.096,4.509
					c1.082,0.968,2.159,1.876,3.28,2.812l7.005,5.961l4.514-5.319c22.023-25.683,34.157-58.296,34.157-91.828
					C261.222,124.669,248.467,91.295,225.324,65.345z"/>
			</g>
			<g>
				<path style="fill:#010002;" d="M252.378,36.512l-4.585-5.058l-5.183,4.493c-1.104,0.968-2.187,1.953-3.214,2.921l-6.793,6.217
					l4.808,5.151c27.685,29.817,42.914,68.549,42.914,109.064c0,37.97-13.587,74.863-38.291,103.902l-4.542,5.439l5.504,4.509
					c1.42,1.148,2.817,2.344,4.237,3.568l5.738,4.933l4.558-5.368c27.783-32.662,43.083-74.205,43.083-116.994
					C300.606,113.627,283.462,70.012,252.378,36.512z"/>
			</g>
		</g>
	</g>
</g>
<g>
</g>
<g>
</g>
<g>
</g>
<g>
</g>
<g>
</g>
<g>
</g>
<g>
</g>
<g>
</g>
<g>
</g>
<g>
</g>
<g>
</g>
<g>
</g>
<g>
</g>
<g>
</g>
<g>
</g>
</svg>
