<?xml version="1.0" encoding="iso-8859-1"?>
<!-- Generator: Adobe Illustrator 16.0.0, SVG Export Plug-In . SVG Version: 6.00 Build 0)  -->
<!DOCTYPE svg PUBLIC "-//W3C//DTD SVG 1.1//EN" "http://www.w3.org/Graphics/SVG/1.1/DTD/svg11.dtd">
<svg version="1.1" id="Capa_1" xmlns="http://www.w3.org/2000/svg" xmlns:xlink="http://www.w3.org/1999/xlink" x="0px" y="0px"
	 width="335.472px" height="335.471px" viewBox="0 0 335.472 335.471" style="enable-background:new 0 0 335.472 335.471;"
	 xml:space="preserve">
<g>
	<g>
		<g>
			<path d="M335.464,198.213l-0.27-166.886c0-9.917-6.348-14.363-12.635-14.363c-6.653,0-13.763,5.134-17.456,8.232L67.68,122.124
				c-11.418,0.012-29.177,0.042-42.157,0.066H0.3v8.818L0,206.554l68.755,0.102l41.211,18.075L94.17,259.75l102.294,47.054
				l16.609-36.798l95.849,42.058c3.038,2.45,8.911,6.443,14.58,6.443c3.374,0,6.425-1.303,8.593-3.681
				c2.575-2.787,3.669-6.689,3.309-10.857L335.464,198.213z M34.396,139.862v47.807H17.984v-47.78
				c2.306-0.015,5.092-0.015,7.999-0.021h8.413V139.862z M187.687,283.313l-70.206-32.293l8.65-19.191l70.755,31.074
				L187.687,283.313z"/>
		</g>
	</g>
</g>
<g>
</g>
<g>
</g>
<g>
</g>
<g>
</g>
<g>
</g>
<g>
</g>
<g>
</g>
<g>
</g>
<g>
</g>
<g>
</g>
<g>
</g>
<g>
</g>
<g>
</g>
<g>
</g>
<g>
</g>
</svg>
