<?xml version="1.0" encoding="iso-8859-1"?>
<!-- Generator: Adobe Illustrator 18.1.1, SVG Export Plug-In . SVG Version: 6.00 Build 0)  -->
<svg version="1.1" id="Capa_1" xmlns="http://www.w3.org/2000/svg" xmlns:xlink="http://www.w3.org/1999/xlink" x="0px" y="0px"
	 viewBox="0 0 461.199 461.199" style="enable-background:new 0 0 461.199 461.199;" xml:space="preserve">
<g>
	<g>
		<path style="fill:#010002;" d="M230.587,0C121.055,0,31.933,80.879,31.933,180.292c0,59.127,31.945,114.491,85.496,148.2
			c2.04,60.964-18.688,114.271-18.891,114.792l-7.023,17.915L236.05,360.47c106.59-2.65,193.216-83.383,193.216-180.186
			C429.258,80.879,340.152,0,230.587,0z M359.336,218.659H116.917v-23.272h242.418C359.336,195.387,359.336,218.659,359.336,218.659
			z M359.336,154.378H116.917v-23.272h242.418C359.336,131.106,359.336,154.378,359.336,154.378z"/>
	</g>
</g>
<g>
</g>
<g>
</g>
<g>
</g>
<g>
</g>
<g>
</g>
<g>
</g>
<g>
</g>
<g>
</g>
<g>
</g>
<g>
</g>
<g>
</g>
<g>
</g>
<g>
</g>
<g>
</g>
<g>
</g>
</svg>
