<?xml version="1.0" encoding="iso-8859-1"?>
<!-- Generator: Adobe Illustrator 18.1.1, SVG Export Plug-In . SVG Version: 6.00 Build 0)  -->
<svg version="1.1" id="Capa_1" xmlns="http://www.w3.org/2000/svg" xmlns:xlink="http://www.w3.org/1999/xlink" x="0px" y="0px"
	 viewBox="0 0 481.195 481.195" style="enable-background:new 0 0 481.195 481.195;" xml:space="preserve">
<g>
	<g>
		<g>
			<path style="fill:#010002;" d="M461.443,430.701v-226.21c9.315-8.348,15.2-20.484,15.2-33.953L476.489,0H6.389L6.153,170.538
				c0,13.095,5.552,24.914,14.404,33.262v226.901H1.748v50.495h477.7v-50.495H461.443z M385.392,75.888v94.649
				c0,16.647-13.567,30.222-30.222,30.222c-16.672,0-30.222-13.575-30.222-30.222V75.888H385.392z M233.672,75.888v94.649
				c0,16.647-13.55,30.222-30.206,30.222c-16.517,0-29.986-13.339-30.214-29.799c0-0.163,0-0.293,0-0.423V75.888H233.672z
				 M157.841,75.888v94.649c0,0.13,0,0.268,0,0.423c-0.228,16.46-13.697,29.799-30.214,29.799
				c-16.672,0-30.222-13.575-30.222-30.222V75.888H157.841z M21.557,170.538V75.888h60.436v94.649
				c0,16.647-13.55,30.222-30.206,30.222S21.557,187.185,21.557,170.538z M284.89,354.723H61.582V242.882H284.89V354.723z
				 M309.52,170.538c0,16.647-13.55,30.222-30.206,30.222c-16.664,0-30.23-13.575-30.23-30.222V75.888h60.436V170.538z
				 M418.345,424.507h-96.137V242.882h96.137V424.507z M461.232,170.538c0,16.647-13.55,30.222-30.222,30.222
				c-16.647,0-30.214-13.575-30.214-30.222V75.888h60.436C461.232,75.888,461.232,170.538,461.232,170.538z"/>
		</g>
	</g>
</g>
<g>
</g>
<g>
</g>
<g>
</g>
<g>
</g>
<g>
</g>
<g>
</g>
<g>
</g>
<g>
</g>
<g>
</g>
<g>
</g>
<g>
</g>
<g>
</g>
<g>
</g>
<g>
</g>
<g>
</g>
</svg>
