<?xml version="1.0" encoding="iso-8859-1"?>
<!-- Generator: Adobe Illustrator 16.0.0, SVG Export Plug-In . SVG Version: 6.00 Build 0)  -->
<!DOCTYPE svg PUBLIC "-//W3C//DTD SVG 1.1//EN" "http://www.w3.org/Graphics/SVG/1.1/DTD/svg11.dtd">
<svg version="1.1" id="Capa_1" xmlns="http://www.w3.org/2000/svg" xmlns:xlink="http://www.w3.org/1999/xlink" x="0px" y="0px"
	 width="335.969px" height="335.969px" viewBox="0 0 335.969 335.969" style="enable-background:new 0 0 335.969 335.969;"
	 xml:space="preserve">
<g>
	<g>
		<g>
			<path d="M52.233,146.838c0-61.183,49.777-110.957,110.959-110.957c50.566,0,94.678,35.197,107.324,82.836l-35.934-25.836
				l-15.432,21.059l67.758,47.108l0.054,0.558l0.187-0.387l9.092,6.313l39.728-79.191L312.742,76.69l-17.349,34.576
				C279.487,52.878,225.312,9.878,163.192,9.878c-75.51,0-136.942,61.438-136.942,136.96v7.527h25.989v-7.527H52.233z"/>
		</g>
		<g>
			<path d="M283.739,189.133c0,61.177-49.774,110.957-110.969,110.957c-50.573,0-94.675-35.194-107.309-82.843l35.927,25.833
				l15.36-20.921l-75.412-54.581l-4.296,6.686L0,247.656l23.254,11.649l17.272-34.455c15.712,59.075,69.04,101.24,132.244,101.24
				c75.528,0,136.957-61.44,136.957-136.945v-7.536h-25.988V189.133L283.739,189.133z"/>
		</g>
	</g>
</g>
<g>
</g>
<g>
</g>
<g>
</g>
<g>
</g>
<g>
</g>
<g>
</g>
<g>
</g>
<g>
</g>
<g>
</g>
<g>
</g>
<g>
</g>
<g>
</g>
<g>
</g>
<g>
</g>
<g>
</g>
</svg>
