<?xml version="1.0" encoding="iso-8859-1"?>
<!-- Generator: Adobe Illustrator 16.0.0, SVG Export Plug-In . SVG Version: 6.00 Build 0)  -->
<!DOCTYPE svg PUBLIC "-//W3C//DTD SVG 1.1//EN" "http://www.w3.org/Graphics/SVG/1.1/DTD/svg11.dtd">
<svg version="1.1" id="Capa_1" xmlns="http://www.w3.org/2000/svg" xmlns:xlink="http://www.w3.org/1999/xlink" x="0px" y="0px"
	 width="360.503px" height="360.504px" viewBox="0 0 360.503 360.504" style="enable-background:new 0 0 360.503 360.504;"
	 xml:space="preserve">
<g>
	<g>
		<path d="M284.039,0H76.456c-9.562,0-17.321,7.488-17.321,16.681v327.129c0,9.205,7.758,16.693,17.321,16.693h207.583
			c9.554,0,17.33-7.488,17.33-16.693V16.675C301.369,7.488,293.592,0,284.039,0z M148.072,22.899h64.359v4.513h-64.359V22.899z
			 M178.841,342.934c-5.311,0-9.646-4.323-9.646-9.655c0-5.309,4.341-9.639,9.646-9.639c5.333,0,9.662,4.33,9.662,9.639
			C188.502,338.61,184.167,342.934,178.841,342.934z M289.635,306.677H70.86V49.608h218.775V306.677z"/>
	</g>
</g>
<g>
</g>
<g>
</g>
<g>
</g>
<g>
</g>
<g>
</g>
<g>
</g>
<g>
</g>
<g>
</g>
<g>
</g>
<g>
</g>
<g>
</g>
<g>
</g>
<g>
</g>
<g>
</g>
<g>
</g>
</svg>
