<?xml version="1.0" encoding="iso-8859-1"?>
<!-- Generator: Adobe Illustrator 18.1.1, SVG Export Plug-In . SVG Version: 6.00 Build 0)  -->
<svg version="1.1" id="Capa_1" xmlns="http://www.w3.org/2000/svg" xmlns:xlink="http://www.w3.org/1999/xlink" x="0px" y="0px"
	 viewBox="0 0 315.89 315.89" style="enable-background:new 0 0 315.89 315.89;" xml:space="preserve">
<g>
	<g>
		<path style="fill:#010002;" d="M296.821,23.812L194.952,0L0.049,194.903L121.014,315.89l194.827-194.806L296.821,23.812z
			 M194.104,160.072c-0.843-2.959-2.981-7.234-7.424-11.672c-8.289-8.289-17.334-5.847-24.867,1.692
			c-4.58,4.558-7.446,8.501-10.215,12.542l15.311,15.295l-6.717,6.69l-14.446-14.446c-3.715,4.368-7.539,8.599-12.33,11.482
			c-5.733,3.405-12.118,4.672-18.792,4.139l-0.228,0.212l31.677,31.677l-7.751,7.751l-44.105-44.1l5.309-5.314
			c10.737,3.503,22.757,1.479,30.72-6.478c2.54-2.562,4.558-4.792,6.908-7.985l-10.943-10.943l6.69-6.69l9.888,9.883
			c2.654-3.715,6.152-8.501,10.312-12.635c12.542-12.542,29.311-12.118,41.125-0.326c5.521,5.542,8.077,10.639,8.926,14.25
			L194.104,160.072z M252.753,81.461c-6.75,6.734-17.633,6.734-24.367,0c-6.712-6.734-6.712-17.639,0-24.367
			c6.734-6.712,17.617-6.734,24.367,0C259.487,63.822,259.487,74.727,252.753,81.461z"/>
	</g>
</g>
<g>
</g>
<g>
</g>
<g>
</g>
<g>
</g>
<g>
</g>
<g>
</g>
<g>
</g>
<g>
</g>
<g>
</g>
<g>
</g>
<g>
</g>
<g>
</g>
<g>
</g>
<g>
</g>
<g>
</g>
</svg>
