<?xml version="1.0" encoding="iso-8859-1"?>
<!-- Generator: Adobe Illustrator 18.1.1, SVG Export Plug-In . SVG Version: 6.00 Build 0)  -->
<svg version="1.1" id="Capa_1" xmlns="http://www.w3.org/2000/svg" xmlns:xlink="http://www.w3.org/1999/xlink" x="0px" y="0px"
	 viewBox="0 0 474.554 474.554" style="enable-background:new 0 0 474.554 474.554;" xml:space="preserve">
<g>
	<g>
		<g>
			<path style="fill:#010002;" d="M237.269,0C124.558,0,32.868,83.22,32.868,185.51c0,60.867,32.872,117.807,87.976,152.492
				c2.097,62.761-19.232,117.58-19.444,118.108l-7.226,18.444l148.712-103.656c109.679-2.731,198.801-85.789,198.801-185.397
				C441.686,83.22,349.972,0,237.269,0z M137.938,225.438c-21.541,0-39.066-17.525-39.066-39.066s17.525-39.066,39.066-39.066
				c21.549,0,39.082,17.525,39.082,39.066S159.495,225.438,137.938,225.438z M237.269,225.438
				c-21.541,0-39.066-17.525-39.066-39.066s17.525-39.066,39.066-39.066c21.557,0,39.082,17.525,39.082,39.066
				S258.818,225.438,237.269,225.438z M338.519,225.438c-21.541,0-39.074-17.525-39.074-39.066s17.525-39.066,39.074-39.066
				c21.557,0,39.09,17.525,39.09,39.066S360.076,225.438,338.519,225.438z"/>
		</g>
	</g>
</g>
<g>
</g>
<g>
</g>
<g>
</g>
<g>
</g>
<g>
</g>
<g>
</g>
<g>
</g>
<g>
</g>
<g>
</g>
<g>
</g>
<g>
</g>
<g>
</g>
<g>
</g>
<g>
</g>
<g>
</g>
</svg>
