<?xml version="1.0" encoding="iso-8859-1"?>
<!-- Generator: Adobe Illustrator 16.0.0, SVG Export Plug-In . SVG Version: 6.00 Build 0)  -->
<!DOCTYPE svg PUBLIC "-//W3C//DTD SVG 1.1//EN" "http://www.w3.org/Graphics/SVG/1.1/DTD/svg11.dtd">
<svg version="1.1" id="Capa_1" xmlns="http://www.w3.org/2000/svg" xmlns:xlink="http://www.w3.org/1999/xlink" x="0px" y="0px"
	 width="348.639px" height="348.639px" viewBox="0 0 348.639 348.639" style="enable-background:new 0 0 348.639 348.639;"
	 xml:space="preserve">
<g>
	<g>
		<g>
			<path d="M286.78,96.668l4.869-4.876l5.807,5.816l15.774-15.771l-28.036-28.04L269.42,69.569l6.455,6.452l-5.183,5.17
				c-27.111-22.506-61.11-34.84-96.364-34.84c-83.344,0-151.147,67.797-151.147,151.141c0,83.353,67.797,151.146,151.147,151.146
				c83.328,0,151.129-67.794,151.129-151.146C325.457,160.052,311.76,124.474,286.78,96.668z M186.224,325.761v-25.299h-23.8v25.299
				c-61.519-5.705-111.068-55.533-116.43-117.105h20.734v-22.314H45.994c5.374-61.924,55.262-111.797,117.192-117.171v22.056h22.292
				V69.169c61.922,5.375,111.804,55.247,117.178,117.171h-19.228v22.314h19.228C297.276,270.228,247.736,320.056,186.224,325.761z"
				/>
		</g>
		<g>
			<path d="M180.288,180.559v-79.107c0-3.387-2.177-6.104-4.87-6.104c-2.708,0-4.891,2.717-4.891,6.104v78.423
				c-8.133,1.747-14.24,8.971-14.24,17.611c0,8.659,6.113,15.883,14.24,17.631v7.854c0,3.387,2.183,6.125,4.891,6.125
				c2.693,0,4.87-2.738,4.87-6.125v-8.538c7.004-2.474,12.061-9.092,12.061-16.952C192.349,189.632,187.292,183.015,180.288,180.559
				z"/>
		</g>
		<g>
			<rect x="159.244" width="25.91" height="39.656"/>
		</g>
	</g>
</g>
<g>
</g>
<g>
</g>
<g>
</g>
<g>
</g>
<g>
</g>
<g>
</g>
<g>
</g>
<g>
</g>
<g>
</g>
<g>
</g>
<g>
</g>
<g>
</g>
<g>
</g>
<g>
</g>
<g>
</g>
</svg>
