<?xml version="1.0" encoding="iso-8859-1"?>
<!-- Generator: Adobe Illustrator 16.0.0, SVG Export Plug-In . SVG Version: 6.00 Build 0)  -->
<!DOCTYPE svg PUBLIC "-//W3C//DTD SVG 1.1//EN" "http://www.w3.org/Graphics/SVG/1.1/DTD/svg11.dtd">
<svg version="1.1" id="Capa_1" xmlns="http://www.w3.org/2000/svg" xmlns:xlink="http://www.w3.org/1999/xlink" x="0px" y="0px"
	 width="368.425px" height="368.424px" viewBox="0 0 368.425 368.424" style="enable-background:new 0 0 368.425 368.424;"
	 xml:space="preserve">
<g>
	<g>
		<path d="M340.1,98.669l19.708-19.714c4.684-4.696,4.684-12.31,0-16.963l-15.223-15.226c-4.521-4.524-12.424-4.524-16.976,0
			l-51.893,51.896H94.065l-51.896-51.89c-4.549-4.525-12.421-4.525-16.988,0L9.986,61.974C5.306,66.651,5.299,74.265,9.98,78.961
			L29.7,98.675H0v58.297h25.986l35.836,168.08h234.467l46.068-168.08h26.067V98.675H340.1V98.669z M109.119,275.975
			c0,3.398-2.756,6.144-6.143,6.144c-3.396,0-6.149-2.745-6.149-6.144v-95.148c0-3.402,2.753-6.149,6.149-6.149
			c3.387,0,6.143,2.741,6.143,6.149V275.975z M163.403,275.975c0,3.398-2.745,6.144-6.143,6.144c-3.384,0-6.149-2.745-6.149-6.144
			v-95.148c0-3.402,2.765-6.149,6.149-6.149c3.398,0,6.143,2.741,6.143,6.149V275.975z M217.062,275.975
			c0,3.398-2.763,6.144-6.149,6.144c-3.398,0-6.137-2.745-6.137-6.144v-95.148c0-3.402,2.738-6.149,6.137-6.149
			c3.387,0,6.149,2.741,6.149,6.149V275.975z M270.065,275.975c0,3.398-2.744,6.144-6.148,6.144c-3.381,0-6.143-2.745-6.143-6.144
			v-95.148c0-3.402,2.762-6.149,6.143-6.149c3.404,0,6.148,2.741,6.148,6.149V275.975z M356.127,144.684H12.286V110.96h47.081
			L18.675,70.674L33.48,55.467l55.502,55.493h191.814l55.105-55.493l15.21,14.799l-40.7,40.694h45.715V144.684z"/>
	</g>
</g>
<g>
</g>
<g>
</g>
<g>
</g>
<g>
</g>
<g>
</g>
<g>
</g>
<g>
</g>
<g>
</g>
<g>
</g>
<g>
</g>
<g>
</g>
<g>
</g>
<g>
</g>
<g>
</g>
<g>
</g>
</svg>
