<?xml version="1.0" encoding="iso-8859-1"?>
<!-- Generator: Adobe Illustrator 16.0.0, SVG Export Plug-In . SVG Version: 6.00 Build 0)  -->
<!DOCTYPE svg PUBLIC "-//W3C//DTD SVG 1.1//EN" "http://www.w3.org/Graphics/SVG/1.1/DTD/svg11.dtd">
<svg version="1.1" id="Capa_1" xmlns="http://www.w3.org/2000/svg" xmlns:xlink="http://www.w3.org/1999/xlink" x="0px" y="0px"
	 width="328.504px" height="328.505px" viewBox="0 0 328.504 328.505" style="enable-background:new 0 0 328.504 328.505;"
	 xml:space="preserve">
<g>
	<g>
		<path d="M311.132,39.333h-120.9c-7.752,0-17.702,2.267-25.367,8.284c-6.917-6.017-15.883-8.284-22.881-8.284H17.39
			C7.803,39.333,0,46.785,0,55.939v208.994c0,9.15,7.803,16.597,17.39,16.597h122.768l13.048,6.462
			c3.417,1.687,7.539,1.404,11.055,0.162c1.906,0.666,3.942,1.015,5.996,1.015c1.597,0,3.125-0.318,4.536-0.937l15.427-6.702
			h120.912c9.596,0,17.372-7.446,17.372-16.597V55.939C328.504,46.785,320.716,39.333,311.132,39.333z M183.315,259.703
			l-7.662,3.326V73.773c0-4.975,1.639-7.779,5.656-9.686c3.687-1.753,7.812-2.054,9.091-1.973h115.334L305.8,258.76H187.842
			C186.269,258.76,184.696,259.097,183.315,259.703z M311.985,55.945L311.985,55.945c0-0.006,0.036,0.009,0.036,0H311.985z
			 M142.106,62.115c4.906,0,10.761,2.026,10.761,11.658v188.638l-4.957-2.456c-1.555-0.78-3.312-1.183-5.083-1.183H17.474
			l-0.964,0.204l0.88-203.151v6.29H142.106z M16.522,264.921L16.522,264.921c0,0.013-0.03,0-0.03,0H16.522z"/>
	</g>
</g>
<g>
</g>
<g>
</g>
<g>
</g>
<g>
</g>
<g>
</g>
<g>
</g>
<g>
</g>
<g>
</g>
<g>
</g>
<g>
</g>
<g>
</g>
<g>
</g>
<g>
</g>
<g>
</g>
<g>
</g>
</svg>
