<?xml version="1.0" encoding="iso-8859-1"?>
<!-- Generator: Adobe Illustrator 16.0.0, SVG Export Plug-In . SVG Version: 6.00 Build 0)  -->
<!DOCTYPE svg PUBLIC "-//W3C//DTD SVG 1.1//EN" "http://www.w3.org/Graphics/SVG/1.1/DTD/svg11.dtd">
<svg version="1.1" id="Capa_1" xmlns="http://www.w3.org/2000/svg" xmlns:xlink="http://www.w3.org/1999/xlink" x="0px" y="0px"
	 width="363.813px" height="363.813px" viewBox="0 0 363.813 363.813" style="enable-background:new 0 0 363.813 363.813;"
	 xml:space="preserve">
<g>
	<g>
		<path d="M207.813,142.071l-0.33-6.383c-0.061-1.12-0.12-2.276-0.181-3.456c26.758-3.191,57.725-8.062,73.985-26.373
			c9.205-10.34,12.67-25.22,9.758-41.893c-4.083-23.542-20.26-47.228-39.626-57.775c-20.116-9.716-38.143-7.893-50.229,4.741
			c-18.54,19.407-20.381,60.654-19.119,99.926c-2.514,0.357-4.918,0.744-7.299,1.168c-54.842,11.77-85.956,29.816-97.902,56.817
			c-9.568,21.575-5.663,47.582,11.5,77.102c19.561,36.035,55.628,61.062,93.636,65.65c-7.614,26.77-19.285,27.964-54.5,27.964
			h-8.578v24.254h8.578c41.193,0,67.5-2.601,79.582-52.278c35.963-4.875,75.918-32.66,77.281-97.169
			c0.528-21.216-6.599-39.263-20.62-52.17C250.141,149.658,229.815,142.359,207.813,142.071z M218.73,27.694
			c2.359-2.465,4.93-3.567,8.322-3.567c3.735,0,8.425,1.309,13.253,3.63c12.483,6.807,24.019,24.157,26.835,40.367
			c1.609,9.224,0.204,16.897-3.981,21.6c-10.202,11.499-35.62,15.594-56.895,18.194C205.123,64.534,209.308,37.551,218.73,27.694z
			 M183.167,135.222l0.216,4.032c0.09,1.844,0.183,3.633,0.271,5.362c-23.509,5.128-42.049,17.702-50.288,34.359
			c-5.557,11.262-9.193,29.643,5.123,53.266l4.452,7.308l20.702-12.573l-4.425-7.345c-6.993-11.547-8.338-21.323-4.102-29.897
			c4.432-8.956,15.255-16.384,29.165-20.309c0.142,8.155,0.436,17.744,0.748,28.361l0.027,0.786
			c0.87,29.063,1.936,64.563,0.576,89.063c-30.598-3.303-59.889-23.678-76.117-53.557c-13.177-22.687-16.693-41.332-10.472-55.422
			c8.308-18.75,35.449-33.173,80.452-42.823C180.668,135.622,181.887,135.417,183.167,135.222z M209.981,286.429
			c1.225-25.521,0.18-60.145-0.673-88.589c-0.349-11.493-0.679-22.497-0.805-31.507c15.654,0.396,29.718,5.344,38.803,13.715
			c8.846,8.137,13.169,19.479,12.809,33.771C258.967,267.358,227.838,282.28,209.981,286.429z"/>
	</g>
</g>
<g>
</g>
<g>
</g>
<g>
</g>
<g>
</g>
<g>
</g>
<g>
</g>
<g>
</g>
<g>
</g>
<g>
</g>
<g>
</g>
<g>
</g>
<g>
</g>
<g>
</g>
<g>
</g>
<g>
</g>
</svg>
