<?xml version="1.0" encoding="iso-8859-1"?>
<!-- Generator: Adobe Illustrator 18.1.1, SVG Export Plug-In . SVG Version: 6.00 Build 0)  -->
<svg version="1.1" id="Capa_1" xmlns="http://www.w3.org/2000/svg" xmlns:xlink="http://www.w3.org/1999/xlink" x="0px" y="0px"
	 viewBox="0 0 305.267 305.267" style="enable-background:new 0 0 305.267 305.267;" xml:space="preserve">
<g>
	<g>
		<g>
			<path style="fill:#010002;" d="M290.451,87.982c-9.556-9.546-22.3-14.805-35.833-14.811
				c-13.565,0.005-26.287,5.254-35.838,14.811l-74.744,74.771l-0.484-0.495l-29.442-29.453l0.484-0.484l32.879-32.662
				c6.217-3.715,30.774-12.553,48.723-12.553c4.939,0,8.969,0.718,11.634,2.056l0.734,0.375l1.757,0.12
				c2.105-0.005,3.503-0.816,4.286-1.49c1.262-1.104,1.969-2.703,1.969-4.498c0-13.87-65.834-75.315-75.804-75.315
				c-1.686,0-3.193,0.751-4.139,2.045c-0.74,1.006-1.436,2.758-0.598,5.417c4.384,13.783-4.155,54.755-8.866,61.266l-1.104,2.018
				l-35.234,35.234l-11.139-11.139c-0.25-0.25-0.555-0.419-0.908-0.615l-1.05-0.604l4.656-4.667L76.8,91.735l-15.665,15.659
				l5.591,5.591l4.645-4.645l0.571,1.001c0.207,0.359,0.397,0.696,0.658,0.974l11.134,11.128l-12.717,12.722l-11.15-11.156
				c-0.261-0.267-0.615-0.451-0.979-0.653l-0.974-0.538l4.65-4.672l-5.575-5.591L41.315,127.22l5.586,5.591l4.667-4.672l0.533,0.974
				c0.207,0.37,0.397,0.734,0.68,0.995l11.139,11.145l-13.059,13.07l-11.145-11.15c-0.305-0.305-0.669-0.5-1.099-0.723l-0.81-0.435
				l0.571-0.696l3.726-3.699l-5.591-5.591l-15.665,15.675l5.591,5.57l4.993-4.999l0.435,0.816c0.256,0.506,0.457,0.887,0.751,1.153
				l11.156,11.166l-0.484,0.473l-25.863,25.868c-0.419,0.424-0.794,0.848-1.169,1.327c-0.538,0.446-0.984,0.827-1.463,1.267
				C5.265,199.891,0,212.629,0,226.173c0.005,13.56,5.27,26.276,14.838,35.827c9.546,9.567,22.268,14.827,35.833,14.827
				c13.543,0,26.271-5.26,35.827-14.827c0.402-0.408,0.794-0.854,1.148-1.294l0.201-0.19c0.424-0.348,0.848-0.696,1.251-1.099
				l43.594-43.6l0.479,0.495l29.48,29.447l-0.495,0.479l-10.34,10.323l-0.359-0.076c-0.294-0.065-0.593-0.136-0.865-0.223
				c-2.105-0.544-4.455-1.148-6.641-1.148c-2.29,0.011-4.112,0.674-5.434,1.996l-3.253,3.258c-6.44,6.473-1.023,19.82,4.079,24.922
				l4.623,4.596c3.405,3.41,10.497,7.027,16.915,7.027c4.172,0,6.663-1.61,8.006-2.953l3.247-3.242
				c3.127-3.138,1.866-8.055,0.854-12.02c-0.087-0.321-0.147-0.598-0.228-0.865l-0.092-0.375l0.283-0.288l113.845-113.861
				c0.549-0.549,1.05-1.159,1.539-1.887l0.174-0.163c0.772-0.538,1.387-1.05,1.942-1.605
				C310.206,139.909,310.206,107.748,290.451,87.982z M74.314,244.638c-0.267,0.261-0.49,0.566-0.718,0.881l-0.441,0.636
				l-0.636,0.424c-0.277,0.185-0.533,0.364-0.8,0.62c-5.608,5.624-13.097,8.735-21.055,8.735s-15.436-3.095-21.055-8.708
				c-5.624-5.619-8.713-13.097-8.713-21.044c0-7.974,3.089-15.458,8.708-21.076c0.239-0.245,0.424-0.484,0.691-0.859l0.441-0.604
				l0.615-0.424c0.294-0.212,0.582-0.43,0.854-0.702l22.376-22.371l42.115,42.098L74.314,244.638z M107.732,211.188l-42.077-42.109
				l32.188-32.188l42.115,42.098L107.732,211.188z M275.646,144.88c-0.31,0.337-0.593,0.718-0.876,1.218l-0.56,0.984l-0.99,0.571
				c-0.517,0.299-0.908,0.593-1.197,0.876l-93.144,93.139l-42.109-42.098l96.804-96.804c5.597-5.619,13.07-8.713,21.027-8.713
				c7.979,0,15.441,3.095,21.06,8.713c5.629,5.624,8.724,13.103,8.724,21.065S281.292,139.262,275.646,144.88z"/>
		</g>
	</g>
</g>
<g>
</g>
<g>
</g>
<g>
</g>
<g>
</g>
<g>
</g>
<g>
</g>
<g>
</g>
<g>
</g>
<g>
</g>
<g>
</g>
<g>
</g>
<g>
</g>
<g>
</g>
<g>
</g>
<g>
</g>
</svg>
