<?xml version="1.0" encoding="iso-8859-1"?>
<!-- Generator: Adobe Illustrator 16.0.0, SVG Export Plug-In . SVG Version: 6.00 Build 0)  -->
<!DOCTYPE svg PUBLIC "-//W3C//DTD SVG 1.1//EN" "http://www.w3.org/Graphics/SVG/1.1/DTD/svg11.dtd">
<svg version="1.1" id="Capa_1" xmlns="http://www.w3.org/2000/svg" xmlns:xlink="http://www.w3.org/1999/xlink" x="0px" y="0px"
	 width="345.861px" height="345.861px" viewBox="0 0 345.861 345.861" style="enable-background:new 0 0 345.861 345.861;"
	 xml:space="preserve">
<g>
	<g>
		<g>
			<path d="M339.981,102.705C334.764,83.243,254.3,4.292,239.39,0.299c-3.663-0.994-5.867,0.745-6.647,1.519
				c-1.303,1.291-2.57,3.615-1.375,7.435c4.161,13.117-3.579,57.424-9.776,84.013l-0.138,0.504l-59.276,59.306l-6.308-6.278
				l6.461-6.506l-7.137-7.095l-18.068,18.12l7.164,7.122l6.482-6.506l6.308,6.26l-16.987,16.997l-6.23-6.206l6.488-6.519
				l-7.122-7.119l-18.041,18.12l7.157,7.119l6.432-6.498l6.2,6.186l-16.432,16.453l-6.215-6.209l6.437-6.468l-7.119-7.134
				l-18.042,18.123l7.164,7.127l6.461-6.526l6.218,6.19l-16.813,16.796l-6.161-6.119l6.131-6.167l-7.158-7.115L71.42,217.345
				l7.137,7.128l6.812-6.857l6.17,6.101l-74.163,74.207l-0.844-0.09c-3.011-0.234-5.978,0.835-8.085,2.966
				c-3.979,4.006-3.954,10.521,0.03,14.508l19.696,19.684c4.008,4.012,10.55,4.012,14.562,0c2.976-2.979,3.816-7.578,2.096-11.451
				l-0.492-1.135l19.807-19.804l1.015,2.559c3.228,8.263,8.074,15.679,14.406,22.013c24.019,23.978,63.573,24.975,88.808,2.457
				l3.032-2.835l90.141-90.107c25.227-25.238,25.227-66.309,0-91.531c-6.047-6.032-13.078-10.716-20.885-13.964l-2.516-1.015
				l10.154-10.169l0.468-0.123c25.185-6.635,67.452-14.069,80.729-7.362c0.595,0.297,1.237,0.504,1.982,0.562
				c2.822,0.246,5.128-0.486,6.791-2.153C339.441,109.788,341.177,107.187,339.981,102.705z M231.757,221.729l-76.563,76.549
				c-12.313,12.34-32.363,12.304-44.673,0c-12.31-12.298-12.31-32.342,0-44.658l76.573-76.569c12.328-12.304,32.342-12.304,44.67,0
				C244.067,189.375,244.067,209.395,231.757,221.729z"/>
		</g>
		<g>
			<path d="M191.651,214.805l-43.364,43.36c-4.587,4.588-4.587,12.052,0,16.622c3.333,3.35,8.233,4.232,12.4,2.684l50.239-50.242
				c1.567-4.186,0.685-9.073-2.666-12.424C203.685,210.229,196.215,210.229,191.651,214.805z"/>
		</g>
	</g>
</g>
<g>
</g>
<g>
</g>
<g>
</g>
<g>
</g>
<g>
</g>
<g>
</g>
<g>
</g>
<g>
</g>
<g>
</g>
<g>
</g>
<g>
</g>
<g>
</g>
<g>
</g>
<g>
</g>
<g>
</g>
</svg>
