<?xml version="1.0" encoding="iso-8859-1"?>
<!-- Generator: Adobe Illustrator 16.0.0, SVG Export Plug-In . SVG Version: 6.00 Build 0)  -->
<!DOCTYPE svg PUBLIC "-//W3C//DTD SVG 1.1//EN" "http://www.w3.org/Graphics/SVG/1.1/DTD/svg11.dtd">
<svg version="1.1" id="Capa_1" xmlns="http://www.w3.org/2000/svg" xmlns:xlink="http://www.w3.org/1999/xlink" x="0px" y="0px"
	 width="349.971px" height="349.972px" viewBox="0 0 349.971 349.972" style="enable-background:new 0 0 349.971 349.972;"
	 xml:space="preserve">
<g>
	<g>
		<g>
			<path d="M344.022,103.922C338.75,84.229,257.319,4.336,242.228,0.294c-3.698-0.982-5.95,0.745-6.725,1.538
				c-1.315,1.309-2.601,3.666-1.394,7.509c4.216,13.294-3.621,58.132-9.89,85.034l-0.139,0.51l-59.981,60l-6.389-6.35l6.536-6.576
				l-7.218-7.206l-18.282,18.348l7.251,7.188l6.554-6.584l6.389,6.35l-17.207,17.207l-6.278-6.278l6.557-6.605l-7.208-7.206
				l-18.254,18.33l7.224,7.211l6.524-6.566l6.278,6.26l-16.627,16.646l-6.29-6.275l6.519-6.545l-7.194-7.219l-18.264,18.327
				l7.25,7.224l6.537-6.6l6.29,6.258l-17.002,17.006l-6.239-6.209l6.179-6.246l-7.224-7.176l-18.257,18.333l7.224,7.212l6.917-6.941
				l6.224,6.173l-75.048,75.06l-0.834-0.054c-3.068-0.24-6.047,0.835-8.185,2.996c-4.023,4.06-3.996,10.629,0.03,14.664
				l19.93,19.936c4.056,4.06,10.656,4.06,14.733-0.018c3.005-2.99,3.843-7.675,2.12-11.596l-0.51-1.122l20.041-20.045l1.039,2.576
				c3.264,8.354,8.164,15.859,14.58,22.284c24.299,24.271,64.323,25.274,89.859,2.492l3.075-2.864l91.203-91.189
				c25.515-25.514,25.515-67.073,0-92.608c-6.101-6.107-13.229-10.848-21.143-14.126l-2.54-1.039l10.274-10.256l0.48-0.129
				c25.484-6.707,68.25-14.24,81.647-7.452c0.636,0.327,1.297,0.499,2.018,0.573c2.882,0.237,5.188-0.492,6.894-2.186
				C343.439,111.092,345.229,108.462,344.022,103.922z M234.512,224.352l-77.477,77.474c-12.457,12.466-32.744,12.448-45.201,0
				c-12.457-12.46-12.457-32.72,0-45.21l77.479-77.462c12.448-12.475,32.715-12.475,45.198,0
				C246.966,191.607,246.966,211.886,234.512,224.352z"/>
		</g>
	</g>
</g>
<g>
</g>
<g>
</g>
<g>
</g>
<g>
</g>
<g>
</g>
<g>
</g>
<g>
</g>
<g>
</g>
<g>
</g>
<g>
</g>
<g>
</g>
<g>
</g>
<g>
</g>
<g>
</g>
<g>
</g>
</svg>
