<?xml version="1.0" encoding="iso-8859-1"?>
<!-- Generator: Adobe Illustrator 18.1.1, SVG Export Plug-In . SVG Version: 6.00 Build 0)  -->
<svg version="1.1" id="Capa_1" xmlns="http://www.w3.org/2000/svg" xmlns:xlink="http://www.w3.org/1999/xlink" x="0px" y="0px"
	 viewBox="0 0 313.339 313.339" style="enable-background:new 0 0 313.339 313.339;" xml:space="preserve">
<g>
	<g>
		<path style="fill:#010002;" d="M260.507,116.423L170.767,7.99C169.636,6.657,163.55,0,154.216,0
			c-3.726,0-9.284,1.115-14.609,6.434C128.615,17.443,57.363,111.99,52.136,118.936c-3.573,3.666-10.53,12.412-6.663,21.783
			c2.736,6.636,9.187,10.002,19.156,10.002h9.437v144.973c-0.044,1.637,0.169,7.343,4.808,12.135
			c2.448,2.513,6.902,5.51,14.267,5.51h124.19c9.698,0,14.756-3.927,17.285-7.207c3.601-4.661,3.568-9.752,3.274-12.222v-146.42
			h13.304c11.4,0,15.425-5.891,16.812-9.377C271.825,128.525,263.645,119.442,260.507,116.423z M216.064,125.67v165.859
			l-120.171-0.022V128.911H71.907c27.745-36.741,72.546-95.472,82.565-106.388l85.393,103.146H216.064z"/>
	</g>
</g>
<g>
</g>
<g>
</g>
<g>
</g>
<g>
</g>
<g>
</g>
<g>
</g>
<g>
</g>
<g>
</g>
<g>
</g>
<g>
</g>
<g>
</g>
<g>
</g>
<g>
</g>
<g>
</g>
<g>
</g>
</svg>
