<?xml version="1.0" encoding="iso-8859-1"?>
<!-- Generator: Adobe Illustrator 18.1.1, SVG Export Plug-In . SVG Version: 6.00 Build 0)  -->
<svg version="1.1" id="Capa_1" xmlns="http://www.w3.org/2000/svg" xmlns:xlink="http://www.w3.org/1999/xlink" x="0px" y="0px"
	 viewBox="0 0 444.698 444.698" style="enable-background:new 0 0 444.698 444.698;" xml:space="preserve">
<g>
	<g>
		<g>
			<path style="fill:#010002;" d="M442.471,171.903c-1.406-1.057-3.219-1.39-4.934-0.91l-67.077,19.224
				c-2.422,0.691-4.097,2.902-4.097,5.406v2.065h-39.188v-45.805v-1.65v-16.517h35.27v10.868h42.244
				c18.509,0,33.547-12.583,33.547-28.044s-15.038-28.044-33.547-28.044h-42.244v10.868h-38.099
				c-6.495-17.728-23.451-30.442-43.39-30.442H138.657c-24.686,0-52.291,19.769-52.291,46.227v12.485H22.622
				C10.144,127.635,0,137.771,0,150.24v179.089c0,12.469,10.144,22.614,22.622,22.614h12.868v23.833h86.228v-23.833h102.883v23.833
				h62.785v-23.833h17.184c12.453,0,22.597-10.144,22.597-22.614v-31.661h39.188v2.057c0,2.43,1.544,4.568,3.845,5.34l67.101,22.451
				c0.577,0.195,1.187,0.284,1.78,0.284c1.162,0,2.317-0.366,3.284-1.057c1.488-1.057,2.333-2.764,2.333-4.568V176.398
				C444.698,174.642,443.877,172.976,442.471,171.903z M373.679,99.729h31.002c12.315,0,22.313,7.543,22.313,16.802
				c0,9.267-9.998,16.81-22.313,16.81h-31.002V99.729z M110.459,364.518H46.731v-12.583h63.728V364.518z M148.477,325.281H35.489
				v-66.467h112.987V325.281z M276.144,364.518h-40.285v-12.583h40.285V364.518z M315.933,130.797
				c-3.341-1.959-7.21-3.17-11.356-3.17H135.276v-0.618c0-10.917,14.006-19.704,25.613-19.704h95.234
				c11.9,0,21.549,8.836,21.549,19.704h11.258c0-17.078-14.713-30.954-32.807-30.954h-95.234c-17.395,0-36.879,13.241-36.879,30.954
				v0.618H97.608v-12.485c0-19.696,22.061-34.977,41.049-34.977h142.299c19.281,0,34.977,15.688,34.977,34.977V130.797z
				 M366.363,286.427h-39.188v-77.49h39.188V286.427z"/>
		</g>
		<g>
			<polyline style="fill:#010002;" points="46.731,270.056 46.731,314.047 137.235,314.047 137.235,270.056 			"/>
		</g>
	</g>
</g>
<g>
</g>
<g>
</g>
<g>
</g>
<g>
</g>
<g>
</g>
<g>
</g>
<g>
</g>
<g>
</g>
<g>
</g>
<g>
</g>
<g>
</g>
<g>
</g>
<g>
</g>
<g>
</g>
<g>
</g>
</svg>
