<?xml version="1.0" encoding="iso-8859-1"?>
<!-- Generator: Adobe Illustrator 18.1.1, SVG Export Plug-In . SVG Version: 6.00 Build 0)  -->
<svg version="1.1" id="Capa_1" xmlns="http://www.w3.org/2000/svg" xmlns:xlink="http://www.w3.org/1999/xlink" x="0px" y="0px"
	 viewBox="0 0 298.692 298.692" style="enable-background:new 0 0 298.692 298.692;" xml:space="preserve">
<g>
	<g>
		<g>
			<path style="fill:#010002;" d="M249.299,106.97c-2.235-2.105-5.015-3.247-7.914-3.247h-17.427c-1.05,0-2.067,0.136-3.062,0.43
				V85.964c0-9.415-7.664-17.079-17.084-17.079H17.079C7.664,68.886,0,76.549,0,85.964v126.763c0,9.415,7.664,17.079,17.079,17.079
				h186.734c9.415,0,17.084-7.658,17.084-17.079v-18.199c1.001,0.288,2.023,0.43,3.062,0.43h17.427c2.344,0,4.601-0.745,6.576-2.148
				l50.73,14.044V93.307L249.299,106.97z M221.305,117.38c0-2.11,1.256-4.036,2.649-4.036h17.427c1.246,0,2.649,1.724,2.649,4.036
				v63.925c0,2.301-1.403,4.025-2.649,4.025h-17.427c-1.392,0-2.649-1.925-2.649-4.025V117.38z"/>
		</g>
	</g>
</g>
<g>
</g>
<g>
</g>
<g>
</g>
<g>
</g>
<g>
</g>
<g>
</g>
<g>
</g>
<g>
</g>
<g>
</g>
<g>
</g>
<g>
</g>
<g>
</g>
<g>
</g>
<g>
</g>
<g>
</g>
</svg>
