<?xml version="1.0" encoding="iso-8859-1"?>
<!-- Generator: Adobe Illustrator 18.1.1, SVG Export Plug-In . SVG Version: 6.00 Build 0)  -->
<svg version="1.1" id="Capa_1" xmlns="http://www.w3.org/2000/svg" xmlns:xlink="http://www.w3.org/1999/xlink" x="0px" y="0px"
	 viewBox="0 0 479.96 479.96" style="enable-background:new 0 0 479.96 479.96;" xml:space="preserve">
<g>
	<g>
		<path style="fill:#010002;" d="M433.704,55.591H308.841c1.049-2.951,1.723-6.08,1.723-9.364V28.1c0-15.509-12.591-28.1-28.1-28.1
			h-87.789c-15.501,0-28.1,12.591-28.1,28.1v18.119c0,3.292,0.683,6.413,1.74,9.364H46.231c-5.178,0-9.356,4.186-9.356,9.356
			c0,5.178,4.178,9.356,9.356,9.356H86.11c-1.154,2.918-1.837,6.056-1.837,9.372V454.2c0,14.201,11.559,25.759,25.768,25.759
			h259.887c14.192,0,25.743-11.559,25.743-25.759V83.684c0-3.316-0.683-6.454-1.829-9.372h39.863c5.178,0,9.38-4.178,9.38-9.356
			S438.882,55.591,433.704,55.591z M166.217,399.365c0,3.894-3.146,7.023-7.023,7.023s-7.023-3.138-7.023-7.023V138.503
			c0-3.869,3.146-7.023,7.023-7.023s7.023,3.162,7.023,7.023V399.365z M246.991,399.365c0,3.894-3.146,7.023-7.023,7.023
			s-7.023-3.138-7.023-7.023V138.503c0-3.869,3.146-7.023,7.023-7.023c3.877,0,7.023,3.162,7.023,7.023V399.365z M291.844,46.227
			c0,5.162-4.202,9.364-9.38,9.364h-87.789c-5.17,0-9.356-4.202-9.356-9.364V28.1c0-5.178,4.194-9.372,9.356-9.372h87.789
			c5.186,0,9.38,4.194,9.38,9.372V46.227z M328.935,399.365c0,3.894-3.138,7.023-7.023,7.023c-3.869,0-7.023-3.138-7.023-7.023
			V138.503c0-3.869,3.162-7.023,7.023-7.023c3.894,0,7.023,3.162,7.023,7.023V399.365z"/>
	</g>
</g>
<g>
</g>
<g>
</g>
<g>
</g>
<g>
</g>
<g>
</g>
<g>
</g>
<g>
</g>
<g>
</g>
<g>
</g>
<g>
</g>
<g>
</g>
<g>
</g>
<g>
</g>
<g>
</g>
<g>
</g>
</svg>
