<?xml version="1.0" encoding="iso-8859-1"?>
<!-- Generator: Adobe Illustrator 18.1.1, SVG Export Plug-In . SVG Version: 6.00 Build 0)  -->
<svg version="1.1" id="Capa_1" xmlns="http://www.w3.org/2000/svg" xmlns:xlink="http://www.w3.org/1999/xlink" x="0px" y="0px"
	 viewBox="0 0 450.721 450.721" style="enable-background:new 0 0 450.721 450.721;" xml:space="preserve">
<g>
	<g>
		<g>
			<path style="fill:#010002;" d="M268.796,249.242c-14.225,0-24.394,12.038-24.394,31.051c0,16.103,8.275,29.531,24.231,29.531
				c9.315,0,17.639-5.779,20.712-15.274c0.854-2.544,1.171-5.438,1.171-7.982v-14.745c0-2.544-0.154-4.755-0.837-6.609
				C286.947,256.363,279.851,249.242,268.796,249.242z"/>
		</g>
		<g>
			<path style="fill:#010002;" d="M393.228,101.652H287.784V72.235c0-34.441-28.011-62.452-62.427-62.452
				c-34.441,0-62.452,28.011-62.452,62.452v29.417H57.485L0,440.939h450.721L393.228,101.652z M185.901,72.235
				c0-21.768,17.712-39.456,39.456-39.456s39.44,17.688,39.44,39.456v23.776h-78.896V72.235z M207.856,321.497l-37.481-56.128
				l-11.03,12.559v43.569h-14.77v-114.32h14.77v55.12h0.52c3.048-4.422,6.088-8.478,8.974-12.201l34.961-42.919h18.306
				l-41.407,48.511l44.634,65.809H207.856z M305.464,261.801v47.65c0,19.013-3.894,30.352-11.697,37.66
				c-8.169,7.283-19.696,9.836-30.043,9.836c-9.86,0-20.704-2.365-27.304-6.763l3.715-11.551c5.438,3.56,13.916,6.609,24.117,6.609
				c15.241,0,26.45-7.958,26.45-28.816v-8.998h-0.333c-4.43,7.625-13.396,13.729-26.117,13.729
				c-20.37,0-34.961-17.298-34.961-40.033c0-27.832,18.151-43.415,37.139-43.415c14.258,0,21.874,7.283,25.621,14.054h0.333
				l0.52-12.364h13.209C305.626,245.178,305.464,251.949,305.464,261.801z"/>
		</g>
	</g>
</g>
<g>
</g>
<g>
</g>
<g>
</g>
<g>
</g>
<g>
</g>
<g>
</g>
<g>
</g>
<g>
</g>
<g>
</g>
<g>
</g>
<g>
</g>
<g>
</g>
<g>
</g>
<g>
</g>
<g>
</g>
</svg>
