<?xml version="1.0" encoding="iso-8859-1"?>
<!-- Generator: Adobe Illustrator 16.0.0, SVG Export Plug-In . SVG Version: 6.00 Build 0)  -->
<!DOCTYPE svg PUBLIC "-//W3C//DTD SVG 1.1//EN" "http://www.w3.org/Graphics/SVG/1.1/DTD/svg11.dtd">
<svg version="1.1" id="Capa_1" xmlns="http://www.w3.org/2000/svg" xmlns:xlink="http://www.w3.org/1999/xlink" x="0px" y="0px"
	 width="356.565px" height="356.565px" viewBox="0 0 356.565 356.565" style="enable-background:new 0 0 356.565 356.565;"
	 xml:space="preserve">
<g>
	<g>
		<g>
			<path d="M186.956,264.355c69.368-4.54,123.729-62.498,123.729-131.949C310.686,59.394,251.268,0,178.286,0
				C105.279,0,45.88,59.394,45.88,132.406c0,69.451,54.347,127.409,123.711,131.949l2.036,0.12v46.441H94.167
				c-3.663,0-6.659,3.002-6.659,6.689c0,3.668,2.997,6.665,6.659,6.665h167.657c3.663,0,6.659-2.997,6.659-6.665
				c0-3.688-2.996-6.689-6.659-6.689h-76.879v-46.441L186.956,264.355z M178.286,152.585c-11.154,0-20.188-9.055-20.188-20.185
				c0-11.136,9.034-20.188,20.188-20.188c2.102,0,4.249,0.381,6.566,1.189l1.033,0.354l49.687-34.912l-38.395,46.717l0.33,1.096
				c0.643,2.102,0.967,3.979,0.967,5.75C198.474,143.536,189.419,152.585,178.286,152.585z"/>
		</g>
		<g>
			<path d="M261.824,343.223H94.167c-3.663,0-6.659,2.99-6.659,6.683c0,3.663,2.997,6.66,6.659,6.66h167.657
				c3.663,0,6.659-2.997,6.659-6.66C268.483,346.213,265.487,343.223,261.824,343.223z"/>
		</g>
	</g>
</g>
<g>
</g>
<g>
</g>
<g>
</g>
<g>
</g>
<g>
</g>
<g>
</g>
<g>
</g>
<g>
</g>
<g>
</g>
<g>
</g>
<g>
</g>
<g>
</g>
<g>
</g>
<g>
</g>
<g>
</g>
</svg>
