<?xml version="1.0" encoding="iso-8859-1"?>
<!-- Generator: Adobe Illustrator 16.0.0, SVG Export Plug-In . SVG Version: 6.00 Build 0)  -->
<!DOCTYPE svg PUBLIC "-//W3C//DTD SVG 1.1//EN" "http://www.w3.org/Graphics/SVG/1.1/DTD/svg11.dtd">
<svg version="1.1" id="Capa_1" xmlns="http://www.w3.org/2000/svg" xmlns:xlink="http://www.w3.org/1999/xlink" x="0px" y="0px"
	 width="349.792px" height="349.792px" viewBox="0 0 349.792 349.792" style="enable-background:new 0 0 349.792 349.792;"
	 xml:space="preserve">
<g>
	<g>
		<g>
			<path d="M342.942,309.764L215.16,181.976c12.641-19.029,19.432-41.334,19.432-64.687c0-31.321-12.189-60.774-34.359-82.936
				C178.081,12.199,148.633,0,117.303,0C85.964,0,56.505,12.199,34.35,34.354C12.201,56.515,0.008,85.968,0.008,117.289
				c0,31.33,12.193,60.783,34.348,82.935c22.161,22.146,51.614,34.359,82.929,34.359c23.361,0,45.669-6.797,64.687-19.431
				L309.724,342.91c4.432,4.432,10.322,6.882,16.609,6.882c6.269,0,12.153-2.438,16.609-6.87
				C352.063,333.771,352.063,318.903,342.942,309.764z M171.181,171.191c-14.381,14.387-33.519,22.32-53.89,22.32
				c-20.344,0-39.481-7.933-53.875-22.32c-14.402-14.399-22.329-33.537-22.329-53.896s7.926-39.494,22.323-53.881
				c14.399-14.402,33.543-22.329,53.899-22.329c20.359,0,39.491,7.927,53.884,22.329c14.388,14.381,22.313,33.516,22.313,53.881
				C193.501,137.648,185.574,156.792,171.181,171.191z"/>
		</g>
		<g>
			<path d="M155.397,112.461H79.089c-2.858,0-5.17,2.315-5.17,5.173c0,2.858,2.312,5.176,5.17,5.176h76.309
				c2.87,0,5.176-2.318,5.176-5.176C160.574,114.776,158.268,112.461,155.397,112.461z"/>
		</g>
	</g>
</g>
<g>
</g>
<g>
</g>
<g>
</g>
<g>
</g>
<g>
</g>
<g>
</g>
<g>
</g>
<g>
</g>
<g>
</g>
<g>
</g>
<g>
</g>
<g>
</g>
<g>
</g>
<g>
</g>
<g>
</g>
</svg>
